{"glyphs":{"0":{"ha":818,"x_min":-46,"x_max":860,"o":"m 488 54 q 469 57 478 54 q 432 89 443 63 q 437 142 424 113 q 472 207 450 171 q 488 233 481 219 q 501 257 496 246 q 506 265 504 261 q 508 271 507 268 q 412 274 467 278 q 289 253 357 271 q 160 213 229 238 q 15 156 92 189 q -15 156 0 150 q -37 176 -31 161 q -39 209 -46 192 q -17 232 -32 226 q 133 292 61 267 q 268 333 204 318 q 547 347 439 376 q 592 308 579 339 q 586 240 604 278 q 543 163 568 203 q 539 156 542 160 q 533 146 536 151 q 628 174 565 153 q 800 235 690 194 q 831 233 815 240 q 853 208 847 225 q 853 177 860 193 q 828 154 846 161 q 711 114 764 132 q 617 83 658 96 q 532 60 561 67 q 488 54 503 54 z "},"1":{"ha":818,"x_min":-46,"x_max":860,"o":"m 488 54 q 469 57 478 54 q 432 89 443 63 q 437 142 424 113 q 472 207 450 171 q 488 233 481 219 q 501 257 496 246 q 506 265 504 261 q 508 271 507 268 q 412 274 467 278 q 289 253 357 271 q 160 213 229 238 q 15 156 92 189 q -15 156 0 150 q -37 176 -31 161 q -39 209 -46 192 q -17 232 -32 226 q 133 292 61 267 q 268 333 204 318 q 547 347 439 376 q 592 308 579 339 q 586 240 604 278 q 543 163 568 203 q 539 156 542 160 q 533 146 536 151 q 628 174 565 153 q 800 235 690 194 q 831 233 815 240 q 853 208 847 225 q 853 177 860 193 q 828 154 846 161 q 711 114 764 132 q 617 83 658 96 q 532 60 561 67 q 488 54 503 54 z "},"2":{"ha":818,"x_min":-46,"x_max":860,"o":"m 488 54 q 469 57 478 54 q 432 89 443 63 q 437 142 424 113 q 472 207 450 171 q 488 233 481 219 q 501 257 496 246 q 506 265 504 261 q 508 271 507 268 q 412 274 467 278 q 289 253 357 271 q 160 213 229 238 q 15 156 92 189 q -15 156 0 150 q -37 176 -31 161 q -39 209 -46 192 q -17 232 -32 226 q 133 292 61 267 q 268 333 204 318 q 547 347 439 376 q 592 308 579 339 q 586 240 604 278 q 543 163 568 203 q 539 156 542 160 q 533 146 536 151 q 628 174 565 153 q 800 235 690 194 q 831 233 815 240 q 853 208 847 225 q 853 177 860 193 q 828 154 846 161 q 711 114 764 132 q 617 83 658 96 q 532 60 561 67 q 488 54 503 54 z "},"3":{"ha":818,"x_min":-46,"x_max":860,"o":"m 488 54 q 469 57 478 54 q 432 89 443 63 q 437 142 424 113 q 472 207 450 171 q 488 233 481 219 q 501 257 496 246 q 506 265 504 261 q 508 271 507 268 q 412 274 467 278 q 289 253 357 271 q 160 213 229 238 q 15 156 92 189 q -15 156 0 150 q -37 176 -31 161 q -39 209 -46 192 q -17 232 -32 226 q 133 292 61 267 q 268 333 204 318 q 547 347 439 376 q 592 308 579 339 q 586 240 604 278 q 543 163 568 203 q 539 156 542 160 q 533 146 536 151 q 628 174 565 153 q 800 235 690 194 q 831 233 815 240 q 853 208 847 225 q 853 177 860 193 q 828 154 846 161 q 711 114 764 132 q 617 83 658 96 q 532 60 561 67 q 488 54 503 54 z "},"4":{"ha":818,"x_min":-46,"x_max":860,"o":"m 488 54 q 469 57 478 54 q 432 89 443 63 q 437 142 424 113 q 472 207 450 171 q 488 233 481 219 q 501 257 496 246 q 506 265 504 261 q 508 271 507 268 q 412 274 467 278 q 289 253 357 271 q 160 213 229 238 q 15 156 92 189 q -15 156 0 150 q -37 176 -31 161 q -39 209 -46 192 q -17 232 -32 226 q 133 292 61 267 q 268 333 204 318 q 547 347 439 376 q 592 308 579 339 q 586 240 604 278 q 543 163 568 203 q 539 156 542 160 q 533 146 536 151 q 628 174 565 153 q 800 235 690 194 q 831 233 815 240 q 853 208 847 225 q 853 177 860 193 q 828 154 846 161 q 711 114 764 132 q 617 83 658 96 q 532 60 561 67 q 488 54 503 54 z "},"5":{"ha":542,"x_min":-46,"x_max":585,"o":"m 175 -42 q 161 -41 168 -42 q 146 -39 154 -40 q 118 -15 129 -33 q 113 15 113 -4 q 125 79 113 35 q 165 211 138 124 q 95 185 135 200 q 14 154 56 169 q -17 156 -1 149 q -40 181 -33 164 q -38 212 -46 196 q -14 235 -31 228 q 98 276 46 257 q 183 308 150 296 q 217 321 217 321 q 243 322 231 326 q 269 301 261 318 q 274 279 276 289 q 269 258 272 269 q 265 247 267 253 q 261 232 264 240 q 241 174 251 208 q 219 106 231 140 q 208 72 213 86 q 201 47 204 58 q 278 79 228 53 q 370 134 321 103 q 471 200 419 165 q 494 214 482 207 q 515 229 506 221 q 548 235 531 239 q 575 217 565 232 q 581 186 585 203 q 563 160 578 169 q 540 144 551 151 q 515 128 528 136 q 413 61 463 93 q 318 6 363 29 q 175 -42 228 -42 z "},"6":{"ha":542,"x_min":-46,"x_max":585,"o":"m 175 -42 q 161 -41 168 -42 q 146 -39 154 -40 q 118 -15 129 -33 q 113 15 113 -4 q 125 79 113 35 q 165 211 138 124 q 95 185 135 200 q 14 154 56 169 q -17 156 -1 149 q -40 181 -33 164 q -38 212 -46 196 q -14 235 -31 228 q 98 276 46 257 q 183 308 150 296 q 217 321 217 321 q 243 322 231 326 q 269 301 261 318 q 274 279 276 289 q 269 258 272 269 q 265 247 267 253 q 261 232 264 240 q 241 174 251 208 q 219 106 231 140 q 208 72 213 86 q 201 47 204 58 q 278 79 228 53 q 370 134 321 103 q 471 200 419 165 q 494 214 482 207 q 515 229 506 221 q 548 235 531 239 q 575 217 565 232 q 581 186 585 203 q 563 160 578 169 q 540 144 551 151 q 515 128 528 136 q 413 61 463 93 q 318 6 363 29 q 175 -42 228 -42 z "},"7":{"ha":542,"x_min":-46,"x_max":585,"o":"m 175 -42 q 161 -41 168 -42 q 146 -39 154 -40 q 118 -15 129 -33 q 113 15 113 -4 q 125 79 113 35 q 165 211 138 124 q 95 185 135 200 q 14 154 56 169 q -17 156 -1 149 q -40 181 -33 164 q -38 212 -46 196 q -14 235 -31 228 q 98 276 46 257 q 183 308 150 296 q 217 321 217 321 q 243 322 231 326 q 269 301 261 318 q 274 279 276 289 q 269 258 272 269 q 265 247 267 253 q 261 232 264 240 q 241 174 251 208 q 219 106 231 140 q 208 72 213 86 q 201 47 204 58 q 278 79 228 53 q 370 134 321 103 q 471 200 419 165 q 494 214 482 207 q 515 229 506 221 q 548 235 531 239 q 575 217 565 232 q 581 186 585 203 q 563 160 578 169 q 540 144 551 151 q 515 128 528 136 q 413 61 463 93 q 318 6 363 29 q 175 -42 228 -42 z "},"8":{"ha":542,"x_min":-46,"x_max":585,"o":"m 175 -42 q 161 -41 168 -42 q 146 -39 154 -40 q 118 -15 129 -33 q 113 15 113 -4 q 125 79 113 35 q 165 211 138 124 q 95 185 135 200 q 14 154 56 169 q -17 156 -1 149 q -40 181 -33 164 q -38 212 -46 196 q -14 235 -31 228 q 98 276 46 257 q 183 308 150 296 q 217 321 217 321 q 243 322 231 326 q 269 301 261 318 q 274 279 276 289 q 269 258 272 269 q 265 247 267 253 q 261 232 264 240 q 241 174 251 208 q 219 106 231 140 q 208 72 213 86 q 201 47 204 58 q 278 79 228 53 q 370 134 321 103 q 471 200 419 165 q 494 214 482 207 q 515 229 506 221 q 548 235 531 239 q 575 217 565 232 q 581 186 585 203 q 563 160 578 169 q 540 144 551 151 q 515 128 528 136 q 413 61 463 93 q 318 6 363 29 q 175 -42 228 -42 z "},"9":{"ha":542,"x_min":-46,"x_max":585,"o":"m 175 -42 q 161 -41 168 -42 q 146 -39 154 -40 q 118 -15 129 -33 q 113 15 113 -4 q 125 79 113 35 q 165 211 138 124 q 95 185 135 200 q 14 154 56 169 q -17 156 -1 149 q -40 181 -33 164 q -38 212 -46 196 q -14 235 -31 228 q 98 276 46 257 q 183 308 150 296 q 217 321 217 321 q 243 322 231 326 q 269 301 261 318 q 274 279 276 289 q 269 258 272 269 q 265 247 267 253 q 261 232 264 240 q 241 174 251 208 q 219 106 231 140 q 208 72 213 86 q 201 47 204 58 q 278 79 228 53 q 370 134 321 103 q 471 200 419 165 q 494 214 482 207 q 515 229 506 221 q 548 235 531 239 q 575 217 565 232 q 581 186 585 203 q 563 160 578 169 q 540 144 551 151 q 515 128 528 136 q 413 61 463 93 q 318 6 363 29 q 175 -42 228 -42 z "},"A":{"ha":739,"x_min":-43,"x_max":781,"o":"m 111 -39 q 92 -37 101 -39 q 72 -33 82 -35 q 38 -4 47 -26 q 38 63 25 24 q 82 165 51 103 q 94 190 88 176 q 106 217 100 204 q 67 194 88 210 q 26 161 47 178 q -5 153 13 151 q -33 168 -22 156 q -41 199 -43 182 q -26 228 -39 215 q 15 258 -7 242 q 58 286 36 275 q 163 301 115 315 q 196 274 185 297 q 195 218 207 251 q 156 128 183 185 q 141 94 149 111 q 126 63 133 78 q 123 53 125 57 q 119 44 121 49 q 205 74 149 49 q 357 176 261 100 q 450 255 408 217 q 517 318 492 293 q 542 343 542 343 q 582 356 558 363 q 600 347 593 354 q 611 332 607 339 q 613 287 621 313 q 582 204 606 261 q 566 168 574 186 q 551 135 558 150 q 549 126 550 129 q 547 119 549 122 q 603 142 574 124 q 662 185 633 161 q 710 225 690 208 q 740 236 724 238 q 769 222 757 235 q 780 192 781 208 q 765 163 779 175 q 677 92 722 125 q 587 42 632 58 q 496 38 542 26 q 464 65 474 47 q 459 108 456 85 q 475 167 463 132 q 444 140 460 153 q 410 113 428 128 q 111 -39 218 -39 z "},"À":{"ha":739,"x_min":-43,"x_max":781,"o":"m 111 -39 q 92 -37 101 -39 q 72 -33 82 -35 q 38 -4 47 -26 q 38 63 25 24 q 82 165 51 103 q 94 190 88 176 q 106 217 100 204 q 67 194 88 210 q 26 161 47 178 q -5 153 13 151 q -33 168 -22 156 q -41 199 -43 182 q -26 228 -39 215 q 15 258 -7 242 q 58 286 36 275 q 163 301 115 315 q 196 274 185 297 q 195 218 207 251 q 156 128 183 185 q 141 94 149 111 q 126 63 133 78 q 123 53 125 57 q 119 44 121 49 q 205 74 149 49 q 357 176 261 100 q 450 255 408 217 q 517 318 492 293 q 542 343 542 343 q 582 356 558 363 q 600 347 593 354 q 611 332 607 339 q 613 287 621 313 q 582 204 606 261 q 566 168 574 186 q 551 135 558 150 q 549 126 550 129 q 547 119 549 122 q 603 142 574 124 q 662 185 633 161 q 710 225 690 208 q 740 236 724 238 q 769 222 757 235 q 780 192 781 208 q 765 163 779 175 q 677 92 722 125 q 587 42 632 58 q 496 38 542 26 q 464 65 474 47 q 459 108 456 85 q 475 167 463 132 q 444 140 460 153 q 410 113 428 128 q 111 -39 218 -39 z "},"Á":{"ha":818,"x_min":-46,"x_max":860,"o":"m 488 54 q 469 57 478 54 q 432 89 443 63 q 437 142 424 113 q 472 207 450 171 q 488 233 481 219 q 501 257 496 246 q 506 265 504 261 q 508 271 507 268 q 412 274 467 278 q 289 253 357 271 q 160 213 229 238 q 15 156 92 189 q -15 156 0 150 q -37 176 -31 161 q -39 209 -46 192 q -17 232 -32 226 q 133 292 61 267 q 268 333 204 318 q 547 347 439 376 q 592 308 579 339 q 586 240 604 278 q 543 163 568 203 q 539 156 542 160 q 533 146 536 151 q 628 174 565 153 q 800 235 690 194 q 831 233 815 240 q 853 208 847 225 q 853 177 860 193 q 828 154 846 161 q 711 114 764 132 q 617 83 658 96 q 532 60 561 67 q 488 54 503 54 z "},"Â":{"ha":739,"x_min":-43,"x_max":781,"o":"m 111 -39 q 92 -37 101 -39 q 72 -33 82 -35 q 38 -4 47 -26 q 38 63 25 24 q 82 165 51 103 q 94 190 88 176 q 106 217 100 204 q 67 194 88 210 q 26 161 47 178 q -5 153 13 151 q -33 168 -22 156 q -41 199 -43 182 q -26 228 -39 215 q 15 258 -7 242 q 58 286 36 275 q 163 301 115 315 q 196 274 185 297 q 195 218 207 251 q 156 128 183 185 q 141 94 149 111 q 126 63 133 78 q 123 53 125 57 q 119 44 121 49 q 205 74 149 49 q 357 176 261 100 q 450 255 408 217 q 517 318 492 293 q 542 343 542 343 q 582 356 558 363 q 600 347 593 354 q 611 332 607 339 q 613 287 621 313 q 582 204 606 261 q 566 168 574 186 q 551 135 558 150 q 549 126 550 129 q 547 119 549 122 q 603 142 574 124 q 662 185 633 161 q 710 225 690 208 q 740 236 724 238 q 769 222 757 235 q 780 192 781 208 q 765 163 779 175 q 677 92 722 125 q 587 42 632 58 q 496 38 542 26 q 464 65 474 47 q 459 108 456 85 q 475 167 463 132 q 444 140 460 153 q 410 113 428 128 q 111 -39 218 -39 z "},"Ã":{"ha":739,"x_min":-43,"x_max":781,"o":"m 111 -39 q 92 -37 101 -39 q 72 -33 82 -35 q 38 -4 47 -26 q 38 63 25 24 q 82 165 51 103 q 94 190 88 176 q 106 217 100 204 q 67 194 88 210 q 26 161 47 178 q -5 153 13 151 q -33 168 -22 156 q -41 199 -43 182 q -26 228 -39 215 q 15 258 -7 242 q 58 286 36 275 q 163 301 115 315 q 196 274 185 297 q 195 218 207 251 q 156 128 183 185 q 141 94 149 111 q 126 63 133 78 q 123 53 125 57 q 119 44 121 49 q 205 74 149 49 q 357 176 261 100 q 450 255 408 217 q 517 318 492 293 q 542 343 542 343 q 582 356 558 363 q 600 347 593 354 q 611 332 607 339 q 613 287 621 313 q 582 204 606 261 q 566 168 574 186 q 551 135 558 150 q 549 126 550 129 q 547 119 549 122 q 603 142 574 124 q 662 185 633 161 q 710 225 690 208 q 740 236 724 238 q 769 222 757 235 q 780 192 781 208 q 765 163 779 175 q 677 92 722 125 q 587 42 632 58 q 496 38 542 26 q 464 65 474 47 q 459 108 456 85 q 475 167 463 132 q 444 140 460 153 q 410 113 428 128 q 111 -39 218 -39 z "},"Ä":{"ha":739,"x_min":-43,"x_max":781,"o":"m 111 -39 q 92 -37 101 -39 q 72 -33 82 -35 q 38 -4 47 -26 q 38 63 25 24 q 82 165 51 103 q 94 190 88 176 q 106 217 100 204 q 67 194 88 210 q 26 161 47 178 q -5 153 13 151 q -33 168 -22 156 q -41 199 -43 182 q -26 228 -39 215 q 15 258 -7 242 q 58 286 36 275 q 163 301 115 315 q 196 274 185 297 q 195 218 207 251 q 156 128 183 185 q 141 94 149 111 q 126 63 133 78 q 123 53 125 57 q 119 44 121 49 q 205 74 149 49 q 357 176 261 100 q 450 255 408 217 q 517 318 492 293 q 542 343 542 343 q 582 356 558 363 q 600 347 593 354 q 611 332 607 339 q 613 287 621 313 q 582 204 606 261 q 566 168 574 186 q 551 135 558 150 q 549 126 550 129 q 547 119 549 122 q 603 142 574 124 q 662 185 633 161 q 710 225 690 208 q 740 236 724 238 q 769 222 757 235 q 780 192 781 208 q 765 163 779 175 q 677 92 722 125 q 587 42 632 58 q 496 38 542 26 q 464 65 474 47 q 459 108 456 85 q 475 167 463 132 q 444 140 460 153 q 410 113 428 128 q 111 -39 218 -39 z "},"Å":{"ha":739,"x_min":-43,"x_max":781,"o":"m 111 -39 q 92 -37 101 -39 q 72 -33 82 -35 q 38 -4 47 -26 q 38 63 25 24 q 82 165 51 103 q 94 190 88 176 q 106 217 100 204 q 67 194 88 210 q 26 161 47 178 q -5 153 13 151 q -33 168 -22 156 q -41 199 -43 182 q -26 228 -39 215 q 15 258 -7 242 q 58 286 36 275 q 163 301 115 315 q 196 274 185 297 q 195 218 207 251 q 156 128 183 185 q 141 94 149 111 q 126 63 133 78 q 123 53 125 57 q 119 44 121 49 q 205 74 149 49 q 357 176 261 100 q 450 255 408 217 q 517 318 492 293 q 542 343 542 343 q 582 356 558 363 q 600 347 593 354 q 611 332 607 339 q 613 287 621 313 q 582 204 606 261 q 566 168 574 186 q 551 135 558 150 q 549 126 550 129 q 547 119 549 122 q 603 142 574 124 q 662 185 633 161 q 710 225 690 208 q 740 236 724 238 q 769 222 757 235 q 780 192 781 208 q 765 163 779 175 q 677 92 722 125 q 587 42 632 58 q 496 38 542 26 q 464 65 474 47 q 459 108 456 85 q 475 167 463 132 q 444 140 460 153 q 410 113 428 128 q 111 -39 218 -39 z "},"Ā":{"ha":739,"x_min":-43,"x_max":781,"o":"m 111 -39 q 92 -37 101 -39 q 72 -33 82 -35 q 38 -4 47 -26 q 38 63 25 24 q 82 165 51 103 q 94 190 88 176 q 106 217 100 204 q 67 194 88 210 q 26 161 47 178 q -5 153 13 151 q -33 168 -22 156 q -41 199 -43 182 q -26 228 -39 215 q 15 258 -7 242 q 58 286 36 275 q 163 301 115 315 q 196 274 185 297 q 195 218 207 251 q 156 128 183 185 q 141 94 149 111 q 126 63 133 78 q 123 53 125 57 q 119 44 121 49 q 205 74 149 49 q 357 176 261 100 q 450 255 408 217 q 517 318 492 293 q 542 343 542 343 q 582 356 558 363 q 600 347 593 354 q 611 332 607 339 q 613 287 621 313 q 582 204 606 261 q 566 168 574 186 q 551 135 558 150 q 549 126 550 129 q 547 119 549 122 q 603 142 574 124 q 662 185 633 161 q 710 225 690 208 q 740 236 724 238 q 769 222 757 235 q 780 192 781 208 q 765 163 779 175 q 677 92 722 125 q 587 42 632 58 q 496 38 542 26 q 464 65 474 47 q 459 108 456 85 q 475 167 463 132 q 444 140 460 153 q 410 113 428 128 q 111 -39 218 -39 z "},"Ă":{"ha":739,"x_min":-43,"x_max":781,"o":"m 111 -39 q 92 -37 101 -39 q 72 -33 82 -35 q 38 -4 47 -26 q 38 63 25 24 q 82 165 51 103 q 94 190 88 176 q 106 217 100 204 q 67 194 88 210 q 26 161 47 178 q -5 153 13 151 q -33 168 -22 156 q -41 199 -43 182 q -26 228 -39 215 q 15 258 -7 242 q 58 286 36 275 q 163 301 115 315 q 196 274 185 297 q 195 218 207 251 q 156 128 183 185 q 141 94 149 111 q 126 63 133 78 q 123 53 125 57 q 119 44 121 49 q 205 74 149 49 q 357 176 261 100 q 450 255 408 217 q 517 318 492 293 q 542 343 542 343 q 582 356 558 363 q 600 347 593 354 q 611 332 607 339 q 613 287 621 313 q 582 204 606 261 q 566 168 574 186 q 551 135 558 150 q 549 126 550 129 q 547 119 549 122 q 603 142 574 124 q 662 185 633 161 q 710 225 690 208 q 740 236 724 238 q 769 222 757 235 q 780 192 781 208 q 765 163 779 175 q 677 92 722 125 q 587 42 632 58 q 496 38 542 26 q 464 65 474 47 q 459 108 456 85 q 475 167 463 132 q 444 140 460 153 q 410 113 428 128 q 111 -39 218 -39 z "},"Ą":{"ha":739,"x_min":-43,"x_max":781,"o":"m 111 -39 q 92 -37 101 -39 q 72 -33 82 -35 q 38 -4 47 -26 q 38 63 25 24 q 82 165 51 103 q 94 190 88 176 q 106 217 100 204 q 67 194 88 210 q 26 161 47 178 q -5 153 13 151 q -33 168 -22 156 q -41 199 -43 182 q -26 228 -39 215 q 15 258 -7 242 q 58 286 36 275 q 163 301 115 315 q 196 274 185 297 q 195 218 207 251 q 156 128 183 185 q 141 94 149 111 q 126 63 133 78 q 123 53 125 57 q 119 44 121 49 q 205 74 149 49 q 357 176 261 100 q 450 255 408 217 q 517 318 492 293 q 542 343 542 343 q 582 356 558 363 q 600 347 593 354 q 611 332 607 339 q 613 287 621 313 q 582 204 606 261 q 566 168 574 186 q 551 135 558 150 q 549 126 550 129 q 547 119 549 122 q 603 142 574 124 q 662 185 633 161 q 710 225 690 208 q 740 236 724 238 q 769 222 757 235 q 780 192 781 208 q 765 163 779 175 q 677 92 722 125 q 587 42 632 58 q 496 38 542 26 q 464 65 474 47 q 459 108 456 85 q 475 167 463 132 q 444 140 460 153 q 410 113 428 128 q 111 -39 218 -39 z "},"B":{"ha":739,"x_min":-43,"x_max":781,"o":"m 111 -39 q 92 -37 101 -39 q 72 -33 82 -35 q 38 -4 47 -26 q 38 63 25 24 q 82 165 51 103 q 94 190 88 176 q 106 217 100 204 q 67 194 88 210 q 26 161 47 178 q -5 153 13 151 q -33 168 -22 156 q -41 199 -43 182 q -26 228 -39 215 q 15 258 -7 242 q 58 286 36 275 q 163 301 115 315 q 196 274 185 297 q 195 218 207 251 q 156 128 183 185 q 141 94 149 111 q 126 63 133 78 q 123 53 125 57 q 119 44 121 49 q 205 74 149 49 q 357 176 261 100 q 450 255 408 217 q 517 318 492 293 q 542 343 542 343 q 582 356 558 363 q 600 347 593 354 q 611 332 607 339 q 613 287 621 313 q 582 204 606 261 q 566 168 574 186 q 551 135 558 150 q 549 126 550 129 q 547 119 549 122 q 603 142 574 124 q 662 185 633 161 q 710 225 690 208 q 740 236 724 238 q 769 222 757 235 q 780 192 781 208 q 765 163 779 175 q 677 92 722 125 q 587 42 632 58 q 496 38 542 26 q 464 65 474 47 q 459 108 456 85 q 475 167 463 132 q 444 140 460 153 q 410 113 428 128 q 111 -39 218 -39 z "},"C":{"ha":739,"x_min":-43,"x_max":781,"o":"m 111 -39 q 92 -37 101 -39 q 72 -33 82 -35 q 38 -4 47 -26 q 38 63 25 24 q 82 165 51 103 q 94 190 88 176 q 106 217 100 204 q 67 194 88 210 q 26 161 47 178 q -5 153 13 151 q -33 168 -22 156 q -41 199 -43 182 q -26 228 -39 215 q 15 258 -7 242 q 58 286 36 275 q 163 301 115 315 q 196 274 185 297 q 195 218 207 251 q 156 128 183 185 q 141 94 149 111 q 126 63 133 78 q 123 53 125 57 q 119 44 121 49 q 205 74 149 49 q 357 176 261 100 q 450 255 408 217 q 517 318 492 293 q 542 343 542 343 q 582 356 558 363 q 600 347 593 354 q 611 332 607 339 q 613 287 621 313 q 582 204 606 261 q 566 168 574 186 q 551 135 558 150 q 549 126 550 129 q 547 119 549 122 q 603 142 574 124 q 662 185 633 161 q 710 225 690 208 q 740 236 724 238 q 769 222 757 235 q 780 192 781 208 q 765 163 779 175 q 677 92 722 125 q 587 42 632 58 q 496 38 542 26 q 464 65 474 47 q 459 108 456 85 q 475 167 463 132 q 444 140 460 153 q 410 113 428 128 q 111 -39 218 -39 z "},"Ç":{"ha":382,"x_min":-43,"x_max":431,"o":"m 185 82 q 174 83 178 82 q 142 101 151 89 q 131 119 133 113 q 138 183 121 150 q 181 251 154 215 q 197 276 189 263 q 210 299 204 289 q 214 304 211 300 q 194 296 206 301 q 167 279 182 290 q 114 240 142 264 q 57 189 86 215 q 42 176 50 183 q 28 163 35 169 q -2 152 15 151 q -31 167 -19 153 q -42 197 -43 179 q -28 225 -40 214 q -13 239 -21 232 q 1 251 -6 246 q 89 326 46 292 q 174 378 132 360 q 254 385 215 396 q 288 366 278 379 q 300 343 299 353 q 294 278 313 313 q 249 204 276 244 q 242 195 246 201 q 235 183 239 189 q 289 204 256 192 q 369 235 322 217 q 403 233 388 240 q 424 208 418 225 q 423 177 431 193 q 400 154 415 161 q 319 126 356 139 q 258 104 283 114 q 234 95 244 99 q 215 89 224 92 q 199 84 206 86 q 185 82 192 82 z "},"Ć":{"ha":739,"x_min":-43,"x_max":781,"o":"m 111 -39 q 92 -37 101 -39 q 72 -33 82 -35 q 38 -4 47 -26 q 38 63 25 24 q 82 165 51 103 q 94 190 88 176 q 106 217 100 204 q 67 194 88 210 q 26 161 47 178 q -5 153 13 151 q -33 168 -22 156 q -41 199 -43 182 q -26 228 -39 215 q 15 258 -7 242 q 58 286 36 275 q 163 301 115 315 q 196 274 185 297 q 195 218 207 251 q 156 128 183 185 q 141 94 149 111 q 126 63 133 78 q 123 53 125 57 q 119 44 121 49 q 205 74 149 49 q 357 176 261 100 q 450 255 408 217 q 517 318 492 293 q 542 343 542 343 q 582 356 558 363 q 600 347 593 354 q 611 332 607 339 q 613 287 621 313 q 582 204 606 261 q 566 168 574 186 q 551 135 558 150 q 549 126 550 129 q 547 119 549 122 q 603 142 574 124 q 662 185 633 161 q 710 225 690 208 q 740 236 724 238 q 769 222 757 235 q 780 192 781 208 q 765 163 779 175 q 677 92 722 125 q 587 42 632 58 q 496 38 542 26 q 464 65 474 47 q 459 108 456 85 q 475 167 463 132 q 444 140 460 153 q 410 113 428 128 q 111 -39 218 -39 z "},"Č":{"ha":382,"x_min":-43,"x_max":431,"o":"m 185 82 q 174 83 178 82 q 142 101 151 89 q 131 119 133 113 q 138 183 121 150 q 181 251 154 215 q 197 276 189 263 q 210 299 204 289 q 214 304 211 300 q 194 296 206 301 q 167 279 182 290 q 114 240 142 264 q 57 189 86 215 q 42 176 50 183 q 28 163 35 169 q -2 152 15 151 q -31 167 -19 153 q -42 197 -43 179 q -28 225 -40 214 q -13 239 -21 232 q 1 251 -6 246 q 89 326 46 292 q 174 378 132 360 q 254 385 215 396 q 288 366 278 379 q 300 343 299 353 q 294 278 313 313 q 249 204 276 244 q 242 195 246 201 q 235 183 239 189 q 289 204 256 192 q 369 235 322 217 q 403 233 388 240 q 424 208 418 225 q 423 177 431 193 q 400 154 415 161 q 319 126 356 139 q 258 104 283 114 q 234 95 244 99 q 215 89 224 92 q 199 84 206 86 q 185 82 192 82 z "},"D":{"ha":739,"x_min":-43,"x_max":781,"o":"m 111 -39 q 92 -37 101 -39 q 72 -33 82 -35 q 38 -4 47 -26 q 38 63 25 24 q 82 165 51 103 q 94 190 88 176 q 106 217 100 204 q 67 194 88 210 q 26 161 47 178 q -5 153 13 151 q -33 168 -22 156 q -41 199 -43 182 q -26 228 -39 215 q 15 258 -7 242 q 58 286 36 275 q 163 301 115 315 q 196 274 185 297 q 195 218 207 251 q 156 128 183 185 q 141 94 149 111 q 126 63 133 78 q 123 53 125 57 q 119 44 121 49 q 205 74 149 49 q 357 176 261 100 q 450 255 408 217 q 517 318 492 293 q 542 343 542 343 q 582 356 558 363 q 600 347 593 354 q 611 332 607 339 q 613 287 621 313 q 582 204 606 261 q 566 168 574 186 q 551 135 558 150 q 549 126 550 129 q 547 119 549 122 q 603 142 574 124 q 662 185 633 161 q 710 225 690 208 q 740 236 724 238 q 769 222 757 235 q 780 192 781 208 q 765 163 779 175 q 677 92 722 125 q 587 42 632 58 q 496 38 542 26 q 464 65 474 47 q 459 108 456 85 q 475 167 463 132 q 444 140 460 153 q 410 113 428 128 q 111 -39 218 -39 z "},"Ď":{"ha":382,"x_min":-43,"x_max":431,"o":"m 185 82 q 174 83 178 82 q 142 101 151 89 q 131 119 133 113 q 138 183 121 150 q 181 251 154 215 q 197 276 189 263 q 210 299 204 289 q 214 304 211 300 q 194 296 206 301 q 167 279 182 290 q 114 240 142 264 q 57 189 86 215 q 42 176 50 183 q 28 163 35 169 q -2 152 15 151 q -31 167 -19 153 q -42 197 -43 179 q -28 225 -40 214 q -13 239 -21 232 q 1 251 -6 246 q 89 326 46 292 q 174 378 132 360 q 254 385 215 396 q 288 366 278 379 q 300 343 299 353 q 294 278 313 313 q 249 204 276 244 q 242 195 246 201 q 235 183 239 189 q 289 204 256 192 q 369 235 322 217 q 403 233 388 240 q 424 208 418 225 q 423 177 431 193 q 400 154 415 161 q 319 126 356 139 q 258 104 283 114 q 234 95 244 99 q 215 89 224 92 q 199 84 206 86 q 185 82 192 82 z "},"E":{"ha":739,"x_min":-43,"x_max":781,"o":"m 111 -39 q 92 -37 101 -39 q 72 -33 82 -35 q 38 -4 47 -26 q 38 63 25 24 q 82 165 51 103 q 94 190 88 176 q 106 217 100 204 q 67 194 88 210 q 26 161 47 178 q -5 153 13 151 q -33 168 -22 156 q -41 199 -43 182 q -26 228 -39 215 q 15 258 -7 242 q 58 286 36 275 q 163 301 115 315 q 196 274 185 297 q 195 218 207 251 q 156 128 183 185 q 141 94 149 111 q 126 63 133 78 q 123 53 125 57 q 119 44 121 49 q 205 74 149 49 q 357 176 261 100 q 450 255 408 217 q 517 318 492 293 q 542 343 542 343 q 582 356 558 363 q 600 347 593 354 q 611 332 607 339 q 613 287 621 313 q 582 204 606 261 q 566 168 574 186 q 551 135 558 150 q 549 126 550 129 q 547 119 549 122 q 603 142 574 124 q 662 185 633 161 q 710 225 690 208 q 740 236 724 238 q 769 222 757 235 q 780 192 781 208 q 765 163 779 175 q 677 92 722 125 q 587 42 632 58 q 496 38 542 26 q 464 65 474 47 q 459 108 456 85 q 475 167 463 132 q 444 140 460 153 q 410 113 428 128 q 111 -39 218 -39 z "},"È":{"ha":382,"x_min":-43,"x_max":431,"o":"m 185 82 q 174 83 178 82 q 142 101 151 89 q 131 119 133 113 q 138 183 121 150 q 181 251 154 215 q 197 276 189 263 q 210 299 204 289 q 214 304 211 300 q 194 296 206 301 q 167 279 182 290 q 114 240 142 264 q 57 189 86 215 q 42 176 50 183 q 28 163 35 169 q -2 152 15 151 q -31 167 -19 153 q -42 197 -43 179 q -28 225 -40 214 q -13 239 -21 232 q 1 251 -6 246 q 89 326 46 292 q 174 378 132 360 q 254 385 215 396 q 288 366 278 379 q 300 343 299 353 q 294 278 313 313 q 249 204 276 244 q 242 195 246 201 q 235 183 239 189 q 289 204 256 192 q 369 235 322 217 q 403 233 388 240 q 424 208 418 225 q 423 177 431 193 q 400 154 415 161 q 319 126 356 139 q 258 104 283 114 q 234 95 244 99 q 215 89 224 92 q 199 84 206 86 q 185 82 192 82 z "},"É":{"ha":382,"x_min":-43,"x_max":431,"o":"m 185 82 q 174 83 178 82 q 142 101 151 89 q 131 119 133 113 q 138 183 121 150 q 181 251 154 215 q 197 276 189 263 q 210 299 204 289 q 214 304 211 300 q 194 296 206 301 q 167 279 182 290 q 114 240 142 264 q 57 189 86 215 q 42 176 50 183 q 28 163 35 169 q -2 152 15 151 q -31 167 -19 153 q -42 197 -43 179 q -28 225 -40 214 q -13 239 -21 232 q 1 251 -6 246 q 89 326 46 292 q 174 378 132 360 q 254 385 215 396 q 288 366 278 379 q 300 343 299 353 q 294 278 313 313 q 249 204 276 244 q 242 195 246 201 q 235 183 239 189 q 289 204 256 192 q 369 235 322 217 q 403 233 388 240 q 424 208 418 225 q 423 177 431 193 q 400 154 415 161 q 319 126 356 139 q 258 104 283 114 q 234 95 244 99 q 215 89 224 92 q 199 84 206 86 q 185 82 192 82 z "},"Ê":{"ha":382,"x_min":-43,"x_max":431,"o":"m 185 82 q 174 83 178 82 q 142 101 151 89 q 131 119 133 113 q 138 183 121 150 q 181 251 154 215 q 197 276 189 263 q 210 299 204 289 q 214 304 211 300 q 194 296 206 301 q 167 279 182 290 q 114 240 142 264 q 57 189 86 215 q 42 176 50 183 q 28 163 35 169 q -2 152 15 151 q -31 167 -19 153 q -42 197 -43 179 q -28 225 -40 214 q -13 239 -21 232 q 1 251 -6 246 q 89 326 46 292 q 174 378 132 360 q 254 385 215 396 q 288 366 278 379 q 300 343 299 353 q 294 278 313 313 q 249 204 276 244 q 242 195 246 201 q 235 183 239 189 q 289 204 256 192 q 369 235 322 217 q 403 233 388 240 q 424 208 418 225 q 423 177 431 193 q 400 154 415 161 q 319 126 356 139 q 258 104 283 114 q 234 95 244 99 q 215 89 224 92 q 199 84 206 86 q 185 82 192 82 z "},"Ë":{"ha":382,"x_min":-43,"x_max":431,"o":"m 185 82 q 174 83 178 82 q 142 101 151 89 q 131 119 133 113 q 138 183 121 150 q 181 251 154 215 q 197 276 189 263 q 210 299 204 289 q 214 304 211 300 q 194 296 206 301 q 167 279 182 290 q 114 240 142 264 q 57 189 86 215 q 42 176 50 183 q 28 163 35 169 q -2 152 15 151 q -31 167 -19 153 q -42 197 -43 179 q -28 225 -40 214 q -13 239 -21 232 q 1 251 -6 246 q 89 326 46 292 q 174 378 132 360 q 254 385 215 396 q 288 366 278 379 q 300 343 299 353 q 294 278 313 313 q 249 204 276 244 q 242 195 246 201 q 235 183 239 189 q 289 204 256 192 q 369 235 322 217 q 403 233 388 240 q 424 208 418 225 q 423 177 431 193 q 400 154 415 161 q 319 126 356 139 q 258 104 283 114 q 234 95 244 99 q 215 89 224 92 q 199 84 206 86 q 185 82 192 82 z "},"Ē":{"ha":540,"x_min":-46,"x_max":586,"o":"m 317 40 q 289 50 300 40 q 276 96 267 68 q 287 129 276 97 q 311 201 297 161 q 324 242 318 225 q 333 274 329 260 q 242 240 296 260 q 128 197 188 219 q 14 154 69 175 q -17 156 -1 149 q -40 181 -33 164 q -38 212 -46 196 q -14 235 -31 228 q 115 281 49 257 q 239 327 182 306 q 332 363 296 349 q 368 376 368 376 q 382 378 375 378 q 394 376 389 379 q 422 354 414 374 q 428 326 429 343 q 421 276 428 308 q 410 237 417 258 q 394 188 404 215 q 392 178 393 182 q 389 168 390 174 q 525 232 444 199 q 556 233 540 239 q 578 211 572 226 q 579 179 586 196 q 557 156 572 163 q 445 103 494 128 q 367 63 396 78 q 338 47 338 47 q 317 40 329 40 z "},"Ė":{"ha":540,"x_min":-46,"x_max":586,"o":"m 317 40 q 289 50 300 40 q 276 96 267 68 q 287 129 276 97 q 311 201 297 161 q 324 242 318 225 q 333 274 329 260 q 242 240 296 260 q 128 197 188 219 q 14 154 69 175 q -17 156 -1 149 q -40 181 -33 164 q -38 212 -46 196 q -14 235 -31 228 q 115 281 49 257 q 239 327 182 306 q 332 363 296 349 q 368 376 368 376 q 382 378 375 378 q 394 376 389 379 q 422 354 414 374 q 428 326 429 343 q 421 276 428 308 q 410 237 417 258 q 394 188 404 215 q 392 178 393 182 q 389 168 390 174 q 525 232 444 199 q 556 233 540 239 q 578 211 572 226 q 579 179 586 196 q 557 156 572 163 q 445 103 494 128 q 367 63 396 78 q 338 47 338 47 q 317 40 329 40 z "},"Ę":{"ha":818,"x_min":-46,"x_max":860,"o":"m 488 54 q 469 57 478 54 q 432 89 443 63 q 437 142 424 113 q 472 207 450 171 q 488 233 481 219 q 501 257 496 246 q 506 265 504 261 q 508 271 507 268 q 412 274 467 278 q 289 253 357 271 q 160 213 229 238 q 15 156 92 189 q -15 156 0 150 q -37 176 -31 161 q -39 209 -46 192 q -17 232 -32 226 q 133 292 61 267 q 268 333 204 318 q 547 347 439 376 q 592 308 579 339 q 586 240 604 278 q 543 163 568 203 q 539 156 542 160 q 533 146 536 151 q 628 174 565 153 q 800 235 690 194 q 831 233 815 240 q 853 208 847 225 q 853 177 860 193 q 828 154 846 161 q 711 114 764 132 q 617 83 658 96 q 532 60 561 67 q 488 54 503 54 z "},"Ě":{"ha":818,"x_min":-46,"x_max":860,"o":"m 488 54 q 469 57 478 54 q 432 89 443 63 q 437 142 424 113 q 472 207 450 171 q 488 233 481 219 q 501 257 496 246 q 506 265 504 261 q 508 271 507 268 q 412 274 467 278 q 289 253 357 271 q 160 213 229 238 q 15 156 92 189 q -15 156 0 150 q -37 176 -31 161 q -39 209 -46 192 q -17 232 -32 226 q 133 292 61 267 q 268 333 204 318 q 547 347 439 376 q 592 308 579 339 q 586 240 604 278 q 543 163 568 203 q 539 156 542 160 q 533 146 536 151 q 628 174 565 153 q 800 235 690 194 q 831 233 815 240 q 853 208 847 225 q 853 177 860 193 q 828 154 846 161 q 711 114 764 132 q 617 83 658 96 q 532 60 561 67 q 488 54 503 54 z "},"F":{"ha":382,"x_min":-43,"x_max":431,"o":"m 185 82 q 174 83 178 82 q 142 101 151 89 q 131 119 133 113 q 138 183 121 150 q 181 251 154 215 q 197 276 189 263 q 210 299 204 289 q 214 304 211 300 q 194 296 206 301 q 167 279 182 290 q 114 240 142 264 q 57 189 86 215 q 42 176 50 183 q 28 163 35 169 q -2 152 15 151 q -31 167 -19 153 q -42 197 -43 179 q -28 225 -40 214 q -13 239 -21 232 q 1 251 -6 246 q 89 326 46 292 q 174 378 132 360 q 254 385 215 396 q 288 366 278 379 q 300 343 299 353 q 294 278 313 313 q 249 204 276 244 q 242 195 246 201 q 235 183 239 189 q 289 204 256 192 q 369 235 322 217 q 403 233 388 240 q 424 208 418 225 q 423 177 431 193 q 400 154 415 161 q 319 126 356 139 q 258 104 283 114 q 234 95 244 99 q 215 89 224 92 q 199 84 206 86 q 185 82 192 82 z "},"G":{"ha":382,"x_min":-43,"x_max":431,"o":"m 185 82 q 174 83 178 82 q 142 101 151 89 q 131 119 133 113 q 138 183 121 150 q 181 251 154 215 q 197 276 189 263 q 210 299 204 289 q 214 304 211 300 q 194 296 206 301 q 167 279 182 290 q 114 240 142 264 q 57 189 86 215 q 42 176 50 183 q 28 163 35 169 q -2 152 15 151 q -31 167 -19 153 q -42 197 -43 179 q -28 225 -40 214 q -13 239 -21 232 q 1 251 -6 246 q 89 326 46 292 q 174 378 132 360 q 254 385 215 396 q 288 366 278 379 q 300 343 299 353 q 294 278 313 313 q 249 204 276 244 q 242 195 246 201 q 235 183 239 189 q 289 204 256 192 q 369 235 322 217 q 403 233 388 240 q 424 208 418 225 q 423 177 431 193 q 400 154 415 161 q 319 126 356 139 q 258 104 283 114 q 234 95 244 99 q 215 89 224 92 q 199 84 206 86 q 185 82 192 82 z "},"Ğ":{"ha":542,"x_min":-46,"x_max":585,"o":"m 175 -42 q 161 -41 168 -42 q 146 -39 154 -40 q 118 -15 129 -33 q 113 15 113 -4 q 125 79 113 35 q 165 211 138 124 q 95 185 135 200 q 14 154 56 169 q -17 156 -1 149 q -40 181 -33 164 q -38 212 -46 196 q -14 235 -31 228 q 98 276 46 257 q 183 308 150 296 q 217 321 217 321 q 243 322 231 326 q 269 301 261 318 q 274 279 276 289 q 269 258 272 269 q 265 247 267 253 q 261 232 264 240 q 241 174 251 208 q 219 106 231 140 q 208 72 213 86 q 201 47 204 58 q 278 79 228 53 q 370 134 321 103 q 471 200 419 165 q 494 214 482 207 q 515 229 506 221 q 548 235 531 239 q 575 217 565 232 q 581 186 585 203 q 563 160 578 169 q 540 144 551 151 q 515 128 528 136 q 413 61 463 93 q 318 6 363 29 q 175 -42 228 -42 z "},"Ģ":{"ha":542,"x_min":-46,"x_max":585,"o":"m 175 -42 q 161 -41 168 -42 q 146 -39 154 -40 q 118 -15 129 -33 q 113 15 113 -4 q 125 79 113 35 q 165 211 138 124 q 95 185 135 200 q 14 154 56 169 q -17 156 -1 149 q -40 181 -33 164 q -38 212 -46 196 q -14 235 -31 228 q 98 276 46 257 q 183 308 150 296 q 217 321 217 321 q 243 322 231 326 q 269 301 261 318 q 274 279 276 289 q 269 258 272 269 q 265 247 267 253 q 261 232 264 240 q 241 174 251 208 q 219 106 231 140 q 208 72 213 86 q 201 47 204 58 q 278 79 228 53 q 370 134 321 103 q 471 200 419 165 q 494 214 482 207 q 515 229 506 221 q 548 235 531 239 q 575 217 565 232 q 581 186 585 203 q 563 160 578 169 q 540 144 551 151 q 515 128 528 136 q 413 61 463 93 q 318 6 363 29 q 175 -42 228 -42 z "},"H":{"ha":382,"x_min":-43,"x_max":431,"o":"m 185 82 q 174 83 178 82 q 142 101 151 89 q 131 119 133 113 q 138 183 121 150 q 181 251 154 215 q 197 276 189 263 q 210 299 204 289 q 214 304 211 300 q 194 296 206 301 q 167 279 182 290 q 114 240 142 264 q 57 189 86 215 q 42 176 50 183 q 28 163 35 169 q -2 152 15 151 q -31 167 -19 153 q -42 197 -43 179 q -28 225 -40 214 q -13 239 -21 232 q 1 251 -6 246 q 89 326 46 292 q 174 378 132 360 q 254 385 215 396 q 288 366 278 379 q 300 343 299 353 q 294 278 313 313 q 249 204 276 244 q 242 195 246 201 q 235 183 239 189 q 289 204 256 192 q 369 235 322 217 q 403 233 388 240 q 424 208 418 225 q 423 177 431 193 q 400 154 415 161 q 319 126 356 139 q 258 104 283 114 q 234 95 244 99 q 215 89 224 92 q 199 84 206 86 q 185 82 192 82 z "},"I":{"ha":382,"x_min":-43,"x_max":431,"o":"m 185 82 q 174 83 178 82 q 142 101 151 89 q 131 119 133 113 q 138 183 121 150 q 181 251 154 215 q 197 276 189 263 q 210 299 204 289 q 214 304 211 300 q 194 296 206 301 q 167 279 182 290 q 114 240 142 264 q 57 189 86 215 q 42 176 50 183 q 28 163 35 169 q -2 152 15 151 q -31 167 -19 153 q -42 197 -43 179 q -28 225 -40 214 q -13 239 -21 232 q 1 251 -6 246 q 89 326 46 292 q 174 378 132 360 q 254 385 215 396 q 288 366 278 379 q 300 343 299 353 q 294 278 313 313 q 249 204 276 244 q 242 195 246 201 q 235 183 239 189 q 289 204 256 192 q 369 235 322 217 q 403 233 388 240 q 424 208 418 225 q 423 177 431 193 q 400 154 415 161 q 319 126 356 139 q 258 104 283 114 q 234 95 244 99 q 215 89 224 92 q 199 84 206 86 q 185 82 192 82 z "},"Ì":{"ha":540,"x_min":-46,"x_max":586,"o":"m 317 40 q 289 50 300 40 q 276 96 267 68 q 287 129 276 97 q 311 201 297 161 q 324 242 318 225 q 333 274 329 260 q 242 240 296 260 q 128 197 188 219 q 14 154 69 175 q -17 156 -1 149 q -40 181 -33 164 q -38 212 -46 196 q -14 235 -31 228 q 115 281 49 257 q 239 327 182 306 q 332 363 296 349 q 368 376 368 376 q 382 378 375 378 q 394 376 389 379 q 422 354 414 374 q 428 326 429 343 q 421 276 428 308 q 410 237 417 258 q 394 188 404 215 q 392 178 393 182 q 389 168 390 174 q 525 232 444 199 q 556 233 540 239 q 578 211 572 226 q 579 179 586 196 q 557 156 572 163 q 445 103 494 128 q 367 63 396 78 q 338 47 338 47 q 317 40 329 40 z "},"Í":{"ha":540,"x_min":-46,"x_max":586,"o":"m 317 40 q 289 50 300 40 q 276 96 267 68 q 287 129 276 97 q 311 201 297 161 q 324 242 318 225 q 333 274 329 260 q 242 240 296 260 q 128 197 188 219 q 14 154 69 175 q -17 156 -1 149 q -40 181 -33 164 q -38 212 -46 196 q -14 235 -31 228 q 115 281 49 257 q 239 327 182 306 q 332 363 296 349 q 368 376 368 376 q 382 378 375 378 q 394 376 389 379 q 422 354 414 374 q 428 326 429 343 q 421 276 428 308 q 410 237 417 258 q 394 188 404 215 q 392 178 393 182 q 389 168 390 174 q 525 232 444 199 q 556 233 540 239 q 578 211 572 226 q 579 179 586 196 q 557 156 572 163 q 445 103 494 128 q 367 63 396 78 q 338 47 338 47 q 317 40 329 40 z "},"Î":{"ha":540,"x_min":-46,"x_max":586,"o":"m 317 40 q 289 50 300 40 q 276 96 267 68 q 287 129 276 97 q 311 201 297 161 q 324 242 318 225 q 333 274 329 260 q 242 240 296 260 q 128 197 188 219 q 14 154 69 175 q -17 156 -1 149 q -40 181 -33 164 q -38 212 -46 196 q -14 235 -31 228 q 115 281 49 257 q 239 327 182 306 q 332 363 296 349 q 368 376 368 376 q 382 378 375 378 q 394 376 389 379 q 422 354 414 374 q 428 326 429 343 q 421 276 428 308 q 410 237 417 258 q 394 188 404 215 q 392 178 393 182 q 389 168 390 174 q 525 232 444 199 q 556 233 540 239 q 578 211 572 226 q 579 179 586 196 q 557 156 572 163 q 445 103 494 128 q 367 63 396 78 q 338 47 338 47 q 317 40 329 40 z "},"Ï":{"ha":540,"x_min":-46,"x_max":586,"o":"m 317 40 q 289 50 300 40 q 276 96 267 68 q 287 129 276 97 q 311 201 297 161 q 324 242 318 225 q 333 274 329 260 q 242 240 296 260 q 128 197 188 219 q 14 154 69 175 q -17 156 -1 149 q -40 181 -33 164 q -38 212 -46 196 q -14 235 -31 228 q 115 281 49 257 q 239 327 182 306 q 332 363 296 349 q 368 376 368 376 q 382 378 375 378 q 394 376 389 379 q 422 354 414 374 q 428 326 429 343 q 421 276 428 308 q 410 237 417 258 q 394 188 404 215 q 392 178 393 182 q 389 168 390 174 q 525 232 444 199 q 556 233 540 239 q 578 211 572 226 q 579 179 586 196 q 557 156 572 163 q 445 103 494 128 q 367 63 396 78 q 338 47 338 47 q 317 40 329 40 z "},"Ī":{"ha":542,"x_min":-46,"x_max":585,"o":"m 175 -42 q 161 -41 168 -42 q 146 -39 154 -40 q 118 -15 129 -33 q 113 15 113 -4 q 125 79 113 35 q 165 211 138 124 q 95 185 135 200 q 14 154 56 169 q -17 156 -1 149 q -40 181 -33 164 q -38 212 -46 196 q -14 235 -31 228 q 98 276 46 257 q 183 308 150 296 q 217 321 217 321 q 243 322 231 326 q 269 301 261 318 q 274 279 276 289 q 269 258 272 269 q 265 247 267 253 q 261 232 264 240 q 241 174 251 208 q 219 106 231 140 q 208 72 213 86 q 201 47 204 58 q 278 79 228 53 q 370 134 321 103 q 471 200 419 165 q 494 214 482 207 q 515 229 506 221 q 548 235 531 239 q 575 217 565 232 q 581 186 585 203 q 563 160 578 169 q 540 144 551 151 q 515 128 528 136 q 413 61 463 93 q 318 6 363 29 q 175 -42 228 -42 z "},"Į":{"ha":540,"x_min":-46,"x_max":586,"o":"m 317 40 q 289 50 300 40 q 276 96 267 68 q 287 129 276 97 q 311 201 297 161 q 324 242 318 225 q 333 274 329 260 q 242 240 296 260 q 128 197 188 219 q 14 154 69 175 q -17 156 -1 149 q -40 181 -33 164 q -38 212 -46 196 q -14 235 -31 228 q 115 281 49 257 q 239 327 182 306 q 332 363 296 349 q 368 376 368 376 q 382 378 375 378 q 394 376 389 379 q 422 354 414 374 q 428 326 429 343 q 421 276 428 308 q 410 237 417 258 q 394 188 404 215 q 392 178 393 182 q 389 168 390 174 q 525 232 444 199 q 556 233 540 239 q 578 211 572 226 q 579 179 586 196 q 557 156 572 163 q 445 103 494 128 q 367 63 396 78 q 338 47 338 47 q 317 40 329 40 z "},"İ":{"ha":818,"x_min":-46,"x_max":860,"o":"m 488 54 q 469 57 478 54 q 432 89 443 63 q 437 142 424 113 q 472 207 450 171 q 488 233 481 219 q 501 257 496 246 q 506 265 504 261 q 508 271 507 268 q 412 274 467 278 q 289 253 357 271 q 160 213 229 238 q 15 156 92 189 q -15 156 0 150 q -37 176 -31 161 q -39 209 -46 192 q -17 232 -32 226 q 133 292 61 267 q 268 333 204 318 q 547 347 439 376 q 592 308 579 339 q 586 240 604 278 q 543 163 568 203 q 539 156 542 160 q 533 146 536 151 q 628 174 565 153 q 800 235 690 194 q 831 233 815 240 q 853 208 847 225 q 853 177 860 193 q 828 154 846 161 q 711 114 764 132 q 617 83 658 96 q 532 60 561 67 q 488 54 503 54 z "},"J":{"ha":382,"x_min":-43,"x_max":431,"o":"m 185 82 q 174 83 178 82 q 142 101 151 89 q 131 119 133 113 q 138 183 121 150 q 181 251 154 215 q 197 276 189 263 q 210 299 204 289 q 214 304 211 300 q 194 296 206 301 q 167 279 182 290 q 114 240 142 264 q 57 189 86 215 q 42 176 50 183 q 28 163 35 169 q -2 152 15 151 q -31 167 -19 153 q -42 197 -43 179 q -28 225 -40 214 q -13 239 -21 232 q 1 251 -6 246 q 89 326 46 292 q 174 378 132 360 q 254 385 215 396 q 288 366 278 379 q 300 343 299 353 q 294 278 313 313 q 249 204 276 244 q 242 195 246 201 q 235 183 239 189 q 289 204 256 192 q 369 235 322 217 q 403 233 388 240 q 424 208 418 225 q 423 177 431 193 q 400 154 415 161 q 319 126 356 139 q 258 104 283 114 q 234 95 244 99 q 215 89 224 92 q 199 84 206 86 q 185 82 192 82 z "},"K":{"ha":540,"x_min":-46,"x_max":586,"o":"m 317 40 q 289 50 300 40 q 276 96 267 68 q 287 129 276 97 q 311 201 297 161 q 324 242 318 225 q 333 274 329 260 q 242 240 296 260 q 128 197 188 219 q 14 154 69 175 q -17 156 -1 149 q -40 181 -33 164 q -38 212 -46 196 q -14 235 -31 228 q 115 281 49 257 q 239 327 182 306 q 332 363 296 349 q 368 376 368 376 q 382 378 375 378 q 394 376 389 379 q 422 354 414 374 q 428 326 429 343 q 421 276 428 308 q 410 237 417 258 q 394 188 404 215 q 392 178 393 182 q 389 168 390 174 q 525 232 444 199 q 556 233 540 239 q 578 211 572 226 q 579 179 586 196 q 557 156 572 163 q 445 103 494 128 q 367 63 396 78 q 338 47 338 47 q 317 40 329 40 z "},"Ķ":{"ha":739,"x_min":-43,"x_max":781,"o":"m 111 -39 q 92 -37 101 -39 q 72 -33 82 -35 q 38 -4 47 -26 q 38 63 25 24 q 82 165 51 103 q 94 190 88 176 q 106 217 100 204 q 67 194 88 210 q 26 161 47 178 q -5 153 13 151 q -33 168 -22 156 q -41 199 -43 182 q -26 228 -39 215 q 15 258 -7 242 q 58 286 36 275 q 163 301 115 315 q 196 274 185 297 q 195 218 207 251 q 156 128 183 185 q 141 94 149 111 q 126 63 133 78 q 123 53 125 57 q 119 44 121 49 q 205 74 149 49 q 357 176 261 100 q 450 255 408 217 q 517 318 492 293 q 542 343 542 343 q 582 356 558 363 q 600 347 593 354 q 611 332 607 339 q 613 287 621 313 q 582 204 606 261 q 566 168 574 186 q 551 135 558 150 q 549 126 550 129 q 547 119 549 122 q 603 142 574 124 q 662 185 633 161 q 710 225 690 208 q 740 236 724 238 q 769 222 757 235 q 780 192 781 208 q 765 163 779 175 q 677 92 722 125 q 587 42 632 58 q 496 38 542 26 q 464 65 474 47 q 459 108 456 85 q 475 167 463 132 q 444 140 460 153 q 410 113 428 128 q 111 -39 218 -39 z "},"L":{"ha":540,"x_min":-46,"x_max":586,"o":"m 317 40 q 289 50 300 40 q 276 96 267 68 q 287 129 276 97 q 311 201 297 161 q 324 242 318 225 q 333 274 329 260 q 242 240 296 260 q 128 197 188 219 q 14 154 69 175 q -17 156 -1 149 q -40 181 -33 164 q -38 212 -46 196 q -14 235 -31 228 q 115 281 49 257 q 239 327 182 306 q 332 363 296 349 q 368 376 368 376 q 382 378 375 378 q 394 376 389 379 q 422 354 414 374 q 428 326 429 343 q 421 276 428 308 q 410 237 417 258 q 394 188 404 215 q 392 178 393 182 q 389 168 390 174 q 525 232 444 199 q 556 233 540 239 q 578 211 572 226 q 579 179 586 196 q 557 156 572 163 q 445 103 494 128 q 367 63 396 78 q 338 47 338 47 q 317 40 329 40 z "},"Ĺ":{"ha":739,"x_min":-43,"x_max":781,"o":"m 111 -39 q 92 -37 101 -39 q 72 -33 82 -35 q 38 -4 47 -26 q 38 63 25 24 q 82 165 51 103 q 94 190 88 176 q 106 217 100 204 q 67 194 88 210 q 26 161 47 178 q -5 153 13 151 q -33 168 -22 156 q -41 199 -43 182 q -26 228 -39 215 q 15 258 -7 242 q 58 286 36 275 q 163 301 115 315 q 196 274 185 297 q 195 218 207 251 q 156 128 183 185 q 141 94 149 111 q 126 63 133 78 q 123 53 125 57 q 119 44 121 49 q 205 74 149 49 q 357 176 261 100 q 450 255 408 217 q 517 318 492 293 q 542 343 542 343 q 582 356 558 363 q 600 347 593 354 q 611 332 607 339 q 613 287 621 313 q 582 204 606 261 q 566 168 574 186 q 551 135 558 150 q 549 126 550 129 q 547 119 549 122 q 603 142 574 124 q 662 185 633 161 q 710 225 690 208 q 740 236 724 238 q 769 222 757 235 q 780 192 781 208 q 765 163 779 175 q 677 92 722 125 q 587 42 632 58 q 496 38 542 26 q 464 65 474 47 q 459 108 456 85 q 475 167 463 132 q 444 140 460 153 q 410 113 428 128 q 111 -39 218 -39 z "},"Ļ":{"ha":739,"x_min":-43,"x_max":781,"o":"m 111 -39 q 92 -37 101 -39 q 72 -33 82 -35 q 38 -4 47 -26 q 38 63 25 24 q 82 165 51 103 q 94 190 88 176 q 106 217 100 204 q 67 194 88 210 q 26 161 47 178 q -5 153 13 151 q -33 168 -22 156 q -41 199 -43 182 q -26 228 -39 215 q 15 258 -7 242 q 58 286 36 275 q 163 301 115 315 q 196 274 185 297 q 195 218 207 251 q 156 128 183 185 q 141 94 149 111 q 126 63 133 78 q 123 53 125 57 q 119 44 121 49 q 205 74 149 49 q 357 176 261 100 q 450 255 408 217 q 517 318 492 293 q 542 343 542 343 q 582 356 558 363 q 600 347 593 354 q 611 332 607 339 q 613 287 621 313 q 582 204 606 261 q 566 168 574 186 q 551 135 558 150 q 549 126 550 129 q 547 119 549 122 q 603 142 574 124 q 662 185 633 161 q 710 225 690 208 q 740 236 724 238 q 769 222 757 235 q 780 192 781 208 q 765 163 779 175 q 677 92 722 125 q 587 42 632 58 q 496 38 542 26 q 464 65 474 47 q 459 108 456 85 q 475 167 463 132 q 444 140 460 153 q 410 113 428 128 q 111 -39 218 -39 z "},"Ľ":{"ha":739,"x_min":-43,"x_max":781,"o":"m 111 -39 q 92 -37 101 -39 q 72 -33 82 -35 q 38 -4 47 -26 q 38 63 25 24 q 82 165 51 103 q 94 190 88 176 q 106 217 100 204 q 67 194 88 210 q 26 161 47 178 q -5 153 13 151 q -33 168 -22 156 q -41 199 -43 182 q -26 228 -39 215 q 15 258 -7 242 q 58 286 36 275 q 163 301 115 315 q 196 274 185 297 q 195 218 207 251 q 156 128 183 185 q 141 94 149 111 q 126 63 133 78 q 123 53 125 57 q 119 44 121 49 q 205 74 149 49 q 357 176 261 100 q 450 255 408 217 q 517 318 492 293 q 542 343 542 343 q 582 356 558 363 q 600 347 593 354 q 611 332 607 339 q 613 287 621 313 q 582 204 606 261 q 566 168 574 186 q 551 135 558 150 q 549 126 550 129 q 547 119 549 122 q 603 142 574 124 q 662 185 633 161 q 710 225 690 208 q 740 236 724 238 q 769 222 757 235 q 780 192 781 208 q 765 163 779 175 q 677 92 722 125 q 587 42 632 58 q 496 38 542 26 q 464 65 474 47 q 459 108 456 85 q 475 167 463 132 q 444 140 460 153 q 410 113 428 128 q 111 -39 218 -39 z "},"M":{"ha":540,"x_min":-46,"x_max":586,"o":"m 317 40 q 289 50 300 40 q 276 96 267 68 q 287 129 276 97 q 311 201 297 161 q 324 242 318 225 q 333 274 329 260 q 242 240 296 260 q 128 197 188 219 q 14 154 69 175 q -17 156 -1 149 q -40 181 -33 164 q -38 212 -46 196 q -14 235 -31 228 q 115 281 49 257 q 239 327 182 306 q 332 363 296 349 q 368 376 368 376 q 382 378 375 378 q 394 376 389 379 q 422 354 414 374 q 428 326 429 343 q 421 276 428 308 q 410 237 417 258 q 394 188 404 215 q 392 178 393 182 q 389 168 390 174 q 525 232 444 199 q 556 233 540 239 q 578 211 572 226 q 579 179 586 196 q 557 156 572 163 q 445 103 494 128 q 367 63 396 78 q 338 47 338 47 q 317 40 329 40 z "},"N":{"ha":540,"x_min":-46,"x_max":586,"o":"m 317 40 q 289 50 300 40 q 276 96 267 68 q 287 129 276 97 q 311 201 297 161 q 324 242 318 225 q 333 274 329 260 q 242 240 296 260 q 128 197 188 219 q 14 154 69 175 q -17 156 -1 149 q -40 181 -33 164 q -38 212 -46 196 q -14 235 -31 228 q 115 281 49 257 q 239 327 182 306 q 332 363 296 349 q 368 376 368 376 q 382 378 375 378 q 394 376 389 379 q 422 354 414 374 q 428 326 429 343 q 421 276 428 308 q 410 237 417 258 q 394 188 404 215 q 392 178 393 182 q 389 168 390 174 q 525 232 444 199 q 556 233 540 239 q 578 211 572 226 q 579 179 586 196 q 557 156 572 163 q 445 103 494 128 q 367 63 396 78 q 338 47 338 47 q 317 40 329 40 z "},"Ñ":{"ha":818,"x_min":-46,"x_max":860,"o":"m 488 54 q 469 57 478 54 q 432 89 443 63 q 437 142 424 113 q 472 207 450 171 q 488 233 481 219 q 501 257 496 246 q 506 265 504 261 q 508 271 507 268 q 412 274 467 278 q 289 253 357 271 q 160 213 229 238 q 15 156 92 189 q -15 156 0 150 q -37 176 -31 161 q -39 209 -46 192 q -17 232 -32 226 q 133 292 61 267 q 268 333 204 318 q 547 347 439 376 q 592 308 579 339 q 586 240 604 278 q 543 163 568 203 q 539 156 542 160 q 533 146 536 151 q 628 174 565 153 q 800 235 690 194 q 831 233 815 240 q 853 208 847 225 q 853 177 860 193 q 828 154 846 161 q 711 114 764 132 q 617 83 658 96 q 532 60 561 67 q 488 54 503 54 z "},"Ń":{"ha":382,"x_min":-43,"x_max":431,"o":"m 185 82 q 174 83 178 82 q 142 101 151 89 q 131 119 133 113 q 138 183 121 150 q 181 251 154 215 q 197 276 189 263 q 210 299 204 289 q 214 304 211 300 q 194 296 206 301 q 167 279 182 290 q 114 240 142 264 q 57 189 86 215 q 42 176 50 183 q 28 163 35 169 q -2 152 15 151 q -31 167 -19 153 q -42 197 -43 179 q -28 225 -40 214 q -13 239 -21 232 q 1 251 -6 246 q 89 326 46 292 q 174 378 132 360 q 254 385 215 396 q 288 366 278 379 q 300 343 299 353 q 294 278 313 313 q 249 204 276 244 q 242 195 246 201 q 235 183 239 189 q 289 204 256 192 q 369 235 322 217 q 403 233 388 240 q 424 208 418 225 q 423 177 431 193 q 400 154 415 161 q 319 126 356 139 q 258 104 283 114 q 234 95 244 99 q 215 89 224 92 q 199 84 206 86 q 185 82 192 82 z "},"Ņ":{"ha":540,"x_min":-46,"x_max":586,"o":"m 317 40 q 289 50 300 40 q 276 96 267 68 q 287 129 276 97 q 311 201 297 161 q 324 242 318 225 q 333 274 329 260 q 242 240 296 260 q 128 197 188 219 q 14 154 69 175 q -17 156 -1 149 q -40 181 -33 164 q -38 212 -46 196 q -14 235 -31 228 q 115 281 49 257 q 239 327 182 306 q 332 363 296 349 q 368 376 368 376 q 382 378 375 378 q 394 376 389 379 q 422 354 414 374 q 428 326 429 343 q 421 276 428 308 q 410 237 417 258 q 394 188 404 215 q 392 178 393 182 q 389 168 390 174 q 525 232 444 199 q 556 233 540 239 q 578 211 572 226 q 579 179 586 196 q 557 156 572 163 q 445 103 494 128 q 367 63 396 78 q 338 47 338 47 q 317 40 329 40 z "},"Ň":{"ha":540,"x_min":-46,"x_max":586,"o":"m 317 40 q 289 50 300 40 q 276 96 267 68 q 287 129 276 97 q 311 201 297 161 q 324 242 318 225 q 333 274 329 260 q 242 240 296 260 q 128 197 188 219 q 14 154 69 175 q -17 156 -1 149 q -40 181 -33 164 q -38 212 -46 196 q -14 235 -31 228 q 115 281 49 257 q 239 327 182 306 q 332 363 296 349 q 368 376 368 376 q 382 378 375 378 q 394 376 389 379 q 422 354 414 374 q 428 326 429 343 q 421 276 428 308 q 410 237 417 258 q 394 188 404 215 q 392 178 393 182 q 389 168 390 174 q 525 232 444 199 q 556 233 540 239 q 578 211 572 226 q 579 179 586 196 q 557 156 572 163 q 445 103 494 128 q 367 63 396 78 q 338 47 338 47 q 317 40 329 40 z "},"O":{"ha":540,"x_min":-46,"x_max":586,"o":"m 317 40 q 289 50 300 40 q 276 96 267 68 q 287 129 276 97 q 311 201 297 161 q 324 242 318 225 q 333 274 329 260 q 242 240 296 260 q 128 197 188 219 q 14 154 69 175 q -17 156 -1 149 q -40 181 -33 164 q -38 212 -46 196 q -14 235 -31 228 q 115 281 49 257 q 239 327 182 306 q 332 363 296 349 q 368 376 368 376 q 382 378 375 378 q 394 376 389 379 q 422 354 414 374 q 428 326 429 343 q 421 276 428 308 q 410 237 417 258 q 394 188 404 215 q 392 178 393 182 q 389 168 390 174 q 525 232 444 199 q 556 233 540 239 q 578 211 572 226 q 579 179 586 196 q 557 156 572 163 q 445 103 494 128 q 367 63 396 78 q 338 47 338 47 q 317 40 329 40 z "},"Ò":{"ha":818,"x_min":-46,"x_max":860,"o":"m 488 54 q 469 57 478 54 q 432 89 443 63 q 437 142 424 113 q 472 207 450 171 q 488 233 481 219 q 501 257 496 246 q 506 265 504 261 q 508 271 507 268 q 412 274 467 278 q 289 253 357 271 q 160 213 229 238 q 15 156 92 189 q -15 156 0 150 q -37 176 -31 161 q -39 209 -46 192 q -17 232 -32 226 q 133 292 61 267 q 268 333 204 318 q 547 347 439 376 q 592 308 579 339 q 586 240 604 278 q 543 163 568 203 q 539 156 542 160 q 533 146 536 151 q 628 174 565 153 q 800 235 690 194 q 831 233 815 240 q 853 208 847 225 q 853 177 860 193 q 828 154 846 161 q 711 114 764 132 q 617 83 658 96 q 532 60 561 67 q 488 54 503 54 z "},"Ó":{"ha":818,"x_min":-46,"x_max":860,"o":"m 488 54 q 469 57 478 54 q 432 89 443 63 q 437 142 424 113 q 472 207 450 171 q 488 233 481 219 q 501 257 496 246 q 506 265 504 261 q 508 271 507 268 q 412 274 467 278 q 289 253 357 271 q 160 213 229 238 q 15 156 92 189 q -15 156 0 150 q -37 176 -31 161 q -39 209 -46 192 q -17 232 -32 226 q 133 292 61 267 q 268 333 204 318 q 547 347 439 376 q 592 308 579 339 q 586 240 604 278 q 543 163 568 203 q 539 156 542 160 q 533 146 536 151 q 628 174 565 153 q 800 235 690 194 q 831 233 815 240 q 853 208 847 225 q 853 177 860 193 q 828 154 846 161 q 711 114 764 132 q 617 83 658 96 q 532 60 561 67 q 488 54 503 54 z "},"Ô":{"ha":818,"x_min":-46,"x_max":860,"o":"m 488 54 q 469 57 478 54 q 432 89 443 63 q 437 142 424 113 q 472 207 450 171 q 488 233 481 219 q 501 257 496 246 q 506 265 504 261 q 508 271 507 268 q 412 274 467 278 q 289 253 357 271 q 160 213 229 238 q 15 156 92 189 q -15 156 0 150 q -37 176 -31 161 q -39 209 -46 192 q -17 232 -32 226 q 133 292 61 267 q 268 333 204 318 q 547 347 439 376 q 592 308 579 339 q 586 240 604 278 q 543 163 568 203 q 539 156 542 160 q 533 146 536 151 q 628 174 565 153 q 800 235 690 194 q 831 233 815 240 q 853 208 847 225 q 853 177 860 193 q 828 154 846 161 q 711 114 764 132 q 617 83 658 96 q 532 60 561 67 q 488 54 503 54 z "},"Õ":{"ha":818,"x_min":-46,"x_max":860,"o":"m 488 54 q 469 57 478 54 q 432 89 443 63 q 437 142 424 113 q 472 207 450 171 q 488 233 481 219 q 501 257 496 246 q 506 265 504 261 q 508 271 507 268 q 412 274 467 278 q 289 253 357 271 q 160 213 229 238 q 15 156 92 189 q -15 156 0 150 q -37 176 -31 161 q -39 209 -46 192 q -17 232 -32 226 q 133 292 61 267 q 268 333 204 318 q 547 347 439 376 q 592 308 579 339 q 586 240 604 278 q 543 163 568 203 q 539 156 542 160 q 533 146 536 151 q 628 174 565 153 q 800 235 690 194 q 831 233 815 240 q 853 208 847 225 q 853 177 860 193 q 828 154 846 161 q 711 114 764 132 q 617 83 658 96 q 532 60 561 67 q 488 54 503 54 z "},"Ö":{"ha":542,"x_min":-46,"x_max":585,"o":"m 175 -42 q 161 -41 168 -42 q 146 -39 154 -40 q 118 -15 129 -33 q 113 15 113 -4 q 125 79 113 35 q 165 211 138 124 q 95 185 135 200 q 14 154 56 169 q -17 156 -1 149 q -40 181 -33 164 q -38 212 -46 196 q -14 235 -31 228 q 98 276 46 257 q 183 308 150 296 q 217 321 217 321 q 243 322 231 326 q 269 301 261 318 q 274 279 276 289 q 269 258 272 269 q 265 247 267 253 q 261 232 264 240 q 241 174 251 208 q 219 106 231 140 q 208 72 213 86 q 201 47 204 58 q 278 79 228 53 q 370 134 321 103 q 471 200 419 165 q 494 214 482 207 q 515 229 506 221 q 548 235 531 239 q 575 217 565 232 q 581 186 585 203 q 563 160 578 169 q 540 144 551 151 q 515 128 528 136 q 413 61 463 93 q 318 6 363 29 q 175 -42 228 -42 z "},"Ō":{"ha":540,"x_min":-46,"x_max":586,"o":"m 317 40 q 289 50 300 40 q 276 96 267 68 q 287 129 276 97 q 311 201 297 161 q 324 242 318 225 q 333 274 329 260 q 242 240 296 260 q 128 197 188 219 q 14 154 69 175 q -17 156 -1 149 q -40 181 -33 164 q -38 212 -46 196 q -14 235 -31 228 q 115 281 49 257 q 239 327 182 306 q 332 363 296 349 q 368 376 368 376 q 382 378 375 378 q 394 376 389 379 q 422 354 414 374 q 428 326 429 343 q 421 276 428 308 q 410 237 417 258 q 394 188 404 215 q 392 178 393 182 q 389 168 390 174 q 525 232 444 199 q 556 233 540 239 q 578 211 572 226 q 579 179 586 196 q 557 156 572 163 q 445 103 494 128 q 367 63 396 78 q 338 47 338 47 q 317 40 329 40 z "},"Ő":{"ha":818,"x_min":-46,"x_max":860,"o":"m 488 54 q 469 57 478 54 q 432 89 443 63 q 437 142 424 113 q 472 207 450 171 q 488 233 481 219 q 501 257 496 246 q 506 265 504 261 q 508 271 507 268 q 412 274 467 278 q 289 253 357 271 q 160 213 229 238 q 15 156 92 189 q -15 156 0 150 q -37 176 -31 161 q -39 209 -46 192 q -17 232 -32 226 q 133 292 61 267 q 268 333 204 318 q 547 347 439 376 q 592 308 579 339 q 586 240 604 278 q 543 163 568 203 q 539 156 542 160 q 533 146 536 151 q 628 174 565 153 q 800 235 690 194 q 831 233 815 240 q 853 208 847 225 q 853 177 860 193 q 828 154 846 161 q 711 114 764 132 q 617 83 658 96 q 532 60 561 67 q 488 54 503 54 z "},"P":{"ha":818,"x_min":-46,"x_max":860,"o":"m 488 54 q 469 57 478 54 q 432 89 443 63 q 437 142 424 113 q 472 207 450 171 q 488 233 481 219 q 501 257 496 246 q 506 265 504 261 q 508 271 507 268 q 412 274 467 278 q 289 253 357 271 q 160 213 229 238 q 15 156 92 189 q -15 156 0 150 q -37 176 -31 161 q -39 209 -46 192 q -17 232 -32 226 q 133 292 61 267 q 268 333 204 318 q 547 347 439 376 q 592 308 579 339 q 586 240 604 278 q 543 163 568 203 q 539 156 542 160 q 533 146 536 151 q 628 174 565 153 q 800 235 690 194 q 831 233 815 240 q 853 208 847 225 q 853 177 860 193 q 828 154 846 161 q 711 114 764 132 q 617 83 658 96 q 532 60 561 67 q 488 54 503 54 z "},"Q":{"ha":818,"x_min":-46,"x_max":860,"o":"m 488 54 q 469 57 478 54 q 432 89 443 63 q 437 142 424 113 q 472 207 450 171 q 488 233 481 219 q 501 257 496 246 q 506 265 504 261 q 508 271 507 268 q 412 274 467 278 q 289 253 357 271 q 160 213 229 238 q 15 156 92 189 q -15 156 0 150 q -37 176 -31 161 q -39 209 -46 192 q -17 232 -32 226 q 133 292 61 267 q 268 333 204 318 q 547 347 439 376 q 592 308 579 339 q 586 240 604 278 q 543 163 568 203 q 539 156 542 160 q 533 146 536 151 q 628 174 565 153 q 800 235 690 194 q 831 233 815 240 q 853 208 847 225 q 853 177 860 193 q 828 154 846 161 q 711 114 764 132 q 617 83 658 96 q 532 60 561 67 q 488 54 503 54 z "},"R":{"ha":818,"x_min":-46,"x_max":860,"o":"m 488 54 q 469 57 478 54 q 432 89 443 63 q 437 142 424 113 q 472 207 450 171 q 488 233 481 219 q 501 257 496 246 q 506 265 504 261 q 508 271 507 268 q 412 274 467 278 q 289 253 357 271 q 160 213 229 238 q 15 156 92 189 q -15 156 0 150 q -37 176 -31 161 q -39 209 -46 192 q -17 232 -32 226 q 133 292 61 267 q 268 333 204 318 q 547 347 439 376 q 592 308 579 339 q 586 240 604 278 q 543 163 568 203 q 539 156 542 160 q 533 146 536 151 q 628 174 565 153 q 800 235 690 194 q 831 233 815 240 q 853 208 847 225 q 853 177 860 193 q 828 154 846 161 q 711 114 764 132 q 617 83 658 96 q 532 60 561 67 q 488 54 503 54 z "},"Ŕ":{"ha":542,"x_min":-46,"x_max":585,"o":"m 175 -42 q 161 -41 168 -42 q 146 -39 154 -40 q 118 -15 129 -33 q 113 15 113 -4 q 125 79 113 35 q 165 211 138 124 q 95 185 135 200 q 14 154 56 169 q -17 156 -1 149 q -40 181 -33 164 q -38 212 -46 196 q -14 235 -31 228 q 98 276 46 257 q 183 308 150 296 q 217 321 217 321 q 243 322 231 326 q 269 301 261 318 q 274 279 276 289 q 269 258 272 269 q 265 247 267 253 q 261 232 264 240 q 241 174 251 208 q 219 106 231 140 q 208 72 213 86 q 201 47 204 58 q 278 79 228 53 q 370 134 321 103 q 471 200 419 165 q 494 214 482 207 q 515 229 506 221 q 548 235 531 239 q 575 217 565 232 q 581 186 585 203 q 563 160 578 169 q 540 144 551 151 q 515 128 528 136 q 413 61 463 93 q 318 6 363 29 q 175 -42 228 -42 z "},"Ŗ":{"ha":542,"x_min":-46,"x_max":585,"o":"m 175 -42 q 161 -41 168 -42 q 146 -39 154 -40 q 118 -15 129 -33 q 113 15 113 -4 q 125 79 113 35 q 165 211 138 124 q 95 185 135 200 q 14 154 56 169 q -17 156 -1 149 q -40 181 -33 164 q -38 212 -46 196 q -14 235 -31 228 q 98 276 46 257 q 183 308 150 296 q 217 321 217 321 q 243 322 231 326 q 269 301 261 318 q 274 279 276 289 q 269 258 272 269 q 265 247 267 253 q 261 232 264 240 q 241 174 251 208 q 219 106 231 140 q 208 72 213 86 q 201 47 204 58 q 278 79 228 53 q 370 134 321 103 q 471 200 419 165 q 494 214 482 207 q 515 229 506 221 q 548 235 531 239 q 575 217 565 232 q 581 186 585 203 q 563 160 578 169 q 540 144 551 151 q 515 128 528 136 q 413 61 463 93 q 318 6 363 29 q 175 -42 228 -42 z "},"Ř":{"ha":542,"x_min":-46,"x_max":585,"o":"m 175 -42 q 161 -41 168 -42 q 146 -39 154 -40 q 118 -15 129 -33 q 113 15 113 -4 q 125 79 113 35 q 165 211 138 124 q 95 185 135 200 q 14 154 56 169 q -17 156 -1 149 q -40 181 -33 164 q -38 212 -46 196 q -14 235 -31 228 q 98 276 46 257 q 183 308 150 296 q 217 321 217 321 q 243 322 231 326 q 269 301 261 318 q 274 279 276 289 q 269 258 272 269 q 265 247 267 253 q 261 232 264 240 q 241 174 251 208 q 219 106 231 140 q 208 72 213 86 q 201 47 204 58 q 278 79 228 53 q 370 134 321 103 q 471 200 419 165 q 494 214 482 207 q 515 229 506 221 q 548 235 531 239 q 575 217 565 232 q 581 186 585 203 q 563 160 578 169 q 540 144 551 151 q 515 128 528 136 q 413 61 463 93 q 318 6 363 29 q 175 -42 228 -42 z "},"S":{"ha":818,"x_min":-46,"x_max":860,"o":"m 488 54 q 469 57 478 54 q 432 89 443 63 q 437 142 424 113 q 472 207 450 171 q 488 233 481 219 q 501 257 496 246 q 506 265 504 261 q 508 271 507 268 q 412 274 467 278 q 289 253 357 271 q 160 213 229 238 q 15 156 92 189 q -15 156 0 150 q -37 176 -31 161 q -39 209 -46 192 q -17 232 -32 226 q 133 292 61 267 q 268 333 204 318 q 547 347 439 376 q 592 308 579 339 q 586 240 604 278 q 543 163 568 203 q 539 156 542 160 q 533 146 536 151 q 628 174 565 153 q 800 235 690 194 q 831 233 815 240 q 853 208 847 225 q 853 177 860 193 q 828 154 846 161 q 711 114 764 132 q 617 83 658 96 q 532 60 561 67 q 488 54 503 54 z "},"Ś":{"ha":540,"x_min":-46,"x_max":586,"o":"m 317 40 q 289 50 300 40 q 276 96 267 68 q 287 129 276 97 q 311 201 297 161 q 324 242 318 225 q 333 274 329 260 q 242 240 296 260 q 128 197 188 219 q 14 154 69 175 q -17 156 -1 149 q -40 181 -33 164 q -38 212 -46 196 q -14 235 -31 228 q 115 281 49 257 q 239 327 182 306 q 332 363 296 349 q 368 376 368 376 q 382 378 375 378 q 394 376 389 379 q 422 354 414 374 q 428 326 429 343 q 421 276 428 308 q 410 237 417 258 q 394 188 404 215 q 392 178 393 182 q 389 168 390 174 q 525 232 444 199 q 556 233 540 239 q 578 211 572 226 q 579 179 586 196 q 557 156 572 163 q 445 103 494 128 q 367 63 396 78 q 338 47 338 47 q 317 40 329 40 z "},"Ş":{"ha":818,"x_min":-46,"x_max":860,"o":"m 488 54 q 469 57 478 54 q 432 89 443 63 q 437 142 424 113 q 472 207 450 171 q 488 233 481 219 q 501 257 496 246 q 506 265 504 261 q 508 271 507 268 q 412 274 467 278 q 289 253 357 271 q 160 213 229 238 q 15 156 92 189 q -15 156 0 150 q -37 176 -31 161 q -39 209 -46 192 q -17 232 -32 226 q 133 292 61 267 q 268 333 204 318 q 547 347 439 376 q 592 308 579 339 q 586 240 604 278 q 543 163 568 203 q 539 156 542 160 q 533 146 536 151 q 628 174 565 153 q 800 235 690 194 q 831 233 815 240 q 853 208 847 225 q 853 177 860 193 q 828 154 846 161 q 711 114 764 132 q 617 83 658 96 q 532 60 561 67 q 488 54 503 54 z "},"Š":{"ha":739,"x_min":-43,"x_max":781,"o":"m 111 -39 q 92 -37 101 -39 q 72 -33 82 -35 q 38 -4 47 -26 q 38 63 25 24 q 82 165 51 103 q 94 190 88 176 q 106 217 100 204 q 67 194 88 210 q 26 161 47 178 q -5 153 13 151 q -33 168 -22 156 q -41 199 -43 182 q -26 228 -39 215 q 15 258 -7 242 q 58 286 36 275 q 163 301 115 315 q 196 274 185 297 q 195 218 207 251 q 156 128 183 185 q 141 94 149 111 q 126 63 133 78 q 123 53 125 57 q 119 44 121 49 q 205 74 149 49 q 357 176 261 100 q 450 255 408 217 q 517 318 492 293 q 542 343 542 343 q 582 356 558 363 q 600 347 593 354 q 611 332 607 339 q 613 287 621 313 q 582 204 606 261 q 566 168 574 186 q 551 135 558 150 q 549 126 550 129 q 547 119 549 122 q 603 142 574 124 q 662 185 633 161 q 710 225 690 208 q 740 236 724 238 q 769 222 757 235 q 780 192 781 208 q 765 163 779 175 q 677 92 722 125 q 587 42 632 58 q 496 38 542 26 q 464 65 474 47 q 459 108 456 85 q 475 167 463 132 q 444 140 460 153 q 410 113 428 128 q 111 -39 218 -39 z "},"Ș":{"ha":542,"x_min":-46,"x_max":585,"o":"m 175 -42 q 161 -41 168 -42 q 146 -39 154 -40 q 118 -15 129 -33 q 113 15 113 -4 q 125 79 113 35 q 165 211 138 124 q 95 185 135 200 q 14 154 56 169 q -17 156 -1 149 q -40 181 -33 164 q -38 212 -46 196 q -14 235 -31 228 q 98 276 46 257 q 183 308 150 296 q 217 321 217 321 q 243 322 231 326 q 269 301 261 318 q 274 279 276 289 q 269 258 272 269 q 265 247 267 253 q 261 232 264 240 q 241 174 251 208 q 219 106 231 140 q 208 72 213 86 q 201 47 204 58 q 278 79 228 53 q 370 134 321 103 q 471 200 419 165 q 494 214 482 207 q 515 229 506 221 q 548 235 531 239 q 575 217 565 232 q 581 186 585 203 q 563 160 578 169 q 540 144 551 151 q 515 128 528 136 q 413 61 463 93 q 318 6 363 29 q 175 -42 228 -42 z "},"T":{"ha":818,"x_min":-46,"x_max":860,"o":"m 488 54 q 469 57 478 54 q 432 89 443 63 q 437 142 424 113 q 472 207 450 171 q 488 233 481 219 q 501 257 496 246 q 506 265 504 261 q 508 271 507 268 q 412 274 467 278 q 289 253 357 271 q 160 213 229 238 q 15 156 92 189 q -15 156 0 150 q -37 176 -31 161 q -39 209 -46 192 q -17 232 -32 226 q 133 292 61 267 q 268 333 204 318 q 547 347 439 376 q 592 308 579 339 q 586 240 604 278 q 543 163 568 203 q 539 156 542 160 q 533 146 536 151 q 628 174 565 153 q 800 235 690 194 q 831 233 815 240 q 853 208 847 225 q 853 177 860 193 q 828 154 846 161 q 711 114 764 132 q 617 83 658 96 q 532 60 561 67 q 488 54 503 54 z "},"Ţ":{"ha":739,"x_min":-43,"x_max":781,"o":"m 111 -39 q 92 -37 101 -39 q 72 -33 82 -35 q 38 -4 47 -26 q 38 63 25 24 q 82 165 51 103 q 94 190 88 176 q 106 217 100 204 q 67 194 88 210 q 26 161 47 178 q -5 153 13 151 q -33 168 -22 156 q -41 199 -43 182 q -26 228 -39 215 q 15 258 -7 242 q 58 286 36 275 q 163 301 115 315 q 196 274 185 297 q 195 218 207 251 q 156 128 183 185 q 141 94 149 111 q 126 63 133 78 q 123 53 125 57 q 119 44 121 49 q 205 74 149 49 q 357 176 261 100 q 450 255 408 217 q 517 318 492 293 q 542 343 542 343 q 582 356 558 363 q 600 347 593 354 q 611 332 607 339 q 613 287 621 313 q 582 204 606 261 q 566 168 574 186 q 551 135 558 150 q 549 126 550 129 q 547 119 549 122 q 603 142 574 124 q 662 185 633 161 q 710 225 690 208 q 740 236 724 238 q 769 222 757 235 q 780 192 781 208 q 765 163 779 175 q 677 92 722 125 q 587 42 632 58 q 496 38 542 26 q 464 65 474 47 q 459 108 456 85 q 475 167 463 132 q 444 140 460 153 q 410 113 428 128 q 111 -39 218 -39 z "},"Ť":{"ha":739,"x_min":-43,"x_max":781,"o":"m 111 -39 q 92 -37 101 -39 q 72 -33 82 -35 q 38 -4 47 -26 q 38 63 25 24 q 82 165 51 103 q 94 190 88 176 q 106 217 100 204 q 67 194 88 210 q 26 161 47 178 q -5 153 13 151 q -33 168 -22 156 q -41 199 -43 182 q -26 228 -39 215 q 15 258 -7 242 q 58 286 36 275 q 163 301 115 315 q 196 274 185 297 q 195 218 207 251 q 156 128 183 185 q 141 94 149 111 q 126 63 133 78 q 123 53 125 57 q 119 44 121 49 q 205 74 149 49 q 357 176 261 100 q 450 255 408 217 q 517 318 492 293 q 542 343 542 343 q 582 356 558 363 q 600 347 593 354 q 611 332 607 339 q 613 287 621 313 q 582 204 606 261 q 566 168 574 186 q 551 135 558 150 q 549 126 550 129 q 547 119 549 122 q 603 142 574 124 q 662 185 633 161 q 710 225 690 208 q 740 236 724 238 q 769 222 757 235 q 780 192 781 208 q 765 163 779 175 q 677 92 722 125 q 587 42 632 58 q 496 38 542 26 q 464 65 474 47 q 459 108 456 85 q 475 167 463 132 q 444 140 460 153 q 410 113 428 128 q 111 -39 218 -39 z "},"Ț":{"ha":542,"x_min":-46,"x_max":585,"o":"m 175 -42 q 161 -41 168 -42 q 146 -39 154 -40 q 118 -15 129 -33 q 113 15 113 -4 q 125 79 113 35 q 165 211 138 124 q 95 185 135 200 q 14 154 56 169 q -17 156 -1 149 q -40 181 -33 164 q -38 212 -46 196 q -14 235 -31 228 q 98 276 46 257 q 183 308 150 296 q 217 321 217 321 q 243 322 231 326 q 269 301 261 318 q 274 279 276 289 q 269 258 272 269 q 265 247 267 253 q 261 232 264 240 q 241 174 251 208 q 219 106 231 140 q 208 72 213 86 q 201 47 204 58 q 278 79 228 53 q 370 134 321 103 q 471 200 419 165 q 494 214 482 207 q 515 229 506 221 q 548 235 531 239 q 575 217 565 232 q 581 186 585 203 q 563 160 578 169 q 540 144 551 151 q 515 128 528 136 q 413 61 463 93 q 318 6 363 29 q 175 -42 228 -42 z "},"U":{"ha":542,"x_min":-46,"x_max":585,"o":"m 175 -42 q 161 -41 168 -42 q 146 -39 154 -40 q 118 -15 129 -33 q 113 15 113 -4 q 125 79 113 35 q 165 211 138 124 q 95 185 135 200 q 14 154 56 169 q -17 156 -1 149 q -40 181 -33 164 q -38 212 -46 196 q -14 235 -31 228 q 98 276 46 257 q 183 308 150 296 q 217 321 217 321 q 243 322 231 326 q 269 301 261 318 q 274 279 276 289 q 269 258 272 269 q 265 247 267 253 q 261 232 264 240 q 241 174 251 208 q 219 106 231 140 q 208 72 213 86 q 201 47 204 58 q 278 79 228 53 q 370 134 321 103 q 471 200 419 165 q 494 214 482 207 q 515 229 506 221 q 548 235 531 239 q 575 217 565 232 q 581 186 585 203 q 563 160 578 169 q 540 144 551 151 q 515 128 528 136 q 413 61 463 93 q 318 6 363 29 q 175 -42 228 -42 z "},"Ù":{"ha":542,"x_min":-46,"x_max":585,"o":"m 175 -42 q 161 -41 168 -42 q 146 -39 154 -40 q 118 -15 129 -33 q 113 15 113 -4 q 125 79 113 35 q 165 211 138 124 q 95 185 135 200 q 14 154 56 169 q -17 156 -1 149 q -40 181 -33 164 q -38 212 -46 196 q -14 235 -31 228 q 98 276 46 257 q 183 308 150 296 q 217 321 217 321 q 243 322 231 326 q 269 301 261 318 q 274 279 276 289 q 269 258 272 269 q 265 247 267 253 q 261 232 264 240 q 241 174 251 208 q 219 106 231 140 q 208 72 213 86 q 201 47 204 58 q 278 79 228 53 q 370 134 321 103 q 471 200 419 165 q 494 214 482 207 q 515 229 506 221 q 548 235 531 239 q 575 217 565 232 q 581 186 585 203 q 563 160 578 169 q 540 144 551 151 q 515 128 528 136 q 413 61 463 93 q 318 6 363 29 q 175 -42 228 -42 z "},"Ú":{"ha":542,"x_min":-46,"x_max":585,"o":"m 175 -42 q 161 -41 168 -42 q 146 -39 154 -40 q 118 -15 129 -33 q 113 15 113 -4 q 125 79 113 35 q 165 211 138 124 q 95 185 135 200 q 14 154 56 169 q -17 156 -1 149 q -40 181 -33 164 q -38 212 -46 196 q -14 235 -31 228 q 98 276 46 257 q 183 308 150 296 q 217 321 217 321 q 243 322 231 326 q 269 301 261 318 q 274 279 276 289 q 269 258 272 269 q 265 247 267 253 q 261 232 264 240 q 241 174 251 208 q 219 106 231 140 q 208 72 213 86 q 201 47 204 58 q 278 79 228 53 q 370 134 321 103 q 471 200 419 165 q 494 214 482 207 q 515 229 506 221 q 548 235 531 239 q 575 217 565 232 q 581 186 585 203 q 563 160 578 169 q 540 144 551 151 q 515 128 528 136 q 413 61 463 93 q 318 6 363 29 q 175 -42 228 -42 z "},"Û":{"ha":542,"x_min":-46,"x_max":585,"o":"m 175 -42 q 161 -41 168 -42 q 146 -39 154 -40 q 118 -15 129 -33 q 113 15 113 -4 q 125 79 113 35 q 165 211 138 124 q 95 185 135 200 q 14 154 56 169 q -17 156 -1 149 q -40 181 -33 164 q -38 212 -46 196 q -14 235 -31 228 q 98 276 46 257 q 183 308 150 296 q 217 321 217 321 q 243 322 231 326 q 269 301 261 318 q 274 279 276 289 q 269 258 272 269 q 265 247 267 253 q 261 232 264 240 q 241 174 251 208 q 219 106 231 140 q 208 72 213 86 q 201 47 204 58 q 278 79 228 53 q 370 134 321 103 q 471 200 419 165 q 494 214 482 207 q 515 229 506 221 q 548 235 531 239 q 575 217 565 232 q 581 186 585 203 q 563 160 578 169 q 540 144 551 151 q 515 128 528 136 q 413 61 463 93 q 318 6 363 29 q 175 -42 228 -42 z "},"Ü":{"ha":540,"x_min":-46,"x_max":586,"o":"m 317 40 q 289 50 300 40 q 276 96 267 68 q 287 129 276 97 q 311 201 297 161 q 324 242 318 225 q 333 274 329 260 q 242 240 296 260 q 128 197 188 219 q 14 154 69 175 q -17 156 -1 149 q -40 181 -33 164 q -38 212 -46 196 q -14 235 -31 228 q 115 281 49 257 q 239 327 182 306 q 332 363 296 349 q 368 376 368 376 q 382 378 375 378 q 394 376 389 379 q 422 354 414 374 q 428 326 429 343 q 421 276 428 308 q 410 237 417 258 q 394 188 404 215 q 392 178 393 182 q 389 168 390 174 q 525 232 444 199 q 556 233 540 239 q 578 211 572 226 q 579 179 586 196 q 557 156 572 163 q 445 103 494 128 q 367 63 396 78 q 338 47 338 47 q 317 40 329 40 z "},"Ū":{"ha":739,"x_min":-43,"x_max":781,"o":"m 111 -39 q 92 -37 101 -39 q 72 -33 82 -35 q 38 -4 47 -26 q 38 63 25 24 q 82 165 51 103 q 94 190 88 176 q 106 217 100 204 q 67 194 88 210 q 26 161 47 178 q -5 153 13 151 q -33 168 -22 156 q -41 199 -43 182 q -26 228 -39 215 q 15 258 -7 242 q 58 286 36 275 q 163 301 115 315 q 196 274 185 297 q 195 218 207 251 q 156 128 183 185 q 141 94 149 111 q 126 63 133 78 q 123 53 125 57 q 119 44 121 49 q 205 74 149 49 q 357 176 261 100 q 450 255 408 217 q 517 318 492 293 q 542 343 542 343 q 582 356 558 363 q 600 347 593 354 q 611 332 607 339 q 613 287 621 313 q 582 204 606 261 q 566 168 574 186 q 551 135 558 150 q 549 126 550 129 q 547 119 549 122 q 603 142 574 124 q 662 185 633 161 q 710 225 690 208 q 740 236 724 238 q 769 222 757 235 q 780 192 781 208 q 765 163 779 175 q 677 92 722 125 q 587 42 632 58 q 496 38 542 26 q 464 65 474 47 q 459 108 456 85 q 475 167 463 132 q 444 140 460 153 q 410 113 428 128 q 111 -39 218 -39 z "},"Ů":{"ha":382,"x_min":-43,"x_max":431,"o":"m 185 82 q 174 83 178 82 q 142 101 151 89 q 131 119 133 113 q 138 183 121 150 q 181 251 154 215 q 197 276 189 263 q 210 299 204 289 q 214 304 211 300 q 194 296 206 301 q 167 279 182 290 q 114 240 142 264 q 57 189 86 215 q 42 176 50 183 q 28 163 35 169 q -2 152 15 151 q -31 167 -19 153 q -42 197 -43 179 q -28 225 -40 214 q -13 239 -21 232 q 1 251 -6 246 q 89 326 46 292 q 174 378 132 360 q 254 385 215 396 q 288 366 278 379 q 300 343 299 353 q 294 278 313 313 q 249 204 276 244 q 242 195 246 201 q 235 183 239 189 q 289 204 256 192 q 369 235 322 217 q 403 233 388 240 q 424 208 418 225 q 423 177 431 193 q 400 154 415 161 q 319 126 356 139 q 258 104 283 114 q 234 95 244 99 q 215 89 224 92 q 199 84 206 86 q 185 82 192 82 z "},"Ű":{"ha":382,"x_min":-43,"x_max":431,"o":"m 185 82 q 174 83 178 82 q 142 101 151 89 q 131 119 133 113 q 138 183 121 150 q 181 251 154 215 q 197 276 189 263 q 210 299 204 289 q 214 304 211 300 q 194 296 206 301 q 167 279 182 290 q 114 240 142 264 q 57 189 86 215 q 42 176 50 183 q 28 163 35 169 q -2 152 15 151 q -31 167 -19 153 q -42 197 -43 179 q -28 225 -40 214 q -13 239 -21 232 q 1 251 -6 246 q 89 326 46 292 q 174 378 132 360 q 254 385 215 396 q 288 366 278 379 q 300 343 299 353 q 294 278 313 313 q 249 204 276 244 q 242 195 246 201 q 235 183 239 189 q 289 204 256 192 q 369 235 322 217 q 403 233 388 240 q 424 208 418 225 q 423 177 431 193 q 400 154 415 161 q 319 126 356 139 q 258 104 283 114 q 234 95 244 99 q 215 89 224 92 q 199 84 206 86 q 185 82 192 82 z "},"Ų":{"ha":540,"x_min":-46,"x_max":586,"o":"m 317 40 q 289 50 300 40 q 276 96 267 68 q 287 129 276 97 q 311 201 297 161 q 324 242 318 225 q 333 274 329 260 q 242 240 296 260 q 128 197 188 219 q 14 154 69 175 q -17 156 -1 149 q -40 181 -33 164 q -38 212 -46 196 q -14 235 -31 228 q 115 281 49 257 q 239 327 182 306 q 332 363 296 349 q 368 376 368 376 q 382 378 375 378 q 394 376 389 379 q 422 354 414 374 q 428 326 429 343 q 421 276 428 308 q 410 237 417 258 q 394 188 404 215 q 392 178 393 182 q 389 168 390 174 q 525 232 444 199 q 556 233 540 239 q 578 211 572 226 q 579 179 586 196 q 557 156 572 163 q 445 103 494 128 q 367 63 396 78 q 338 47 338 47 q 317 40 329 40 z "},"V":{"ha":542,"x_min":-46,"x_max":585,"o":"m 175 -42 q 161 -41 168 -42 q 146 -39 154 -40 q 118 -15 129 -33 q 113 15 113 -4 q 125 79 113 35 q 165 211 138 124 q 95 185 135 200 q 14 154 56 169 q -17 156 -1 149 q -40 181 -33 164 q -38 212 -46 196 q -14 235 -31 228 q 98 276 46 257 q 183 308 150 296 q 217 321 217 321 q 243 322 231 326 q 269 301 261 318 q 274 279 276 289 q 269 258 272 269 q 265 247 267 253 q 261 232 264 240 q 241 174 251 208 q 219 106 231 140 q 208 72 213 86 q 201 47 204 58 q 278 79 228 53 q 370 134 321 103 q 471 200 419 165 q 494 214 482 207 q 515 229 506 221 q 548 235 531 239 q 575 217 565 232 q 581 186 585 203 q 563 160 578 169 q 540 144 551 151 q 515 128 528 136 q 413 61 463 93 q 318 6 363 29 q 175 -42 228 -42 z "},"W":{"ha":542,"x_min":-46,"x_max":585,"o":"m 175 -42 q 161 -41 168 -42 q 146 -39 154 -40 q 118 -15 129 -33 q 113 15 113 -4 q 125 79 113 35 q 165 211 138 124 q 95 185 135 200 q 14 154 56 169 q -17 156 -1 149 q -40 181 -33 164 q -38 212 -46 196 q -14 235 -31 228 q 98 276 46 257 q 183 308 150 296 q 217 321 217 321 q 243 322 231 326 q 269 301 261 318 q 274 279 276 289 q 269 258 272 269 q 265 247 267 253 q 261 232 264 240 q 241 174 251 208 q 219 106 231 140 q 208 72 213 86 q 201 47 204 58 q 278 79 228 53 q 370 134 321 103 q 471 200 419 165 q 494 214 482 207 q 515 229 506 221 q 548 235 531 239 q 575 217 565 232 q 581 186 585 203 q 563 160 578 169 q 540 144 551 151 q 515 128 528 136 q 413 61 463 93 q 318 6 363 29 q 175 -42 228 -42 z "},"X":{"ha":542,"x_min":-46,"x_max":585,"o":"m 175 -42 q 161 -41 168 -42 q 146 -39 154 -40 q 118 -15 129 -33 q 113 15 113 -4 q 125 79 113 35 q 165 211 138 124 q 95 185 135 200 q 14 154 56 169 q -17 156 -1 149 q -40 181 -33 164 q -38 212 -46 196 q -14 235 -31 228 q 98 276 46 257 q 183 308 150 296 q 217 321 217 321 q 243 322 231 326 q 269 301 261 318 q 274 279 276 289 q 269 258 272 269 q 265 247 267 253 q 261 232 264 240 q 241 174 251 208 q 219 106 231 140 q 208 72 213 86 q 201 47 204 58 q 278 79 228 53 q 370 134 321 103 q 471 200 419 165 q 494 214 482 207 q 515 229 506 221 q 548 235 531 239 q 575 217 565 232 q 581 186 585 203 q 563 160 578 169 q 540 144 551 151 q 515 128 528 136 q 413 61 463 93 q 318 6 363 29 q 175 -42 228 -42 z "},"Y":{"ha":542,"x_min":-46,"x_max":585,"o":"m 175 -42 q 161 -41 168 -42 q 146 -39 154 -40 q 118 -15 129 -33 q 113 15 113 -4 q 125 79 113 35 q 165 211 138 124 q 95 185 135 200 q 14 154 56 169 q -17 156 -1 149 q -40 181 -33 164 q -38 212 -46 196 q -14 235 -31 228 q 98 276 46 257 q 183 308 150 296 q 217 321 217 321 q 243 322 231 326 q 269 301 261 318 q 274 279 276 289 q 269 258 272 269 q 265 247 267 253 q 261 232 264 240 q 241 174 251 208 q 219 106 231 140 q 208 72 213 86 q 201 47 204 58 q 278 79 228 53 q 370 134 321 103 q 471 200 419 165 q 494 214 482 207 q 515 229 506 221 q 548 235 531 239 q 575 217 565 232 q 581 186 585 203 q 563 160 578 169 q 540 144 551 151 q 515 128 528 136 q 413 61 463 93 q 318 6 363 29 q 175 -42 228 -42 z "},"Ý":{"ha":542,"x_min":-46,"x_max":585,"o":"m 175 -42 q 161 -41 168 -42 q 146 -39 154 -40 q 118 -15 129 -33 q 113 15 113 -4 q 125 79 113 35 q 165 211 138 124 q 95 185 135 200 q 14 154 56 169 q -17 156 -1 149 q -40 181 -33 164 q -38 212 -46 196 q -14 235 -31 228 q 98 276 46 257 q 183 308 150 296 q 217 321 217 321 q 243 322 231 326 q 269 301 261 318 q 274 279 276 289 q 269 258 272 269 q 265 247 267 253 q 261 232 264 240 q 241 174 251 208 q 219 106 231 140 q 208 72 213 86 q 201 47 204 58 q 278 79 228 53 q 370 134 321 103 q 471 200 419 165 q 494 214 482 207 q 515 229 506 221 q 548 235 531 239 q 575 217 565 232 q 581 186 585 203 q 563 160 578 169 q 540 144 551 151 q 515 128 528 136 q 413 61 463 93 q 318 6 363 29 q 175 -42 228 -42 z "},"Ÿ":{"ha":540,"x_min":-46,"x_max":586,"o":"m 317 40 q 289 50 300 40 q 276 96 267 68 q 287 129 276 97 q 311 201 297 161 q 324 242 318 225 q 333 274 329 260 q 242 240 296 260 q 128 197 188 219 q 14 154 69 175 q -17 156 -1 149 q -40 181 -33 164 q -38 212 -46 196 q -14 235 -31 228 q 115 281 49 257 q 239 327 182 306 q 332 363 296 349 q 368 376 368 376 q 382 378 375 378 q 394 376 389 379 q 422 354 414 374 q 428 326 429 343 q 421 276 428 308 q 410 237 417 258 q 394 188 404 215 q 392 178 393 182 q 389 168 390 174 q 525 232 444 199 q 556 233 540 239 q 578 211 572 226 q 579 179 586 196 q 557 156 572 163 q 445 103 494 128 q 367 63 396 78 q 338 47 338 47 q 317 40 329 40 z "},"Z":{"ha":542,"x_min":-46,"x_max":585,"o":"m 175 -42 q 161 -41 168 -42 q 146 -39 154 -40 q 118 -15 129 -33 q 113 15 113 -4 q 125 79 113 35 q 165 211 138 124 q 95 185 135 200 q 14 154 56 169 q -17 156 -1 149 q -40 181 -33 164 q -38 212 -46 196 q -14 235 -31 228 q 98 276 46 257 q 183 308 150 296 q 217 321 217 321 q 243 322 231 326 q 269 301 261 318 q 274 279 276 289 q 269 258 272 269 q 265 247 267 253 q 261 232 264 240 q 241 174 251 208 q 219 106 231 140 q 208 72 213 86 q 201 47 204 58 q 278 79 228 53 q 370 134 321 103 q 471 200 419 165 q 494 214 482 207 q 515 229 506 221 q 548 235 531 239 q 575 217 565 232 q 581 186 585 203 q 563 160 578 169 q 540 144 551 151 q 515 128 528 136 q 413 61 463 93 q 318 6 363 29 q 175 -42 228 -42 z "},"Ź":{"ha":540,"x_min":-46,"x_max":586,"o":"m 317 40 q 289 50 300 40 q 276 96 267 68 q 287 129 276 97 q 311 201 297 161 q 324 242 318 225 q 333 274 329 260 q 242 240 296 260 q 128 197 188 219 q 14 154 69 175 q -17 156 -1 149 q -40 181 -33 164 q -38 212 -46 196 q -14 235 -31 228 q 115 281 49 257 q 239 327 182 306 q 332 363 296 349 q 368 376 368 376 q 382 378 375 378 q 394 376 389 379 q 422 354 414 374 q 428 326 429 343 q 421 276 428 308 q 410 237 417 258 q 394 188 404 215 q 392 178 393 182 q 389 168 390 174 q 525 232 444 199 q 556 233 540 239 q 578 211 572 226 q 579 179 586 196 q 557 156 572 163 q 445 103 494 128 q 367 63 396 78 q 338 47 338 47 q 317 40 329 40 z "},"Ż":{"ha":818,"x_min":-46,"x_max":860,"o":"m 488 54 q 469 57 478 54 q 432 89 443 63 q 437 142 424 113 q 472 207 450 171 q 488 233 481 219 q 501 257 496 246 q 506 265 504 261 q 508 271 507 268 q 412 274 467 278 q 289 253 357 271 q 160 213 229 238 q 15 156 92 189 q -15 156 0 150 q -37 176 -31 161 q -39 209 -46 192 q -17 232 -32 226 q 133 292 61 267 q 268 333 204 318 q 547 347 439 376 q 592 308 579 339 q 586 240 604 278 q 543 163 568 203 q 539 156 542 160 q 533 146 536 151 q 628 174 565 153 q 800 235 690 194 q 831 233 815 240 q 853 208 847 225 q 853 177 860 193 q 828 154 846 161 q 711 114 764 132 q 617 83 658 96 q 532 60 561 67 q 488 54 503 54 z "},"Ž":{"ha":818,"x_min":-46,"x_max":860,"o":"m 488 54 q 469 57 478 54 q 432 89 443 63 q 437 142 424 113 q 472 207 450 171 q 488 233 481 219 q 501 257 496 246 q 506 265 504 261 q 508 271 507 268 q 412 274 467 278 q 289 253 357 271 q 160 213 229 238 q 15 156 92 189 q -15 156 0 150 q -37 176 -31 161 q -39 209 -46 192 q -17 232 -32 226 q 133 292 61 267 q 268 333 204 318 q 547 347 439 376 q 592 308 579 339 q 586 240 604 278 q 543 163 568 203 q 539 156 542 160 q 533 146 536 151 q 628 174 565 153 q 800 235 690 194 q 831 233 815 240 q 853 208 847 225 q 853 177 860 193 q 828 154 846 161 q 711 114 764 132 q 617 83 658 96 q 532 60 561 67 q 488 54 503 54 z "},"Æ":{"ha":739,"x_min":-43,"x_max":781,"o":"m 111 -39 q 92 -37 101 -39 q 72 -33 82 -35 q 38 -4 47 -26 q 38 63 25 24 q 82 165 51 103 q 94 190 88 176 q 106 217 100 204 q 67 194 88 210 q 26 161 47 178 q -5 153 13 151 q -33 168 -22 156 q -41 199 -43 182 q -26 228 -39 215 q 15 258 -7 242 q 58 286 36 275 q 163 301 115 315 q 196 274 185 297 q 195 218 207 251 q 156 128 183 185 q 141 94 149 111 q 126 63 133 78 q 123 53 125 57 q 119 44 121 49 q 205 74 149 49 q 357 176 261 100 q 450 255 408 217 q 517 318 492 293 q 542 343 542 343 q 582 356 558 363 q 600 347 593 354 q 611 332 607 339 q 613 287 621 313 q 582 204 606 261 q 566 168 574 186 q 551 135 558 150 q 549 126 550 129 q 547 119 549 122 q 603 142 574 124 q 662 185 633 161 q 710 225 690 208 q 740 236 724 238 q 769 222 757 235 q 780 192 781 208 q 765 163 779 175 q 677 92 722 125 q 587 42 632 58 q 496 38 542 26 q 464 65 474 47 q 459 108 456 85 q 475 167 463 132 q 444 140 460 153 q 410 113 428 128 q 111 -39 218 -39 z "},"Ð":{"ha":540,"x_min":-46,"x_max":586,"o":"m 317 40 q 289 50 300 40 q 276 96 267 68 q 287 129 276 97 q 311 201 297 161 q 324 242 318 225 q 333 274 329 260 q 242 240 296 260 q 128 197 188 219 q 14 154 69 175 q -17 156 -1 149 q -40 181 -33 164 q -38 212 -46 196 q -14 235 -31 228 q 115 281 49 257 q 239 327 182 306 q 332 363 296 349 q 368 376 368 376 q 382 378 375 378 q 394 376 389 379 q 422 354 414 374 q 428 326 429 343 q 421 276 428 308 q 410 237 417 258 q 394 188 404 215 q 392 178 393 182 q 389 168 390 174 q 525 232 444 199 q 556 233 540 239 q 578 211 572 226 q 579 179 586 196 q 557 156 572 163 q 445 103 494 128 q 367 63 396 78 q 338 47 338 47 q 317 40 329 40 z "},"Ø":{"ha":542,"x_min":-46,"x_max":585,"o":"m 175 -42 q 161 -41 168 -42 q 146 -39 154 -40 q 118 -15 129 -33 q 113 15 113 -4 q 125 79 113 35 q 165 211 138 124 q 95 185 135 200 q 14 154 56 169 q -17 156 -1 149 q -40 181 -33 164 q -38 212 -46 196 q -14 235 -31 228 q 98 276 46 257 q 183 308 150 296 q 217 321 217 321 q 243 322 231 326 q 269 301 261 318 q 274 279 276 289 q 269 258 272 269 q 265 247 267 253 q 261 232 264 240 q 241 174 251 208 q 219 106 231 140 q 208 72 213 86 q 201 47 204 58 q 278 79 228 53 q 370 134 321 103 q 471 200 419 165 q 494 214 482 207 q 515 229 506 221 q 548 235 531 239 q 575 217 565 232 q 581 186 585 203 q 563 160 578 169 q 540 144 551 151 q 515 128 528 136 q 413 61 463 93 q 318 6 363 29 q 175 -42 228 -42 z "},"Þ":{"ha":818,"x_min":-46,"x_max":860,"o":"m 488 54 q 469 57 478 54 q 432 89 443 63 q 437 142 424 113 q 472 207 450 171 q 488 233 481 219 q 501 257 496 246 q 506 265 504 261 q 508 271 507 268 q 412 274 467 278 q 289 253 357 271 q 160 213 229 238 q 15 156 92 189 q -15 156 0 150 q -37 176 -31 161 q -39 209 -46 192 q -17 232 -32 226 q 133 292 61 267 q 268 333 204 318 q 547 347 439 376 q 592 308 579 339 q 586 240 604 278 q 543 163 568 203 q 539 156 542 160 q 533 146 536 151 q 628 174 565 153 q 800 235 690 194 q 831 233 815 240 q 853 208 847 225 q 853 177 860 193 q 828 154 846 161 q 711 114 764 132 q 617 83 658 96 q 532 60 561 67 q 488 54 503 54 z "},"Đ":{"ha":540,"x_min":-46,"x_max":586,"o":"m 317 40 q 289 50 300 40 q 276 96 267 68 q 287 129 276 97 q 311 201 297 161 q 324 242 318 225 q 333 274 329 260 q 242 240 296 260 q 128 197 188 219 q 14 154 69 175 q -17 156 -1 149 q -40 181 -33 164 q -38 212 -46 196 q -14 235 -31 228 q 115 281 49 257 q 239 327 182 306 q 332 363 296 349 q 368 376 368 376 q 382 378 375 378 q 394 376 389 379 q 422 354 414 374 q 428 326 429 343 q 421 276 428 308 q 410 237 417 258 q 394 188 404 215 q 392 178 393 182 q 389 168 390 174 q 525 232 444 199 q 556 233 540 239 q 578 211 572 226 q 579 179 586 196 q 557 156 572 163 q 445 103 494 128 q 367 63 396 78 q 338 47 338 47 q 317 40 329 40 z "},"Ł":{"ha":382,"x_min":-43,"x_max":431,"o":"m 185 82 q 174 83 178 82 q 142 101 151 89 q 131 119 133 113 q 138 183 121 150 q 181 251 154 215 q 197 276 189 263 q 210 299 204 289 q 214 304 211 300 q 194 296 206 301 q 167 279 182 290 q 114 240 142 264 q 57 189 86 215 q 42 176 50 183 q 28 163 35 169 q -2 152 15 151 q -31 167 -19 153 q -42 197 -43 179 q -28 225 -40 214 q -13 239 -21 232 q 1 251 -6 246 q 89 326 46 292 q 174 378 132 360 q 254 385 215 396 q 288 366 278 379 q 300 343 299 353 q 294 278 313 313 q 249 204 276 244 q 242 195 246 201 q 235 183 239 189 q 289 204 256 192 q 369 235 322 217 q 403 233 388 240 q 424 208 418 225 q 423 177 431 193 q 400 154 415 161 q 319 126 356 139 q 258 104 283 114 q 234 95 244 99 q 215 89 224 92 q 199 84 206 86 q 185 82 192 82 z "},"Œ":{"ha":818,"x_min":-46,"x_max":860,"o":"m 488 54 q 469 57 478 54 q 432 89 443 63 q 437 142 424 113 q 472 207 450 171 q 488 233 481 219 q 501 257 496 246 q 506 265 504 261 q 508 271 507 268 q 412 274 467 278 q 289 253 357 271 q 160 213 229 238 q 15 156 92 189 q -15 156 0 150 q -37 176 -31 161 q -39 209 -46 192 q -17 232 -32 226 q 133 292 61 267 q 268 333 204 318 q 547 347 439 376 q 592 308 579 339 q 586 240 604 278 q 543 163 568 203 q 539 156 542 160 q 533 146 536 151 q 628 174 565 153 q 800 235 690 194 q 831 233 815 240 q 853 208 847 225 q 853 177 860 193 q 828 154 846 161 q 711 114 764 132 q 617 83 658 96 q 532 60 561 67 q 488 54 503 54 z "},"Ω":{"ha":542,"x_min":-46,"x_max":585,"o":"m 175 -42 q 161 -41 168 -42 q 146 -39 154 -40 q 118 -15 129 -33 q 113 15 113 -4 q 125 79 113 35 q 165 211 138 124 q 95 185 135 200 q 14 154 56 169 q -17 156 -1 149 q -40 181 -33 164 q -38 212 -46 196 q -14 235 -31 228 q 98 276 46 257 q 183 308 150 296 q 217 321 217 321 q 243 322 231 326 q 269 301 261 318 q 274 279 276 289 q 269 258 272 269 q 265 247 267 253 q 261 232 264 240 q 241 174 251 208 q 219 106 231 140 q 208 72 213 86 q 201 47 204 58 q 278 79 228 53 q 370 134 321 103 q 471 200 419 165 q 494 214 482 207 q 515 229 506 221 q 548 235 531 239 q 575 217 565 232 q 581 186 585 203 q 563 160 578 169 q 540 144 551 151 q 515 128 528 136 q 413 61 463 93 q 318 6 363 29 q 175 -42 228 -42 z "},"µ":{"ha":818,"x_min":-46,"x_max":860,"o":"m 488 54 q 469 57 478 54 q 432 89 443 63 q 437 142 424 113 q 472 207 450 171 q 488 233 481 219 q 501 257 496 246 q 506 265 504 261 q 508 271 507 268 q 412 274 467 278 q 289 253 357 271 q 160 213 229 238 q 15 156 92 189 q -15 156 0 150 q -37 176 -31 161 q -39 209 -46 192 q -17 232 -32 226 q 133 292 61 267 q 268 333 204 318 q 547 347 439 376 q 592 308 579 339 q 586 240 604 278 q 543 163 568 203 q 539 156 542 160 q 533 146 536 151 q 628 174 565 153 q 800 235 690 194 q 831 233 815 240 q 853 208 847 225 q 853 177 860 193 q 828 154 846 161 q 711 114 764 132 q 617 83 658 96 q 532 60 561 67 q 488 54 503 54 z "},"ℓ":{"ha":818,"x_min":-46,"x_max":860,"o":"m 488 54 q 469 57 478 54 q 432 89 443 63 q 437 142 424 113 q 472 207 450 171 q 488 233 481 219 q 501 257 496 246 q 506 265 504 261 q 508 271 507 268 q 412 274 467 278 q 289 253 357 271 q 160 213 229 238 q 15 156 92 189 q -15 156 0 150 q -37 176 -31 161 q -39 209 -46 192 q -17 232 -32 226 q 133 292 61 267 q 268 333 204 318 q 547 347 439 376 q 592 308 579 339 q 586 240 604 278 q 543 163 568 203 q 539 156 542 160 q 533 146 536 151 q 628 174 565 153 q 800 235 690 194 q 831 233 815 240 q 853 208 847 225 q 853 177 860 193 q 828 154 846 161 q 711 114 764 132 q 617 83 658 96 q 532 60 561 67 q 488 54 503 54 z "},"a":{"ha":739,"x_min":-43,"x_max":781,"o":"m 111 -39 q 92 -37 101 -39 q 72 -33 82 -35 q 38 -4 47 -26 q 38 63 25 24 q 82 165 51 103 q 94 190 88 176 q 106 217 100 204 q 67 194 88 210 q 26 161 47 178 q -5 153 13 151 q -33 168 -22 156 q -41 199 -43 182 q -26 228 -39 215 q 15 258 -7 242 q 58 286 36 275 q 163 301 115 315 q 196 274 185 297 q 195 218 207 251 q 156 128 183 185 q 141 94 149 111 q 126 63 133 78 q 123 53 125 57 q 119 44 121 49 q 205 74 149 49 q 357 176 261 100 q 450 255 408 217 q 517 318 492 293 q 542 343 542 343 q 582 356 558 363 q 600 347 593 354 q 611 332 607 339 q 613 287 621 313 q 582 204 606 261 q 566 168 574 186 q 551 135 558 150 q 549 126 550 129 q 547 119 549 122 q 603 142 574 124 q 662 185 633 161 q 710 225 690 208 q 740 236 724 238 q 769 222 757 235 q 780 192 781 208 q 765 163 779 175 q 677 92 722 125 q 587 42 632 58 q 496 38 542 26 q 464 65 474 47 q 459 108 456 85 q 475 167 463 132 q 444 140 460 153 q 410 113 428 128 q 111 -39 218 -39 z "},"à":{"ha":739,"x_min":-43,"x_max":781,"o":"m 111 -39 q 92 -37 101 -39 q 72 -33 82 -35 q 38 -4 47 -26 q 38 63 25 24 q 82 165 51 103 q 94 190 88 176 q 106 217 100 204 q 67 194 88 210 q 26 161 47 178 q -5 153 13 151 q -33 168 -22 156 q -41 199 -43 182 q -26 228 -39 215 q 15 258 -7 242 q 58 286 36 275 q 163 301 115 315 q 196 274 185 297 q 195 218 207 251 q 156 128 183 185 q 141 94 149 111 q 126 63 133 78 q 123 53 125 57 q 119 44 121 49 q 205 74 149 49 q 357 176 261 100 q 450 255 408 217 q 517 318 492 293 q 542 343 542 343 q 582 356 558 363 q 600 347 593 354 q 611 332 607 339 q 613 287 621 313 q 582 204 606 261 q 566 168 574 186 q 551 135 558 150 q 549 126 550 129 q 547 119 549 122 q 603 142 574 124 q 662 185 633 161 q 710 225 690 208 q 740 236 724 238 q 769 222 757 235 q 780 192 781 208 q 765 163 779 175 q 677 92 722 125 q 587 42 632 58 q 496 38 542 26 q 464 65 474 47 q 459 108 456 85 q 475 167 463 132 q 444 140 460 153 q 410 113 428 128 q 111 -39 218 -39 z "},"á":{"ha":818,"x_min":-46,"x_max":860,"o":"m 488 54 q 469 57 478 54 q 432 89 443 63 q 437 142 424 113 q 472 207 450 171 q 488 233 481 219 q 501 257 496 246 q 506 265 504 261 q 508 271 507 268 q 412 274 467 278 q 289 253 357 271 q 160 213 229 238 q 15 156 92 189 q -15 156 0 150 q -37 176 -31 161 q -39 209 -46 192 q -17 232 -32 226 q 133 292 61 267 q 268 333 204 318 q 547 347 439 376 q 592 308 579 339 q 586 240 604 278 q 543 163 568 203 q 539 156 542 160 q 533 146 536 151 q 628 174 565 153 q 800 235 690 194 q 831 233 815 240 q 853 208 847 225 q 853 177 860 193 q 828 154 846 161 q 711 114 764 132 q 617 83 658 96 q 532 60 561 67 q 488 54 503 54 z "},"â":{"ha":739,"x_min":-43,"x_max":781,"o":"m 111 -39 q 92 -37 101 -39 q 72 -33 82 -35 q 38 -4 47 -26 q 38 63 25 24 q 82 165 51 103 q 94 190 88 176 q 106 217 100 204 q 67 194 88 210 q 26 161 47 178 q -5 153 13 151 q -33 168 -22 156 q -41 199 -43 182 q -26 228 -39 215 q 15 258 -7 242 q 58 286 36 275 q 163 301 115 315 q 196 274 185 297 q 195 218 207 251 q 156 128 183 185 q 141 94 149 111 q 126 63 133 78 q 123 53 125 57 q 119 44 121 49 q 205 74 149 49 q 357 176 261 100 q 450 255 408 217 q 517 318 492 293 q 542 343 542 343 q 582 356 558 363 q 600 347 593 354 q 611 332 607 339 q 613 287 621 313 q 582 204 606 261 q 566 168 574 186 q 551 135 558 150 q 549 126 550 129 q 547 119 549 122 q 603 142 574 124 q 662 185 633 161 q 710 225 690 208 q 740 236 724 238 q 769 222 757 235 q 780 192 781 208 q 765 163 779 175 q 677 92 722 125 q 587 42 632 58 q 496 38 542 26 q 464 65 474 47 q 459 108 456 85 q 475 167 463 132 q 444 140 460 153 q 410 113 428 128 q 111 -39 218 -39 z "},"ã":{"ha":739,"x_min":-43,"x_max":781,"o":"m 111 -39 q 92 -37 101 -39 q 72 -33 82 -35 q 38 -4 47 -26 q 38 63 25 24 q 82 165 51 103 q 94 190 88 176 q 106 217 100 204 q 67 194 88 210 q 26 161 47 178 q -5 153 13 151 q -33 168 -22 156 q -41 199 -43 182 q -26 228 -39 215 q 15 258 -7 242 q 58 286 36 275 q 163 301 115 315 q 196 274 185 297 q 195 218 207 251 q 156 128 183 185 q 141 94 149 111 q 126 63 133 78 q 123 53 125 57 q 119 44 121 49 q 205 74 149 49 q 357 176 261 100 q 450 255 408 217 q 517 318 492 293 q 542 343 542 343 q 582 356 558 363 q 600 347 593 354 q 611 332 607 339 q 613 287 621 313 q 582 204 606 261 q 566 168 574 186 q 551 135 558 150 q 549 126 550 129 q 547 119 549 122 q 603 142 574 124 q 662 185 633 161 q 710 225 690 208 q 740 236 724 238 q 769 222 757 235 q 780 192 781 208 q 765 163 779 175 q 677 92 722 125 q 587 42 632 58 q 496 38 542 26 q 464 65 474 47 q 459 108 456 85 q 475 167 463 132 q 444 140 460 153 q 410 113 428 128 q 111 -39 218 -39 z "},"ä":{"ha":739,"x_min":-43,"x_max":781,"o":"m 111 -39 q 92 -37 101 -39 q 72 -33 82 -35 q 38 -4 47 -26 q 38 63 25 24 q 82 165 51 103 q 94 190 88 176 q 106 217 100 204 q 67 194 88 210 q 26 161 47 178 q -5 153 13 151 q -33 168 -22 156 q -41 199 -43 182 q -26 228 -39 215 q 15 258 -7 242 q 58 286 36 275 q 163 301 115 315 q 196 274 185 297 q 195 218 207 251 q 156 128 183 185 q 141 94 149 111 q 126 63 133 78 q 123 53 125 57 q 119 44 121 49 q 205 74 149 49 q 357 176 261 100 q 450 255 408 217 q 517 318 492 293 q 542 343 542 343 q 582 356 558 363 q 600 347 593 354 q 611 332 607 339 q 613 287 621 313 q 582 204 606 261 q 566 168 574 186 q 551 135 558 150 q 549 126 550 129 q 547 119 549 122 q 603 142 574 124 q 662 185 633 161 q 710 225 690 208 q 740 236 724 238 q 769 222 757 235 q 780 192 781 208 q 765 163 779 175 q 677 92 722 125 q 587 42 632 58 q 496 38 542 26 q 464 65 474 47 q 459 108 456 85 q 475 167 463 132 q 444 140 460 153 q 410 113 428 128 q 111 -39 218 -39 z "},"å":{"ha":739,"x_min":-43,"x_max":781,"o":"m 111 -39 q 92 -37 101 -39 q 72 -33 82 -35 q 38 -4 47 -26 q 38 63 25 24 q 82 165 51 103 q 94 190 88 176 q 106 217 100 204 q 67 194 88 210 q 26 161 47 178 q -5 153 13 151 q -33 168 -22 156 q -41 199 -43 182 q -26 228 -39 215 q 15 258 -7 242 q 58 286 36 275 q 163 301 115 315 q 196 274 185 297 q 195 218 207 251 q 156 128 183 185 q 141 94 149 111 q 126 63 133 78 q 123 53 125 57 q 119 44 121 49 q 205 74 149 49 q 357 176 261 100 q 450 255 408 217 q 517 318 492 293 q 542 343 542 343 q 582 356 558 363 q 600 347 593 354 q 611 332 607 339 q 613 287 621 313 q 582 204 606 261 q 566 168 574 186 q 551 135 558 150 q 549 126 550 129 q 547 119 549 122 q 603 142 574 124 q 662 185 633 161 q 710 225 690 208 q 740 236 724 238 q 769 222 757 235 q 780 192 781 208 q 765 163 779 175 q 677 92 722 125 q 587 42 632 58 q 496 38 542 26 q 464 65 474 47 q 459 108 456 85 q 475 167 463 132 q 444 140 460 153 q 410 113 428 128 q 111 -39 218 -39 z "},"ā":{"ha":818,"x_min":-46,"x_max":860,"o":"m 488 54 q 469 57 478 54 q 432 89 443 63 q 437 142 424 113 q 472 207 450 171 q 488 233 481 219 q 501 257 496 246 q 506 265 504 261 q 508 271 507 268 q 412 274 467 278 q 289 253 357 271 q 160 213 229 238 q 15 156 92 189 q -15 156 0 150 q -37 176 -31 161 q -39 209 -46 192 q -17 232 -32 226 q 133 292 61 267 q 268 333 204 318 q 547 347 439 376 q 592 308 579 339 q 586 240 604 278 q 543 163 568 203 q 539 156 542 160 q 533 146 536 151 q 628 174 565 153 q 800 235 690 194 q 831 233 815 240 q 853 208 847 225 q 853 177 860 193 q 828 154 846 161 q 711 114 764 132 q 617 83 658 96 q 532 60 561 67 q 488 54 503 54 z "},"ă":{"ha":739,"x_min":-43,"x_max":781,"o":"m 111 -39 q 92 -37 101 -39 q 72 -33 82 -35 q 38 -4 47 -26 q 38 63 25 24 q 82 165 51 103 q 94 190 88 176 q 106 217 100 204 q 67 194 88 210 q 26 161 47 178 q -5 153 13 151 q -33 168 -22 156 q -41 199 -43 182 q -26 228 -39 215 q 15 258 -7 242 q 58 286 36 275 q 163 301 115 315 q 196 274 185 297 q 195 218 207 251 q 156 128 183 185 q 141 94 149 111 q 126 63 133 78 q 123 53 125 57 q 119 44 121 49 q 205 74 149 49 q 357 176 261 100 q 450 255 408 217 q 517 318 492 293 q 542 343 542 343 q 582 356 558 363 q 600 347 593 354 q 611 332 607 339 q 613 287 621 313 q 582 204 606 261 q 566 168 574 186 q 551 135 558 150 q 549 126 550 129 q 547 119 549 122 q 603 142 574 124 q 662 185 633 161 q 710 225 690 208 q 740 236 724 238 q 769 222 757 235 q 780 192 781 208 q 765 163 779 175 q 677 92 722 125 q 587 42 632 58 q 496 38 542 26 q 464 65 474 47 q 459 108 456 85 q 475 167 463 132 q 444 140 460 153 q 410 113 428 128 q 111 -39 218 -39 z "},"ą":{"ha":739,"x_min":-43,"x_max":781,"o":"m 111 -39 q 92 -37 101 -39 q 72 -33 82 -35 q 38 -4 47 -26 q 38 63 25 24 q 82 165 51 103 q 94 190 88 176 q 106 217 100 204 q 67 194 88 210 q 26 161 47 178 q -5 153 13 151 q -33 168 -22 156 q -41 199 -43 182 q -26 228 -39 215 q 15 258 -7 242 q 58 286 36 275 q 163 301 115 315 q 196 274 185 297 q 195 218 207 251 q 156 128 183 185 q 141 94 149 111 q 126 63 133 78 q 123 53 125 57 q 119 44 121 49 q 205 74 149 49 q 357 176 261 100 q 450 255 408 217 q 517 318 492 293 q 542 343 542 343 q 582 356 558 363 q 600 347 593 354 q 611 332 607 339 q 613 287 621 313 q 582 204 606 261 q 566 168 574 186 q 551 135 558 150 q 549 126 550 129 q 547 119 549 122 q 603 142 574 124 q 662 185 633 161 q 710 225 690 208 q 740 236 724 238 q 769 222 757 235 q 780 192 781 208 q 765 163 779 175 q 677 92 722 125 q 587 42 632 58 q 496 38 542 26 q 464 65 474 47 q 459 108 456 85 q 475 167 463 132 q 444 140 460 153 q 410 113 428 128 q 111 -39 218 -39 z "},"b":{"ha":739,"x_min":-43,"x_max":781,"o":"m 111 -39 q 92 -37 101 -39 q 72 -33 82 -35 q 38 -4 47 -26 q 38 63 25 24 q 82 165 51 103 q 94 190 88 176 q 106 217 100 204 q 67 194 88 210 q 26 161 47 178 q -5 153 13 151 q -33 168 -22 156 q -41 199 -43 182 q -26 228 -39 215 q 15 258 -7 242 q 58 286 36 275 q 163 301 115 315 q 196 274 185 297 q 195 218 207 251 q 156 128 183 185 q 141 94 149 111 q 126 63 133 78 q 123 53 125 57 q 119 44 121 49 q 205 74 149 49 q 357 176 261 100 q 450 255 408 217 q 517 318 492 293 q 542 343 542 343 q 582 356 558 363 q 600 347 593 354 q 611 332 607 339 q 613 287 621 313 q 582 204 606 261 q 566 168 574 186 q 551 135 558 150 q 549 126 550 129 q 547 119 549 122 q 603 142 574 124 q 662 185 633 161 q 710 225 690 208 q 740 236 724 238 q 769 222 757 235 q 780 192 781 208 q 765 163 779 175 q 677 92 722 125 q 587 42 632 58 q 496 38 542 26 q 464 65 474 47 q 459 108 456 85 q 475 167 463 132 q 444 140 460 153 q 410 113 428 128 q 111 -39 218 -39 z "},"c":{"ha":739,"x_min":-43,"x_max":781,"o":"m 111 -39 q 92 -37 101 -39 q 72 -33 82 -35 q 38 -4 47 -26 q 38 63 25 24 q 82 165 51 103 q 94 190 88 176 q 106 217 100 204 q 67 194 88 210 q 26 161 47 178 q -5 153 13 151 q -33 168 -22 156 q -41 199 -43 182 q -26 228 -39 215 q 15 258 -7 242 q 58 286 36 275 q 163 301 115 315 q 196 274 185 297 q 195 218 207 251 q 156 128 183 185 q 141 94 149 111 q 126 63 133 78 q 123 53 125 57 q 119 44 121 49 q 205 74 149 49 q 357 176 261 100 q 450 255 408 217 q 517 318 492 293 q 542 343 542 343 q 582 356 558 363 q 600 347 593 354 q 611 332 607 339 q 613 287 621 313 q 582 204 606 261 q 566 168 574 186 q 551 135 558 150 q 549 126 550 129 q 547 119 549 122 q 603 142 574 124 q 662 185 633 161 q 710 225 690 208 q 740 236 724 238 q 769 222 757 235 q 780 192 781 208 q 765 163 779 175 q 677 92 722 125 q 587 42 632 58 q 496 38 542 26 q 464 65 474 47 q 459 108 456 85 q 475 167 463 132 q 444 140 460 153 q 410 113 428 128 q 111 -39 218 -39 z "},"ç":{"ha":382,"x_min":-43,"x_max":431,"o":"m 185 82 q 174 83 178 82 q 142 101 151 89 q 131 119 133 113 q 138 183 121 150 q 181 251 154 215 q 197 276 189 263 q 210 299 204 289 q 214 304 211 300 q 194 296 206 301 q 167 279 182 290 q 114 240 142 264 q 57 189 86 215 q 42 176 50 183 q 28 163 35 169 q -2 152 15 151 q -31 167 -19 153 q -42 197 -43 179 q -28 225 -40 214 q -13 239 -21 232 q 1 251 -6 246 q 89 326 46 292 q 174 378 132 360 q 254 385 215 396 q 288 366 278 379 q 300 343 299 353 q 294 278 313 313 q 249 204 276 244 q 242 195 246 201 q 235 183 239 189 q 289 204 256 192 q 369 235 322 217 q 403 233 388 240 q 424 208 418 225 q 423 177 431 193 q 400 154 415 161 q 319 126 356 139 q 258 104 283 114 q 234 95 244 99 q 215 89 224 92 q 199 84 206 86 q 185 82 192 82 z "},"ć":{"ha":382,"x_min":-43,"x_max":431,"o":"m 185 82 q 174 83 178 82 q 142 101 151 89 q 131 119 133 113 q 138 183 121 150 q 181 251 154 215 q 197 276 189 263 q 210 299 204 289 q 214 304 211 300 q 194 296 206 301 q 167 279 182 290 q 114 240 142 264 q 57 189 86 215 q 42 176 50 183 q 28 163 35 169 q -2 152 15 151 q -31 167 -19 153 q -42 197 -43 179 q -28 225 -40 214 q -13 239 -21 232 q 1 251 -6 246 q 89 326 46 292 q 174 378 132 360 q 254 385 215 396 q 288 366 278 379 q 300 343 299 353 q 294 278 313 313 q 249 204 276 244 q 242 195 246 201 q 235 183 239 189 q 289 204 256 192 q 369 235 322 217 q 403 233 388 240 q 424 208 418 225 q 423 177 431 193 q 400 154 415 161 q 319 126 356 139 q 258 104 283 114 q 234 95 244 99 q 215 89 224 92 q 199 84 206 86 q 185 82 192 82 z "},"č":{"ha":382,"x_min":-43,"x_max":431,"o":"m 185 82 q 174 83 178 82 q 142 101 151 89 q 131 119 133 113 q 138 183 121 150 q 181 251 154 215 q 197 276 189 263 q 210 299 204 289 q 214 304 211 300 q 194 296 206 301 q 167 279 182 290 q 114 240 142 264 q 57 189 86 215 q 42 176 50 183 q 28 163 35 169 q -2 152 15 151 q -31 167 -19 153 q -42 197 -43 179 q -28 225 -40 214 q -13 239 -21 232 q 1 251 -6 246 q 89 326 46 292 q 174 378 132 360 q 254 385 215 396 q 288 366 278 379 q 300 343 299 353 q 294 278 313 313 q 249 204 276 244 q 242 195 246 201 q 235 183 239 189 q 289 204 256 192 q 369 235 322 217 q 403 233 388 240 q 424 208 418 225 q 423 177 431 193 q 400 154 415 161 q 319 126 356 139 q 258 104 283 114 q 234 95 244 99 q 215 89 224 92 q 199 84 206 86 q 185 82 192 82 z "},"d":{"ha":739,"x_min":-43,"x_max":781,"o":"m 111 -39 q 92 -37 101 -39 q 72 -33 82 -35 q 38 -4 47 -26 q 38 63 25 24 q 82 165 51 103 q 94 190 88 176 q 106 217 100 204 q 67 194 88 210 q 26 161 47 178 q -5 153 13 151 q -33 168 -22 156 q -41 199 -43 182 q -26 228 -39 215 q 15 258 -7 242 q 58 286 36 275 q 163 301 115 315 q 196 274 185 297 q 195 218 207 251 q 156 128 183 185 q 141 94 149 111 q 126 63 133 78 q 123 53 125 57 q 119 44 121 49 q 205 74 149 49 q 357 176 261 100 q 450 255 408 217 q 517 318 492 293 q 542 343 542 343 q 582 356 558 363 q 600 347 593 354 q 611 332 607 339 q 613 287 621 313 q 582 204 606 261 q 566 168 574 186 q 551 135 558 150 q 549 126 550 129 q 547 119 549 122 q 603 142 574 124 q 662 185 633 161 q 710 225 690 208 q 740 236 724 238 q 769 222 757 235 q 780 192 781 208 q 765 163 779 175 q 677 92 722 125 q 587 42 632 58 q 496 38 542 26 q 464 65 474 47 q 459 108 456 85 q 475 167 463 132 q 444 140 460 153 q 410 113 428 128 q 111 -39 218 -39 z "},"ď":{"ha":382,"x_min":-43,"x_max":431,"o":"m 185 82 q 174 83 178 82 q 142 101 151 89 q 131 119 133 113 q 138 183 121 150 q 181 251 154 215 q 197 276 189 263 q 210 299 204 289 q 214 304 211 300 q 194 296 206 301 q 167 279 182 290 q 114 240 142 264 q 57 189 86 215 q 42 176 50 183 q 28 163 35 169 q -2 152 15 151 q -31 167 -19 153 q -42 197 -43 179 q -28 225 -40 214 q -13 239 -21 232 q 1 251 -6 246 q 89 326 46 292 q 174 378 132 360 q 254 385 215 396 q 288 366 278 379 q 300 343 299 353 q 294 278 313 313 q 249 204 276 244 q 242 195 246 201 q 235 183 239 189 q 289 204 256 192 q 369 235 322 217 q 403 233 388 240 q 424 208 418 225 q 423 177 431 193 q 400 154 415 161 q 319 126 356 139 q 258 104 283 114 q 234 95 244 99 q 215 89 224 92 q 199 84 206 86 q 185 82 192 82 z "},"e":{"ha":739,"x_min":-43,"x_max":781,"o":"m 111 -39 q 92 -37 101 -39 q 72 -33 82 -35 q 38 -4 47 -26 q 38 63 25 24 q 82 165 51 103 q 94 190 88 176 q 106 217 100 204 q 67 194 88 210 q 26 161 47 178 q -5 153 13 151 q -33 168 -22 156 q -41 199 -43 182 q -26 228 -39 215 q 15 258 -7 242 q 58 286 36 275 q 163 301 115 315 q 196 274 185 297 q 195 218 207 251 q 156 128 183 185 q 141 94 149 111 q 126 63 133 78 q 123 53 125 57 q 119 44 121 49 q 205 74 149 49 q 357 176 261 100 q 450 255 408 217 q 517 318 492 293 q 542 343 542 343 q 582 356 558 363 q 600 347 593 354 q 611 332 607 339 q 613 287 621 313 q 582 204 606 261 q 566 168 574 186 q 551 135 558 150 q 549 126 550 129 q 547 119 549 122 q 603 142 574 124 q 662 185 633 161 q 710 225 690 208 q 740 236 724 238 q 769 222 757 235 q 780 192 781 208 q 765 163 779 175 q 677 92 722 125 q 587 42 632 58 q 496 38 542 26 q 464 65 474 47 q 459 108 456 85 q 475 167 463 132 q 444 140 460 153 q 410 113 428 128 q 111 -39 218 -39 z "},"è":{"ha":382,"x_min":-43,"x_max":431,"o":"m 185 82 q 174 83 178 82 q 142 101 151 89 q 131 119 133 113 q 138 183 121 150 q 181 251 154 215 q 197 276 189 263 q 210 299 204 289 q 214 304 211 300 q 194 296 206 301 q 167 279 182 290 q 114 240 142 264 q 57 189 86 215 q 42 176 50 183 q 28 163 35 169 q -2 152 15 151 q -31 167 -19 153 q -42 197 -43 179 q -28 225 -40 214 q -13 239 -21 232 q 1 251 -6 246 q 89 326 46 292 q 174 378 132 360 q 254 385 215 396 q 288 366 278 379 q 300 343 299 353 q 294 278 313 313 q 249 204 276 244 q 242 195 246 201 q 235 183 239 189 q 289 204 256 192 q 369 235 322 217 q 403 233 388 240 q 424 208 418 225 q 423 177 431 193 q 400 154 415 161 q 319 126 356 139 q 258 104 283 114 q 234 95 244 99 q 215 89 224 92 q 199 84 206 86 q 185 82 192 82 z "},"é":{"ha":382,"x_min":-43,"x_max":431,"o":"m 185 82 q 174 83 178 82 q 142 101 151 89 q 131 119 133 113 q 138 183 121 150 q 181 251 154 215 q 197 276 189 263 q 210 299 204 289 q 214 304 211 300 q 194 296 206 301 q 167 279 182 290 q 114 240 142 264 q 57 189 86 215 q 42 176 50 183 q 28 163 35 169 q -2 152 15 151 q -31 167 -19 153 q -42 197 -43 179 q -28 225 -40 214 q -13 239 -21 232 q 1 251 -6 246 q 89 326 46 292 q 174 378 132 360 q 254 385 215 396 q 288 366 278 379 q 300 343 299 353 q 294 278 313 313 q 249 204 276 244 q 242 195 246 201 q 235 183 239 189 q 289 204 256 192 q 369 235 322 217 q 403 233 388 240 q 424 208 418 225 q 423 177 431 193 q 400 154 415 161 q 319 126 356 139 q 258 104 283 114 q 234 95 244 99 q 215 89 224 92 q 199 84 206 86 q 185 82 192 82 z "},"ê":{"ha":382,"x_min":-43,"x_max":431,"o":"m 185 82 q 174 83 178 82 q 142 101 151 89 q 131 119 133 113 q 138 183 121 150 q 181 251 154 215 q 197 276 189 263 q 210 299 204 289 q 214 304 211 300 q 194 296 206 301 q 167 279 182 290 q 114 240 142 264 q 57 189 86 215 q 42 176 50 183 q 28 163 35 169 q -2 152 15 151 q -31 167 -19 153 q -42 197 -43 179 q -28 225 -40 214 q -13 239 -21 232 q 1 251 -6 246 q 89 326 46 292 q 174 378 132 360 q 254 385 215 396 q 288 366 278 379 q 300 343 299 353 q 294 278 313 313 q 249 204 276 244 q 242 195 246 201 q 235 183 239 189 q 289 204 256 192 q 369 235 322 217 q 403 233 388 240 q 424 208 418 225 q 423 177 431 193 q 400 154 415 161 q 319 126 356 139 q 258 104 283 114 q 234 95 244 99 q 215 89 224 92 q 199 84 206 86 q 185 82 192 82 z "},"ë":{"ha":382,"x_min":-43,"x_max":431,"o":"m 185 82 q 174 83 178 82 q 142 101 151 89 q 131 119 133 113 q 138 183 121 150 q 181 251 154 215 q 197 276 189 263 q 210 299 204 289 q 214 304 211 300 q 194 296 206 301 q 167 279 182 290 q 114 240 142 264 q 57 189 86 215 q 42 176 50 183 q 28 163 35 169 q -2 152 15 151 q -31 167 -19 153 q -42 197 -43 179 q -28 225 -40 214 q -13 239 -21 232 q 1 251 -6 246 q 89 326 46 292 q 174 378 132 360 q 254 385 215 396 q 288 366 278 379 q 300 343 299 353 q 294 278 313 313 q 249 204 276 244 q 242 195 246 201 q 235 183 239 189 q 289 204 256 192 q 369 235 322 217 q 403 233 388 240 q 424 208 418 225 q 423 177 431 193 q 400 154 415 161 q 319 126 356 139 q 258 104 283 114 q 234 95 244 99 q 215 89 224 92 q 199 84 206 86 q 185 82 192 82 z "},"ē":{"ha":540,"x_min":-46,"x_max":586,"o":"m 317 40 q 289 50 300 40 q 276 96 267 68 q 287 129 276 97 q 311 201 297 161 q 324 242 318 225 q 333 274 329 260 q 242 240 296 260 q 128 197 188 219 q 14 154 69 175 q -17 156 -1 149 q -40 181 -33 164 q -38 212 -46 196 q -14 235 -31 228 q 115 281 49 257 q 239 327 182 306 q 332 363 296 349 q 368 376 368 376 q 382 378 375 378 q 394 376 389 379 q 422 354 414 374 q 428 326 429 343 q 421 276 428 308 q 410 237 417 258 q 394 188 404 215 q 392 178 393 182 q 389 168 390 174 q 525 232 444 199 q 556 233 540 239 q 578 211 572 226 q 579 179 586 196 q 557 156 572 163 q 445 103 494 128 q 367 63 396 78 q 338 47 338 47 q 317 40 329 40 z "},"ė":{"ha":818,"x_min":-46,"x_max":860,"o":"m 488 54 q 469 57 478 54 q 432 89 443 63 q 437 142 424 113 q 472 207 450 171 q 488 233 481 219 q 501 257 496 246 q 506 265 504 261 q 508 271 507 268 q 412 274 467 278 q 289 253 357 271 q 160 213 229 238 q 15 156 92 189 q -15 156 0 150 q -37 176 -31 161 q -39 209 -46 192 q -17 232 -32 226 q 133 292 61 267 q 268 333 204 318 q 547 347 439 376 q 592 308 579 339 q 586 240 604 278 q 543 163 568 203 q 539 156 542 160 q 533 146 536 151 q 628 174 565 153 q 800 235 690 194 q 831 233 815 240 q 853 208 847 225 q 853 177 860 193 q 828 154 846 161 q 711 114 764 132 q 617 83 658 96 q 532 60 561 67 q 488 54 503 54 z "},"ę":{"ha":818,"x_min":-46,"x_max":860,"o":"m 488 54 q 469 57 478 54 q 432 89 443 63 q 437 142 424 113 q 472 207 450 171 q 488 233 481 219 q 501 257 496 246 q 506 265 504 261 q 508 271 507 268 q 412 274 467 278 q 289 253 357 271 q 160 213 229 238 q 15 156 92 189 q -15 156 0 150 q -37 176 -31 161 q -39 209 -46 192 q -17 232 -32 226 q 133 292 61 267 q 268 333 204 318 q 547 347 439 376 q 592 308 579 339 q 586 240 604 278 q 543 163 568 203 q 539 156 542 160 q 533 146 536 151 q 628 174 565 153 q 800 235 690 194 q 831 233 815 240 q 853 208 847 225 q 853 177 860 193 q 828 154 846 161 q 711 114 764 132 q 617 83 658 96 q 532 60 561 67 q 488 54 503 54 z "},"ě":{"ha":818,"x_min":-46,"x_max":860,"o":"m 488 54 q 469 57 478 54 q 432 89 443 63 q 437 142 424 113 q 472 207 450 171 q 488 233 481 219 q 501 257 496 246 q 506 265 504 261 q 508 271 507 268 q 412 274 467 278 q 289 253 357 271 q 160 213 229 238 q 15 156 92 189 q -15 156 0 150 q -37 176 -31 161 q -39 209 -46 192 q -17 232 -32 226 q 133 292 61 267 q 268 333 204 318 q 547 347 439 376 q 592 308 579 339 q 586 240 604 278 q 543 163 568 203 q 539 156 542 160 q 533 146 536 151 q 628 174 565 153 q 800 235 690 194 q 831 233 815 240 q 853 208 847 225 q 853 177 860 193 q 828 154 846 161 q 711 114 764 132 q 617 83 658 96 q 532 60 561 67 q 488 54 503 54 z "},"f":{"ha":382,"x_min":-43,"x_max":431,"o":"m 185 82 q 174 83 178 82 q 142 101 151 89 q 131 119 133 113 q 138 183 121 150 q 181 251 154 215 q 197 276 189 263 q 210 299 204 289 q 214 304 211 300 q 194 296 206 301 q 167 279 182 290 q 114 240 142 264 q 57 189 86 215 q 42 176 50 183 q 28 163 35 169 q -2 152 15 151 q -31 167 -19 153 q -42 197 -43 179 q -28 225 -40 214 q -13 239 -21 232 q 1 251 -6 246 q 89 326 46 292 q 174 378 132 360 q 254 385 215 396 q 288 366 278 379 q 300 343 299 353 q 294 278 313 313 q 249 204 276 244 q 242 195 246 201 q 235 183 239 189 q 289 204 256 192 q 369 235 322 217 q 403 233 388 240 q 424 208 418 225 q 423 177 431 193 q 400 154 415 161 q 319 126 356 139 q 258 104 283 114 q 234 95 244 99 q 215 89 224 92 q 199 84 206 86 q 185 82 192 82 z "},"g":{"ha":382,"x_min":-43,"x_max":431,"o":"m 185 82 q 174 83 178 82 q 142 101 151 89 q 131 119 133 113 q 138 183 121 150 q 181 251 154 215 q 197 276 189 263 q 210 299 204 289 q 214 304 211 300 q 194 296 206 301 q 167 279 182 290 q 114 240 142 264 q 57 189 86 215 q 42 176 50 183 q 28 163 35 169 q -2 152 15 151 q -31 167 -19 153 q -42 197 -43 179 q -28 225 -40 214 q -13 239 -21 232 q 1 251 -6 246 q 89 326 46 292 q 174 378 132 360 q 254 385 215 396 q 288 366 278 379 q 300 343 299 353 q 294 278 313 313 q 249 204 276 244 q 242 195 246 201 q 235 183 239 189 q 289 204 256 192 q 369 235 322 217 q 403 233 388 240 q 424 208 418 225 q 423 177 431 193 q 400 154 415 161 q 319 126 356 139 q 258 104 283 114 q 234 95 244 99 q 215 89 224 92 q 199 84 206 86 q 185 82 192 82 z "},"ğ":{"ha":542,"x_min":-46,"x_max":585,"o":"m 175 -42 q 161 -41 168 -42 q 146 -39 154 -40 q 118 -15 129 -33 q 113 15 113 -4 q 125 79 113 35 q 165 211 138 124 q 95 185 135 200 q 14 154 56 169 q -17 156 -1 149 q -40 181 -33 164 q -38 212 -46 196 q -14 235 -31 228 q 98 276 46 257 q 183 308 150 296 q 217 321 217 321 q 243 322 231 326 q 269 301 261 318 q 274 279 276 289 q 269 258 272 269 q 265 247 267 253 q 261 232 264 240 q 241 174 251 208 q 219 106 231 140 q 208 72 213 86 q 201 47 204 58 q 278 79 228 53 q 370 134 321 103 q 471 200 419 165 q 494 214 482 207 q 515 229 506 221 q 548 235 531 239 q 575 217 565 232 q 581 186 585 203 q 563 160 578 169 q 540 144 551 151 q 515 128 528 136 q 413 61 463 93 q 318 6 363 29 q 175 -42 228 -42 z "},"ģ":{"ha":542,"x_min":-46,"x_max":585,"o":"m 175 -42 q 161 -41 168 -42 q 146 -39 154 -40 q 118 -15 129 -33 q 113 15 113 -4 q 125 79 113 35 q 165 211 138 124 q 95 185 135 200 q 14 154 56 169 q -17 156 -1 149 q -40 181 -33 164 q -38 212 -46 196 q -14 235 -31 228 q 98 276 46 257 q 183 308 150 296 q 217 321 217 321 q 243 322 231 326 q 269 301 261 318 q 274 279 276 289 q 269 258 272 269 q 265 247 267 253 q 261 232 264 240 q 241 174 251 208 q 219 106 231 140 q 208 72 213 86 q 201 47 204 58 q 278 79 228 53 q 370 134 321 103 q 471 200 419 165 q 494 214 482 207 q 515 229 506 221 q 548 235 531 239 q 575 217 565 232 q 581 186 585 203 q 563 160 578 169 q 540 144 551 151 q 515 128 528 136 q 413 61 463 93 q 318 6 363 29 q 175 -42 228 -42 z "},"h":{"ha":382,"x_min":-43,"x_max":431,"o":"m 185 82 q 174 83 178 82 q 142 101 151 89 q 131 119 133 113 q 138 183 121 150 q 181 251 154 215 q 197 276 189 263 q 210 299 204 289 q 214 304 211 300 q 194 296 206 301 q 167 279 182 290 q 114 240 142 264 q 57 189 86 215 q 42 176 50 183 q 28 163 35 169 q -2 152 15 151 q -31 167 -19 153 q -42 197 -43 179 q -28 225 -40 214 q -13 239 -21 232 q 1 251 -6 246 q 89 326 46 292 q 174 378 132 360 q 254 385 215 396 q 288 366 278 379 q 300 343 299 353 q 294 278 313 313 q 249 204 276 244 q 242 195 246 201 q 235 183 239 189 q 289 204 256 192 q 369 235 322 217 q 403 233 388 240 q 424 208 418 225 q 423 177 431 193 q 400 154 415 161 q 319 126 356 139 q 258 104 283 114 q 234 95 244 99 q 215 89 224 92 q 199 84 206 86 q 185 82 192 82 z "},"i":{"ha":382,"x_min":-43,"x_max":431,"o":"m 185 82 q 174 83 178 82 q 142 101 151 89 q 131 119 133 113 q 138 183 121 150 q 181 251 154 215 q 197 276 189 263 q 210 299 204 289 q 214 304 211 300 q 194 296 206 301 q 167 279 182 290 q 114 240 142 264 q 57 189 86 215 q 42 176 50 183 q 28 163 35 169 q -2 152 15 151 q -31 167 -19 153 q -42 197 -43 179 q -28 225 -40 214 q -13 239 -21 232 q 1 251 -6 246 q 89 326 46 292 q 174 378 132 360 q 254 385 215 396 q 288 366 278 379 q 300 343 299 353 q 294 278 313 313 q 249 204 276 244 q 242 195 246 201 q 235 183 239 189 q 289 204 256 192 q 369 235 322 217 q 403 233 388 240 q 424 208 418 225 q 423 177 431 193 q 400 154 415 161 q 319 126 356 139 q 258 104 283 114 q 234 95 244 99 q 215 89 224 92 q 199 84 206 86 q 185 82 192 82 z "},"ì":{"ha":540,"x_min":-46,"x_max":586,"o":"m 317 40 q 289 50 300 40 q 276 96 267 68 q 287 129 276 97 q 311 201 297 161 q 324 242 318 225 q 333 274 329 260 q 242 240 296 260 q 128 197 188 219 q 14 154 69 175 q -17 156 -1 149 q -40 181 -33 164 q -38 212 -46 196 q -14 235 -31 228 q 115 281 49 257 q 239 327 182 306 q 332 363 296 349 q 368 376 368 376 q 382 378 375 378 q 394 376 389 379 q 422 354 414 374 q 428 326 429 343 q 421 276 428 308 q 410 237 417 258 q 394 188 404 215 q 392 178 393 182 q 389 168 390 174 q 525 232 444 199 q 556 233 540 239 q 578 211 572 226 q 579 179 586 196 q 557 156 572 163 q 445 103 494 128 q 367 63 396 78 q 338 47 338 47 q 317 40 329 40 z "},"í":{"ha":540,"x_min":-46,"x_max":586,"o":"m 317 40 q 289 50 300 40 q 276 96 267 68 q 287 129 276 97 q 311 201 297 161 q 324 242 318 225 q 333 274 329 260 q 242 240 296 260 q 128 197 188 219 q 14 154 69 175 q -17 156 -1 149 q -40 181 -33 164 q -38 212 -46 196 q -14 235 -31 228 q 115 281 49 257 q 239 327 182 306 q 332 363 296 349 q 368 376 368 376 q 382 378 375 378 q 394 376 389 379 q 422 354 414 374 q 428 326 429 343 q 421 276 428 308 q 410 237 417 258 q 394 188 404 215 q 392 178 393 182 q 389 168 390 174 q 525 232 444 199 q 556 233 540 239 q 578 211 572 226 q 579 179 586 196 q 557 156 572 163 q 445 103 494 128 q 367 63 396 78 q 338 47 338 47 q 317 40 329 40 z "},"î":{"ha":540,"x_min":-46,"x_max":586,"o":"m 317 40 q 289 50 300 40 q 276 96 267 68 q 287 129 276 97 q 311 201 297 161 q 324 242 318 225 q 333 274 329 260 q 242 240 296 260 q 128 197 188 219 q 14 154 69 175 q -17 156 -1 149 q -40 181 -33 164 q -38 212 -46 196 q -14 235 -31 228 q 115 281 49 257 q 239 327 182 306 q 332 363 296 349 q 368 376 368 376 q 382 378 375 378 q 394 376 389 379 q 422 354 414 374 q 428 326 429 343 q 421 276 428 308 q 410 237 417 258 q 394 188 404 215 q 392 178 393 182 q 389 168 390 174 q 525 232 444 199 q 556 233 540 239 q 578 211 572 226 q 579 179 586 196 q 557 156 572 163 q 445 103 494 128 q 367 63 396 78 q 338 47 338 47 q 317 40 329 40 z "},"ï":{"ha":540,"x_min":-46,"x_max":586,"o":"m 317 40 q 289 50 300 40 q 276 96 267 68 q 287 129 276 97 q 311 201 297 161 q 324 242 318 225 q 333 274 329 260 q 242 240 296 260 q 128 197 188 219 q 14 154 69 175 q -17 156 -1 149 q -40 181 -33 164 q -38 212 -46 196 q -14 235 -31 228 q 115 281 49 257 q 239 327 182 306 q 332 363 296 349 q 368 376 368 376 q 382 378 375 378 q 394 376 389 379 q 422 354 414 374 q 428 326 429 343 q 421 276 428 308 q 410 237 417 258 q 394 188 404 215 q 392 178 393 182 q 389 168 390 174 q 525 232 444 199 q 556 233 540 239 q 578 211 572 226 q 579 179 586 196 q 557 156 572 163 q 445 103 494 128 q 367 63 396 78 q 338 47 338 47 q 317 40 329 40 z "},"ī":{"ha":542,"x_min":-46,"x_max":585,"o":"m 175 -42 q 161 -41 168 -42 q 146 -39 154 -40 q 118 -15 129 -33 q 113 15 113 -4 q 125 79 113 35 q 165 211 138 124 q 95 185 135 200 q 14 154 56 169 q -17 156 -1 149 q -40 181 -33 164 q -38 212 -46 196 q -14 235 -31 228 q 98 276 46 257 q 183 308 150 296 q 217 321 217 321 q 243 322 231 326 q 269 301 261 318 q 274 279 276 289 q 269 258 272 269 q 265 247 267 253 q 261 232 264 240 q 241 174 251 208 q 219 106 231 140 q 208 72 213 86 q 201 47 204 58 q 278 79 228 53 q 370 134 321 103 q 471 200 419 165 q 494 214 482 207 q 515 229 506 221 q 548 235 531 239 q 575 217 565 232 q 581 186 585 203 q 563 160 578 169 q 540 144 551 151 q 515 128 528 136 q 413 61 463 93 q 318 6 363 29 q 175 -42 228 -42 z "},"į":{"ha":542,"x_min":-46,"x_max":585,"o":"m 175 -42 q 161 -41 168 -42 q 146 -39 154 -40 q 118 -15 129 -33 q 113 15 113 -4 q 125 79 113 35 q 165 211 138 124 q 95 185 135 200 q 14 154 56 169 q -17 156 -1 149 q -40 181 -33 164 q -38 212 -46 196 q -14 235 -31 228 q 98 276 46 257 q 183 308 150 296 q 217 321 217 321 q 243 322 231 326 q 269 301 261 318 q 274 279 276 289 q 269 258 272 269 q 265 247 267 253 q 261 232 264 240 q 241 174 251 208 q 219 106 231 140 q 208 72 213 86 q 201 47 204 58 q 278 79 228 53 q 370 134 321 103 q 471 200 419 165 q 494 214 482 207 q 515 229 506 221 q 548 235 531 239 q 575 217 565 232 q 581 186 585 203 q 563 160 578 169 q 540 144 551 151 q 515 128 528 136 q 413 61 463 93 q 318 6 363 29 q 175 -42 228 -42 z "},"j":{"ha":382,"x_min":-43,"x_max":431,"o":"m 185 82 q 174 83 178 82 q 142 101 151 89 q 131 119 133 113 q 138 183 121 150 q 181 251 154 215 q 197 276 189 263 q 210 299 204 289 q 214 304 211 300 q 194 296 206 301 q 167 279 182 290 q 114 240 142 264 q 57 189 86 215 q 42 176 50 183 q 28 163 35 169 q -2 152 15 151 q -31 167 -19 153 q -42 197 -43 179 q -28 225 -40 214 q -13 239 -21 232 q 1 251 -6 246 q 89 326 46 292 q 174 378 132 360 q 254 385 215 396 q 288 366 278 379 q 300 343 299 353 q 294 278 313 313 q 249 204 276 244 q 242 195 246 201 q 235 183 239 189 q 289 204 256 192 q 369 235 322 217 q 403 233 388 240 q 424 208 418 225 q 423 177 431 193 q 400 154 415 161 q 319 126 356 139 q 258 104 283 114 q 234 95 244 99 q 215 89 224 92 q 199 84 206 86 q 185 82 192 82 z "},"k":{"ha":540,"x_min":-46,"x_max":586,"o":"m 317 40 q 289 50 300 40 q 276 96 267 68 q 287 129 276 97 q 311 201 297 161 q 324 242 318 225 q 333 274 329 260 q 242 240 296 260 q 128 197 188 219 q 14 154 69 175 q -17 156 -1 149 q -40 181 -33 164 q -38 212 -46 196 q -14 235 -31 228 q 115 281 49 257 q 239 327 182 306 q 332 363 296 349 q 368 376 368 376 q 382 378 375 378 q 394 376 389 379 q 422 354 414 374 q 428 326 429 343 q 421 276 428 308 q 410 237 417 258 q 394 188 404 215 q 392 178 393 182 q 389 168 390 174 q 525 232 444 199 q 556 233 540 239 q 578 211 572 226 q 579 179 586 196 q 557 156 572 163 q 445 103 494 128 q 367 63 396 78 q 338 47 338 47 q 317 40 329 40 z "},"ķ":{"ha":818,"x_min":-46,"x_max":860,"o":"m 488 54 q 469 57 478 54 q 432 89 443 63 q 437 142 424 113 q 472 207 450 171 q 488 233 481 219 q 501 257 496 246 q 506 265 504 261 q 508 271 507 268 q 412 274 467 278 q 289 253 357 271 q 160 213 229 238 q 15 156 92 189 q -15 156 0 150 q -37 176 -31 161 q -39 209 -46 192 q -17 232 -32 226 q 133 292 61 267 q 268 333 204 318 q 547 347 439 376 q 592 308 579 339 q 586 240 604 278 q 543 163 568 203 q 539 156 542 160 q 533 146 536 151 q 628 174 565 153 q 800 235 690 194 q 831 233 815 240 q 853 208 847 225 q 853 177 860 193 q 828 154 846 161 q 711 114 764 132 q 617 83 658 96 q 532 60 561 67 q 488 54 503 54 z "},"l":{"ha":540,"x_min":-46,"x_max":586,"o":"m 317 40 q 289 50 300 40 q 276 96 267 68 q 287 129 276 97 q 311 201 297 161 q 324 242 318 225 q 333 274 329 260 q 242 240 296 260 q 128 197 188 219 q 14 154 69 175 q -17 156 -1 149 q -40 181 -33 164 q -38 212 -46 196 q -14 235 -31 228 q 115 281 49 257 q 239 327 182 306 q 332 363 296 349 q 368 376 368 376 q 382 378 375 378 q 394 376 389 379 q 422 354 414 374 q 428 326 429 343 q 421 276 428 308 q 410 237 417 258 q 394 188 404 215 q 392 178 393 182 q 389 168 390 174 q 525 232 444 199 q 556 233 540 239 q 578 211 572 226 q 579 179 586 196 q 557 156 572 163 q 445 103 494 128 q 367 63 396 78 q 338 47 338 47 q 317 40 329 40 z "},"ĺ":{"ha":739,"x_min":-43,"x_max":781,"o":"m 111 -39 q 92 -37 101 -39 q 72 -33 82 -35 q 38 -4 47 -26 q 38 63 25 24 q 82 165 51 103 q 94 190 88 176 q 106 217 100 204 q 67 194 88 210 q 26 161 47 178 q -5 153 13 151 q -33 168 -22 156 q -41 199 -43 182 q -26 228 -39 215 q 15 258 -7 242 q 58 286 36 275 q 163 301 115 315 q 196 274 185 297 q 195 218 207 251 q 156 128 183 185 q 141 94 149 111 q 126 63 133 78 q 123 53 125 57 q 119 44 121 49 q 205 74 149 49 q 357 176 261 100 q 450 255 408 217 q 517 318 492 293 q 542 343 542 343 q 582 356 558 363 q 600 347 593 354 q 611 332 607 339 q 613 287 621 313 q 582 204 606 261 q 566 168 574 186 q 551 135 558 150 q 549 126 550 129 q 547 119 549 122 q 603 142 574 124 q 662 185 633 161 q 710 225 690 208 q 740 236 724 238 q 769 222 757 235 q 780 192 781 208 q 765 163 779 175 q 677 92 722 125 q 587 42 632 58 q 496 38 542 26 q 464 65 474 47 q 459 108 456 85 q 475 167 463 132 q 444 140 460 153 q 410 113 428 128 q 111 -39 218 -39 z "},"ļ":{"ha":739,"x_min":-43,"x_max":781,"o":"m 111 -39 q 92 -37 101 -39 q 72 -33 82 -35 q 38 -4 47 -26 q 38 63 25 24 q 82 165 51 103 q 94 190 88 176 q 106 217 100 204 q 67 194 88 210 q 26 161 47 178 q -5 153 13 151 q -33 168 -22 156 q -41 199 -43 182 q -26 228 -39 215 q 15 258 -7 242 q 58 286 36 275 q 163 301 115 315 q 196 274 185 297 q 195 218 207 251 q 156 128 183 185 q 141 94 149 111 q 126 63 133 78 q 123 53 125 57 q 119 44 121 49 q 205 74 149 49 q 357 176 261 100 q 450 255 408 217 q 517 318 492 293 q 542 343 542 343 q 582 356 558 363 q 600 347 593 354 q 611 332 607 339 q 613 287 621 313 q 582 204 606 261 q 566 168 574 186 q 551 135 558 150 q 549 126 550 129 q 547 119 549 122 q 603 142 574 124 q 662 185 633 161 q 710 225 690 208 q 740 236 724 238 q 769 222 757 235 q 780 192 781 208 q 765 163 779 175 q 677 92 722 125 q 587 42 632 58 q 496 38 542 26 q 464 65 474 47 q 459 108 456 85 q 475 167 463 132 q 444 140 460 153 q 410 113 428 128 q 111 -39 218 -39 z "},"ľ":{"ha":382,"x_min":-43,"x_max":431,"o":"m 185 82 q 174 83 178 82 q 142 101 151 89 q 131 119 133 113 q 138 183 121 150 q 181 251 154 215 q 197 276 189 263 q 210 299 204 289 q 214 304 211 300 q 194 296 206 301 q 167 279 182 290 q 114 240 142 264 q 57 189 86 215 q 42 176 50 183 q 28 163 35 169 q -2 152 15 151 q -31 167 -19 153 q -42 197 -43 179 q -28 225 -40 214 q -13 239 -21 232 q 1 251 -6 246 q 89 326 46 292 q 174 378 132 360 q 254 385 215 396 q 288 366 278 379 q 300 343 299 353 q 294 278 313 313 q 249 204 276 244 q 242 195 246 201 q 235 183 239 189 q 289 204 256 192 q 369 235 322 217 q 403 233 388 240 q 424 208 418 225 q 423 177 431 193 q 400 154 415 161 q 319 126 356 139 q 258 104 283 114 q 234 95 244 99 q 215 89 224 92 q 199 84 206 86 q 185 82 192 82 z "},"m":{"ha":540,"x_min":-46,"x_max":586,"o":"m 317 40 q 289 50 300 40 q 276 96 267 68 q 287 129 276 97 q 311 201 297 161 q 324 242 318 225 q 333 274 329 260 q 242 240 296 260 q 128 197 188 219 q 14 154 69 175 q -17 156 -1 149 q -40 181 -33 164 q -38 212 -46 196 q -14 235 -31 228 q 115 281 49 257 q 239 327 182 306 q 332 363 296 349 q 368 376 368 376 q 382 378 375 378 q 394 376 389 379 q 422 354 414 374 q 428 326 429 343 q 421 276 428 308 q 410 237 417 258 q 394 188 404 215 q 392 178 393 182 q 389 168 390 174 q 525 232 444 199 q 556 233 540 239 q 578 211 572 226 q 579 179 586 196 q 557 156 572 163 q 445 103 494 128 q 367 63 396 78 q 338 47 338 47 q 317 40 329 40 z "},"n":{"ha":540,"x_min":-46,"x_max":586,"o":"m 317 40 q 289 50 300 40 q 276 96 267 68 q 287 129 276 97 q 311 201 297 161 q 324 242 318 225 q 333 274 329 260 q 242 240 296 260 q 128 197 188 219 q 14 154 69 175 q -17 156 -1 149 q -40 181 -33 164 q -38 212 -46 196 q -14 235 -31 228 q 115 281 49 257 q 239 327 182 306 q 332 363 296 349 q 368 376 368 376 q 382 378 375 378 q 394 376 389 379 q 422 354 414 374 q 428 326 429 343 q 421 276 428 308 q 410 237 417 258 q 394 188 404 215 q 392 178 393 182 q 389 168 390 174 q 525 232 444 199 q 556 233 540 239 q 578 211 572 226 q 579 179 586 196 q 557 156 572 163 q 445 103 494 128 q 367 63 396 78 q 338 47 338 47 q 317 40 329 40 z "},"ñ":{"ha":818,"x_min":-46,"x_max":860,"o":"m 488 54 q 469 57 478 54 q 432 89 443 63 q 437 142 424 113 q 472 207 450 171 q 488 233 481 219 q 501 257 496 246 q 506 265 504 261 q 508 271 507 268 q 412 274 467 278 q 289 253 357 271 q 160 213 229 238 q 15 156 92 189 q -15 156 0 150 q -37 176 -31 161 q -39 209 -46 192 q -17 232 -32 226 q 133 292 61 267 q 268 333 204 318 q 547 347 439 376 q 592 308 579 339 q 586 240 604 278 q 543 163 568 203 q 539 156 542 160 q 533 146 536 151 q 628 174 565 153 q 800 235 690 194 q 831 233 815 240 q 853 208 847 225 q 853 177 860 193 q 828 154 846 161 q 711 114 764 132 q 617 83 658 96 q 532 60 561 67 q 488 54 503 54 z "},"ń":{"ha":382,"x_min":-43,"x_max":431,"o":"m 185 82 q 174 83 178 82 q 142 101 151 89 q 131 119 133 113 q 138 183 121 150 q 181 251 154 215 q 197 276 189 263 q 210 299 204 289 q 214 304 211 300 q 194 296 206 301 q 167 279 182 290 q 114 240 142 264 q 57 189 86 215 q 42 176 50 183 q 28 163 35 169 q -2 152 15 151 q -31 167 -19 153 q -42 197 -43 179 q -28 225 -40 214 q -13 239 -21 232 q 1 251 -6 246 q 89 326 46 292 q 174 378 132 360 q 254 385 215 396 q 288 366 278 379 q 300 343 299 353 q 294 278 313 313 q 249 204 276 244 q 242 195 246 201 q 235 183 239 189 q 289 204 256 192 q 369 235 322 217 q 403 233 388 240 q 424 208 418 225 q 423 177 431 193 q 400 154 415 161 q 319 126 356 139 q 258 104 283 114 q 234 95 244 99 q 215 89 224 92 q 199 84 206 86 q 185 82 192 82 z "},"ņ":{"ha":540,"x_min":-46,"x_max":586,"o":"m 317 40 q 289 50 300 40 q 276 96 267 68 q 287 129 276 97 q 311 201 297 161 q 324 242 318 225 q 333 274 329 260 q 242 240 296 260 q 128 197 188 219 q 14 154 69 175 q -17 156 -1 149 q -40 181 -33 164 q -38 212 -46 196 q -14 235 -31 228 q 115 281 49 257 q 239 327 182 306 q 332 363 296 349 q 368 376 368 376 q 382 378 375 378 q 394 376 389 379 q 422 354 414 374 q 428 326 429 343 q 421 276 428 308 q 410 237 417 258 q 394 188 404 215 q 392 178 393 182 q 389 168 390 174 q 525 232 444 199 q 556 233 540 239 q 578 211 572 226 q 579 179 586 196 q 557 156 572 163 q 445 103 494 128 q 367 63 396 78 q 338 47 338 47 q 317 40 329 40 z "},"ň":{"ha":540,"x_min":-46,"x_max":586,"o":"m 317 40 q 289 50 300 40 q 276 96 267 68 q 287 129 276 97 q 311 201 297 161 q 324 242 318 225 q 333 274 329 260 q 242 240 296 260 q 128 197 188 219 q 14 154 69 175 q -17 156 -1 149 q -40 181 -33 164 q -38 212 -46 196 q -14 235 -31 228 q 115 281 49 257 q 239 327 182 306 q 332 363 296 349 q 368 376 368 376 q 382 378 375 378 q 394 376 389 379 q 422 354 414 374 q 428 326 429 343 q 421 276 428 308 q 410 237 417 258 q 394 188 404 215 q 392 178 393 182 q 389 168 390 174 q 525 232 444 199 q 556 233 540 239 q 578 211 572 226 q 579 179 586 196 q 557 156 572 163 q 445 103 494 128 q 367 63 396 78 q 338 47 338 47 q 317 40 329 40 z "},"o":{"ha":540,"x_min":-46,"x_max":586,"o":"m 317 40 q 289 50 300 40 q 276 96 267 68 q 287 129 276 97 q 311 201 297 161 q 324 242 318 225 q 333 274 329 260 q 242 240 296 260 q 128 197 188 219 q 14 154 69 175 q -17 156 -1 149 q -40 181 -33 164 q -38 212 -46 196 q -14 235 -31 228 q 115 281 49 257 q 239 327 182 306 q 332 363 296 349 q 368 376 368 376 q 382 378 375 378 q 394 376 389 379 q 422 354 414 374 q 428 326 429 343 q 421 276 428 308 q 410 237 417 258 q 394 188 404 215 q 392 178 393 182 q 389 168 390 174 q 525 232 444 199 q 556 233 540 239 q 578 211 572 226 q 579 179 586 196 q 557 156 572 163 q 445 103 494 128 q 367 63 396 78 q 338 47 338 47 q 317 40 329 40 z "},"ò":{"ha":818,"x_min":-46,"x_max":860,"o":"m 488 54 q 469 57 478 54 q 432 89 443 63 q 437 142 424 113 q 472 207 450 171 q 488 233 481 219 q 501 257 496 246 q 506 265 504 261 q 508 271 507 268 q 412 274 467 278 q 289 253 357 271 q 160 213 229 238 q 15 156 92 189 q -15 156 0 150 q -37 176 -31 161 q -39 209 -46 192 q -17 232 -32 226 q 133 292 61 267 q 268 333 204 318 q 547 347 439 376 q 592 308 579 339 q 586 240 604 278 q 543 163 568 203 q 539 156 542 160 q 533 146 536 151 q 628 174 565 153 q 800 235 690 194 q 831 233 815 240 q 853 208 847 225 q 853 177 860 193 q 828 154 846 161 q 711 114 764 132 q 617 83 658 96 q 532 60 561 67 q 488 54 503 54 z "},"ó":{"ha":818,"x_min":-46,"x_max":860,"o":"m 488 54 q 469 57 478 54 q 432 89 443 63 q 437 142 424 113 q 472 207 450 171 q 488 233 481 219 q 501 257 496 246 q 506 265 504 261 q 508 271 507 268 q 412 274 467 278 q 289 253 357 271 q 160 213 229 238 q 15 156 92 189 q -15 156 0 150 q -37 176 -31 161 q -39 209 -46 192 q -17 232 -32 226 q 133 292 61 267 q 268 333 204 318 q 547 347 439 376 q 592 308 579 339 q 586 240 604 278 q 543 163 568 203 q 539 156 542 160 q 533 146 536 151 q 628 174 565 153 q 800 235 690 194 q 831 233 815 240 q 853 208 847 225 q 853 177 860 193 q 828 154 846 161 q 711 114 764 132 q 617 83 658 96 q 532 60 561 67 q 488 54 503 54 z "},"ô":{"ha":818,"x_min":-46,"x_max":860,"o":"m 488 54 q 469 57 478 54 q 432 89 443 63 q 437 142 424 113 q 472 207 450 171 q 488 233 481 219 q 501 257 496 246 q 506 265 504 261 q 508 271 507 268 q 412 274 467 278 q 289 253 357 271 q 160 213 229 238 q 15 156 92 189 q -15 156 0 150 q -37 176 -31 161 q -39 209 -46 192 q -17 232 -32 226 q 133 292 61 267 q 268 333 204 318 q 547 347 439 376 q 592 308 579 339 q 586 240 604 278 q 543 163 568 203 q 539 156 542 160 q 533 146 536 151 q 628 174 565 153 q 800 235 690 194 q 831 233 815 240 q 853 208 847 225 q 853 177 860 193 q 828 154 846 161 q 711 114 764 132 q 617 83 658 96 q 532 60 561 67 q 488 54 503 54 z "},"õ":{"ha":818,"x_min":-46,"x_max":860,"o":"m 488 54 q 469 57 478 54 q 432 89 443 63 q 437 142 424 113 q 472 207 450 171 q 488 233 481 219 q 501 257 496 246 q 506 265 504 261 q 508 271 507 268 q 412 274 467 278 q 289 253 357 271 q 160 213 229 238 q 15 156 92 189 q -15 156 0 150 q -37 176 -31 161 q -39 209 -46 192 q -17 232 -32 226 q 133 292 61 267 q 268 333 204 318 q 547 347 439 376 q 592 308 579 339 q 586 240 604 278 q 543 163 568 203 q 539 156 542 160 q 533 146 536 151 q 628 174 565 153 q 800 235 690 194 q 831 233 815 240 q 853 208 847 225 q 853 177 860 193 q 828 154 846 161 q 711 114 764 132 q 617 83 658 96 q 532 60 561 67 q 488 54 503 54 z "},"ö":{"ha":542,"x_min":-46,"x_max":585,"o":"m 175 -42 q 161 -41 168 -42 q 146 -39 154 -40 q 118 -15 129 -33 q 113 15 113 -4 q 125 79 113 35 q 165 211 138 124 q 95 185 135 200 q 14 154 56 169 q -17 156 -1 149 q -40 181 -33 164 q -38 212 -46 196 q -14 235 -31 228 q 98 276 46 257 q 183 308 150 296 q 217 321 217 321 q 243 322 231 326 q 269 301 261 318 q 274 279 276 289 q 269 258 272 269 q 265 247 267 253 q 261 232 264 240 q 241 174 251 208 q 219 106 231 140 q 208 72 213 86 q 201 47 204 58 q 278 79 228 53 q 370 134 321 103 q 471 200 419 165 q 494 214 482 207 q 515 229 506 221 q 548 235 531 239 q 575 217 565 232 q 581 186 585 203 q 563 160 578 169 q 540 144 551 151 q 515 128 528 136 q 413 61 463 93 q 318 6 363 29 q 175 -42 228 -42 z "},"ō":{"ha":818,"x_min":-46,"x_max":860,"o":"m 488 54 q 469 57 478 54 q 432 89 443 63 q 437 142 424 113 q 472 207 450 171 q 488 233 481 219 q 501 257 496 246 q 506 265 504 261 q 508 271 507 268 q 412 274 467 278 q 289 253 357 271 q 160 213 229 238 q 15 156 92 189 q -15 156 0 150 q -37 176 -31 161 q -39 209 -46 192 q -17 232 -32 226 q 133 292 61 267 q 268 333 204 318 q 547 347 439 376 q 592 308 579 339 q 586 240 604 278 q 543 163 568 203 q 539 156 542 160 q 533 146 536 151 q 628 174 565 153 q 800 235 690 194 q 831 233 815 240 q 853 208 847 225 q 853 177 860 193 q 828 154 846 161 q 711 114 764 132 q 617 83 658 96 q 532 60 561 67 q 488 54 503 54 z "},"ő":{"ha":818,"x_min":-46,"x_max":860,"o":"m 488 54 q 469 57 478 54 q 432 89 443 63 q 437 142 424 113 q 472 207 450 171 q 488 233 481 219 q 501 257 496 246 q 506 265 504 261 q 508 271 507 268 q 412 274 467 278 q 289 253 357 271 q 160 213 229 238 q 15 156 92 189 q -15 156 0 150 q -37 176 -31 161 q -39 209 -46 192 q -17 232 -32 226 q 133 292 61 267 q 268 333 204 318 q 547 347 439 376 q 592 308 579 339 q 586 240 604 278 q 543 163 568 203 q 539 156 542 160 q 533 146 536 151 q 628 174 565 153 q 800 235 690 194 q 831 233 815 240 q 853 208 847 225 q 853 177 860 193 q 828 154 846 161 q 711 114 764 132 q 617 83 658 96 q 532 60 561 67 q 488 54 503 54 z "},"p":{"ha":818,"x_min":-46,"x_max":860,"o":"m 488 54 q 469 57 478 54 q 432 89 443 63 q 437 142 424 113 q 472 207 450 171 q 488 233 481 219 q 501 257 496 246 q 506 265 504 261 q 508 271 507 268 q 412 274 467 278 q 289 253 357 271 q 160 213 229 238 q 15 156 92 189 q -15 156 0 150 q -37 176 -31 161 q -39 209 -46 192 q -17 232 -32 226 q 133 292 61 267 q 268 333 204 318 q 547 347 439 376 q 592 308 579 339 q 586 240 604 278 q 543 163 568 203 q 539 156 542 160 q 533 146 536 151 q 628 174 565 153 q 800 235 690 194 q 831 233 815 240 q 853 208 847 225 q 853 177 860 193 q 828 154 846 161 q 711 114 764 132 q 617 83 658 96 q 532 60 561 67 q 488 54 503 54 z "},"q":{"ha":818,"x_min":-46,"x_max":860,"o":"m 488 54 q 469 57 478 54 q 432 89 443 63 q 437 142 424 113 q 472 207 450 171 q 488 233 481 219 q 501 257 496 246 q 506 265 504 261 q 508 271 507 268 q 412 274 467 278 q 289 253 357 271 q 160 213 229 238 q 15 156 92 189 q -15 156 0 150 q -37 176 -31 161 q -39 209 -46 192 q -17 232 -32 226 q 133 292 61 267 q 268 333 204 318 q 547 347 439 376 q 592 308 579 339 q 586 240 604 278 q 543 163 568 203 q 539 156 542 160 q 533 146 536 151 q 628 174 565 153 q 800 235 690 194 q 831 233 815 240 q 853 208 847 225 q 853 177 860 193 q 828 154 846 161 q 711 114 764 132 q 617 83 658 96 q 532 60 561 67 q 488 54 503 54 z "},"r":{"ha":818,"x_min":-46,"x_max":860,"o":"m 488 54 q 469 57 478 54 q 432 89 443 63 q 437 142 424 113 q 472 207 450 171 q 488 233 481 219 q 501 257 496 246 q 506 265 504 261 q 508 271 507 268 q 412 274 467 278 q 289 253 357 271 q 160 213 229 238 q 15 156 92 189 q -15 156 0 150 q -37 176 -31 161 q -39 209 -46 192 q -17 232 -32 226 q 133 292 61 267 q 268 333 204 318 q 547 347 439 376 q 592 308 579 339 q 586 240 604 278 q 543 163 568 203 q 539 156 542 160 q 533 146 536 151 q 628 174 565 153 q 800 235 690 194 q 831 233 815 240 q 853 208 847 225 q 853 177 860 193 q 828 154 846 161 q 711 114 764 132 q 617 83 658 96 q 532 60 561 67 q 488 54 503 54 z "},"ŕ":{"ha":542,"x_min":-46,"x_max":585,"o":"m 175 -42 q 161 -41 168 -42 q 146 -39 154 -40 q 118 -15 129 -33 q 113 15 113 -4 q 125 79 113 35 q 165 211 138 124 q 95 185 135 200 q 14 154 56 169 q -17 156 -1 149 q -40 181 -33 164 q -38 212 -46 196 q -14 235 -31 228 q 98 276 46 257 q 183 308 150 296 q 217 321 217 321 q 243 322 231 326 q 269 301 261 318 q 274 279 276 289 q 269 258 272 269 q 265 247 267 253 q 261 232 264 240 q 241 174 251 208 q 219 106 231 140 q 208 72 213 86 q 201 47 204 58 q 278 79 228 53 q 370 134 321 103 q 471 200 419 165 q 494 214 482 207 q 515 229 506 221 q 548 235 531 239 q 575 217 565 232 q 581 186 585 203 q 563 160 578 169 q 540 144 551 151 q 515 128 528 136 q 413 61 463 93 q 318 6 363 29 q 175 -42 228 -42 z "},"ŗ":{"ha":542,"x_min":-46,"x_max":585,"o":"m 175 -42 q 161 -41 168 -42 q 146 -39 154 -40 q 118 -15 129 -33 q 113 15 113 -4 q 125 79 113 35 q 165 211 138 124 q 95 185 135 200 q 14 154 56 169 q -17 156 -1 149 q -40 181 -33 164 q -38 212 -46 196 q -14 235 -31 228 q 98 276 46 257 q 183 308 150 296 q 217 321 217 321 q 243 322 231 326 q 269 301 261 318 q 274 279 276 289 q 269 258 272 269 q 265 247 267 253 q 261 232 264 240 q 241 174 251 208 q 219 106 231 140 q 208 72 213 86 q 201 47 204 58 q 278 79 228 53 q 370 134 321 103 q 471 200 419 165 q 494 214 482 207 q 515 229 506 221 q 548 235 531 239 q 575 217 565 232 q 581 186 585 203 q 563 160 578 169 q 540 144 551 151 q 515 128 528 136 q 413 61 463 93 q 318 6 363 29 q 175 -42 228 -42 z "},"ř":{"ha":542,"x_min":-46,"x_max":585,"o":"m 175 -42 q 161 -41 168 -42 q 146 -39 154 -40 q 118 -15 129 -33 q 113 15 113 -4 q 125 79 113 35 q 165 211 138 124 q 95 185 135 200 q 14 154 56 169 q -17 156 -1 149 q -40 181 -33 164 q -38 212 -46 196 q -14 235 -31 228 q 98 276 46 257 q 183 308 150 296 q 217 321 217 321 q 243 322 231 326 q 269 301 261 318 q 274 279 276 289 q 269 258 272 269 q 265 247 267 253 q 261 232 264 240 q 241 174 251 208 q 219 106 231 140 q 208 72 213 86 q 201 47 204 58 q 278 79 228 53 q 370 134 321 103 q 471 200 419 165 q 494 214 482 207 q 515 229 506 221 q 548 235 531 239 q 575 217 565 232 q 581 186 585 203 q 563 160 578 169 q 540 144 551 151 q 515 128 528 136 q 413 61 463 93 q 318 6 363 29 q 175 -42 228 -42 z "},"s":{"ha":818,"x_min":-46,"x_max":860,"o":"m 488 54 q 469 57 478 54 q 432 89 443 63 q 437 142 424 113 q 472 207 450 171 q 488 233 481 219 q 501 257 496 246 q 506 265 504 261 q 508 271 507 268 q 412 274 467 278 q 289 253 357 271 q 160 213 229 238 q 15 156 92 189 q -15 156 0 150 q -37 176 -31 161 q -39 209 -46 192 q -17 232 -32 226 q 133 292 61 267 q 268 333 204 318 q 547 347 439 376 q 592 308 579 339 q 586 240 604 278 q 543 163 568 203 q 539 156 542 160 q 533 146 536 151 q 628 174 565 153 q 800 235 690 194 q 831 233 815 240 q 853 208 847 225 q 853 177 860 193 q 828 154 846 161 q 711 114 764 132 q 617 83 658 96 q 532 60 561 67 q 488 54 503 54 z "},"ś":{"ha":542,"x_min":-46,"x_max":585,"o":"m 175 -42 q 161 -41 168 -42 q 146 -39 154 -40 q 118 -15 129 -33 q 113 15 113 -4 q 125 79 113 35 q 165 211 138 124 q 95 185 135 200 q 14 154 56 169 q -17 156 -1 149 q -40 181 -33 164 q -38 212 -46 196 q -14 235 -31 228 q 98 276 46 257 q 183 308 150 296 q 217 321 217 321 q 243 322 231 326 q 269 301 261 318 q 274 279 276 289 q 269 258 272 269 q 265 247 267 253 q 261 232 264 240 q 241 174 251 208 q 219 106 231 140 q 208 72 213 86 q 201 47 204 58 q 278 79 228 53 q 370 134 321 103 q 471 200 419 165 q 494 214 482 207 q 515 229 506 221 q 548 235 531 239 q 575 217 565 232 q 581 186 585 203 q 563 160 578 169 q 540 144 551 151 q 515 128 528 136 q 413 61 463 93 q 318 6 363 29 q 175 -42 228 -42 z "},"ş":{"ha":739,"x_min":-43,"x_max":781,"o":"m 111 -39 q 92 -37 101 -39 q 72 -33 82 -35 q 38 -4 47 -26 q 38 63 25 24 q 82 165 51 103 q 94 190 88 176 q 106 217 100 204 q 67 194 88 210 q 26 161 47 178 q -5 153 13 151 q -33 168 -22 156 q -41 199 -43 182 q -26 228 -39 215 q 15 258 -7 242 q 58 286 36 275 q 163 301 115 315 q 196 274 185 297 q 195 218 207 251 q 156 128 183 185 q 141 94 149 111 q 126 63 133 78 q 123 53 125 57 q 119 44 121 49 q 205 74 149 49 q 357 176 261 100 q 450 255 408 217 q 517 318 492 293 q 542 343 542 343 q 582 356 558 363 q 600 347 593 354 q 611 332 607 339 q 613 287 621 313 q 582 204 606 261 q 566 168 574 186 q 551 135 558 150 q 549 126 550 129 q 547 119 549 122 q 603 142 574 124 q 662 185 633 161 q 710 225 690 208 q 740 236 724 238 q 769 222 757 235 q 780 192 781 208 q 765 163 779 175 q 677 92 722 125 q 587 42 632 58 q 496 38 542 26 q 464 65 474 47 q 459 108 456 85 q 475 167 463 132 q 444 140 460 153 q 410 113 428 128 q 111 -39 218 -39 z "},"š":{"ha":818,"x_min":-46,"x_max":860,"o":"m 488 54 q 469 57 478 54 q 432 89 443 63 q 437 142 424 113 q 472 207 450 171 q 488 233 481 219 q 501 257 496 246 q 506 265 504 261 q 508 271 507 268 q 412 274 467 278 q 289 253 357 271 q 160 213 229 238 q 15 156 92 189 q -15 156 0 150 q -37 176 -31 161 q -39 209 -46 192 q -17 232 -32 226 q 133 292 61 267 q 268 333 204 318 q 547 347 439 376 q 592 308 579 339 q 586 240 604 278 q 543 163 568 203 q 539 156 542 160 q 533 146 536 151 q 628 174 565 153 q 800 235 690 194 q 831 233 815 240 q 853 208 847 225 q 853 177 860 193 q 828 154 846 161 q 711 114 764 132 q 617 83 658 96 q 532 60 561 67 q 488 54 503 54 z "},"ș":{"ha":542,"x_min":-46,"x_max":585,"o":"m 175 -42 q 161 -41 168 -42 q 146 -39 154 -40 q 118 -15 129 -33 q 113 15 113 -4 q 125 79 113 35 q 165 211 138 124 q 95 185 135 200 q 14 154 56 169 q -17 156 -1 149 q -40 181 -33 164 q -38 212 -46 196 q -14 235 -31 228 q 98 276 46 257 q 183 308 150 296 q 217 321 217 321 q 243 322 231 326 q 269 301 261 318 q 274 279 276 289 q 269 258 272 269 q 265 247 267 253 q 261 232 264 240 q 241 174 251 208 q 219 106 231 140 q 208 72 213 86 q 201 47 204 58 q 278 79 228 53 q 370 134 321 103 q 471 200 419 165 q 494 214 482 207 q 515 229 506 221 q 548 235 531 239 q 575 217 565 232 q 581 186 585 203 q 563 160 578 169 q 540 144 551 151 q 515 128 528 136 q 413 61 463 93 q 318 6 363 29 q 175 -42 228 -42 z "},"t":{"ha":818,"x_min":-46,"x_max":860,"o":"m 488 54 q 469 57 478 54 q 432 89 443 63 q 437 142 424 113 q 472 207 450 171 q 488 233 481 219 q 501 257 496 246 q 506 265 504 261 q 508 271 507 268 q 412 274 467 278 q 289 253 357 271 q 160 213 229 238 q 15 156 92 189 q -15 156 0 150 q -37 176 -31 161 q -39 209 -46 192 q -17 232 -32 226 q 133 292 61 267 q 268 333 204 318 q 547 347 439 376 q 592 308 579 339 q 586 240 604 278 q 543 163 568 203 q 539 156 542 160 q 533 146 536 151 q 628 174 565 153 q 800 235 690 194 q 831 233 815 240 q 853 208 847 225 q 853 177 860 193 q 828 154 846 161 q 711 114 764 132 q 617 83 658 96 q 532 60 561 67 q 488 54 503 54 z "},"ţ":{"ha":739,"x_min":-43,"x_max":781,"o":"m 111 -39 q 92 -37 101 -39 q 72 -33 82 -35 q 38 -4 47 -26 q 38 63 25 24 q 82 165 51 103 q 94 190 88 176 q 106 217 100 204 q 67 194 88 210 q 26 161 47 178 q -5 153 13 151 q -33 168 -22 156 q -41 199 -43 182 q -26 228 -39 215 q 15 258 -7 242 q 58 286 36 275 q 163 301 115 315 q 196 274 185 297 q 195 218 207 251 q 156 128 183 185 q 141 94 149 111 q 126 63 133 78 q 123 53 125 57 q 119 44 121 49 q 205 74 149 49 q 357 176 261 100 q 450 255 408 217 q 517 318 492 293 q 542 343 542 343 q 582 356 558 363 q 600 347 593 354 q 611 332 607 339 q 613 287 621 313 q 582 204 606 261 q 566 168 574 186 q 551 135 558 150 q 549 126 550 129 q 547 119 549 122 q 603 142 574 124 q 662 185 633 161 q 710 225 690 208 q 740 236 724 238 q 769 222 757 235 q 780 192 781 208 q 765 163 779 175 q 677 92 722 125 q 587 42 632 58 q 496 38 542 26 q 464 65 474 47 q 459 108 456 85 q 475 167 463 132 q 444 140 460 153 q 410 113 428 128 q 111 -39 218 -39 z "},"ť":{"ha":739,"x_min":-43,"x_max":781,"o":"m 111 -39 q 92 -37 101 -39 q 72 -33 82 -35 q 38 -4 47 -26 q 38 63 25 24 q 82 165 51 103 q 94 190 88 176 q 106 217 100 204 q 67 194 88 210 q 26 161 47 178 q -5 153 13 151 q -33 168 -22 156 q -41 199 -43 182 q -26 228 -39 215 q 15 258 -7 242 q 58 286 36 275 q 163 301 115 315 q 196 274 185 297 q 195 218 207 251 q 156 128 183 185 q 141 94 149 111 q 126 63 133 78 q 123 53 125 57 q 119 44 121 49 q 205 74 149 49 q 357 176 261 100 q 450 255 408 217 q 517 318 492 293 q 542 343 542 343 q 582 356 558 363 q 600 347 593 354 q 611 332 607 339 q 613 287 621 313 q 582 204 606 261 q 566 168 574 186 q 551 135 558 150 q 549 126 550 129 q 547 119 549 122 q 603 142 574 124 q 662 185 633 161 q 710 225 690 208 q 740 236 724 238 q 769 222 757 235 q 780 192 781 208 q 765 163 779 175 q 677 92 722 125 q 587 42 632 58 q 496 38 542 26 q 464 65 474 47 q 459 108 456 85 q 475 167 463 132 q 444 140 460 153 q 410 113 428 128 q 111 -39 218 -39 z "},"ț":{"ha":542,"x_min":-46,"x_max":585,"o":"m 175 -42 q 161 -41 168 -42 q 146 -39 154 -40 q 118 -15 129 -33 q 113 15 113 -4 q 125 79 113 35 q 165 211 138 124 q 95 185 135 200 q 14 154 56 169 q -17 156 -1 149 q -40 181 -33 164 q -38 212 -46 196 q -14 235 -31 228 q 98 276 46 257 q 183 308 150 296 q 217 321 217 321 q 243 322 231 326 q 269 301 261 318 q 274 279 276 289 q 269 258 272 269 q 265 247 267 253 q 261 232 264 240 q 241 174 251 208 q 219 106 231 140 q 208 72 213 86 q 201 47 204 58 q 278 79 228 53 q 370 134 321 103 q 471 200 419 165 q 494 214 482 207 q 515 229 506 221 q 548 235 531 239 q 575 217 565 232 q 581 186 585 203 q 563 160 578 169 q 540 144 551 151 q 515 128 528 136 q 413 61 463 93 q 318 6 363 29 q 175 -42 228 -42 z "},"u":{"ha":542,"x_min":-46,"x_max":585,"o":"m 175 -42 q 161 -41 168 -42 q 146 -39 154 -40 q 118 -15 129 -33 q 113 15 113 -4 q 125 79 113 35 q 165 211 138 124 q 95 185 135 200 q 14 154 56 169 q -17 156 -1 149 q -40 181 -33 164 q -38 212 -46 196 q -14 235 -31 228 q 98 276 46 257 q 183 308 150 296 q 217 321 217 321 q 243 322 231 326 q 269 301 261 318 q 274 279 276 289 q 269 258 272 269 q 265 247 267 253 q 261 232 264 240 q 241 174 251 208 q 219 106 231 140 q 208 72 213 86 q 201 47 204 58 q 278 79 228 53 q 370 134 321 103 q 471 200 419 165 q 494 214 482 207 q 515 229 506 221 q 548 235 531 239 q 575 217 565 232 q 581 186 585 203 q 563 160 578 169 q 540 144 551 151 q 515 128 528 136 q 413 61 463 93 q 318 6 363 29 q 175 -42 228 -42 z "},"ù":{"ha":542,"x_min":-46,"x_max":585,"o":"m 175 -42 q 161 -41 168 -42 q 146 -39 154 -40 q 118 -15 129 -33 q 113 15 113 -4 q 125 79 113 35 q 165 211 138 124 q 95 185 135 200 q 14 154 56 169 q -17 156 -1 149 q -40 181 -33 164 q -38 212 -46 196 q -14 235 -31 228 q 98 276 46 257 q 183 308 150 296 q 217 321 217 321 q 243 322 231 326 q 269 301 261 318 q 274 279 276 289 q 269 258 272 269 q 265 247 267 253 q 261 232 264 240 q 241 174 251 208 q 219 106 231 140 q 208 72 213 86 q 201 47 204 58 q 278 79 228 53 q 370 134 321 103 q 471 200 419 165 q 494 214 482 207 q 515 229 506 221 q 548 235 531 239 q 575 217 565 232 q 581 186 585 203 q 563 160 578 169 q 540 144 551 151 q 515 128 528 136 q 413 61 463 93 q 318 6 363 29 q 175 -42 228 -42 z "},"ú":{"ha":542,"x_min":-46,"x_max":585,"o":"m 175 -42 q 161 -41 168 -42 q 146 -39 154 -40 q 118 -15 129 -33 q 113 15 113 -4 q 125 79 113 35 q 165 211 138 124 q 95 185 135 200 q 14 154 56 169 q -17 156 -1 149 q -40 181 -33 164 q -38 212 -46 196 q -14 235 -31 228 q 98 276 46 257 q 183 308 150 296 q 217 321 217 321 q 243 322 231 326 q 269 301 261 318 q 274 279 276 289 q 269 258 272 269 q 265 247 267 253 q 261 232 264 240 q 241 174 251 208 q 219 106 231 140 q 208 72 213 86 q 201 47 204 58 q 278 79 228 53 q 370 134 321 103 q 471 200 419 165 q 494 214 482 207 q 515 229 506 221 q 548 235 531 239 q 575 217 565 232 q 581 186 585 203 q 563 160 578 169 q 540 144 551 151 q 515 128 528 136 q 413 61 463 93 q 318 6 363 29 q 175 -42 228 -42 z "},"û":{"ha":542,"x_min":-46,"x_max":585,"o":"m 175 -42 q 161 -41 168 -42 q 146 -39 154 -40 q 118 -15 129 -33 q 113 15 113 -4 q 125 79 113 35 q 165 211 138 124 q 95 185 135 200 q 14 154 56 169 q -17 156 -1 149 q -40 181 -33 164 q -38 212 -46 196 q -14 235 -31 228 q 98 276 46 257 q 183 308 150 296 q 217 321 217 321 q 243 322 231 326 q 269 301 261 318 q 274 279 276 289 q 269 258 272 269 q 265 247 267 253 q 261 232 264 240 q 241 174 251 208 q 219 106 231 140 q 208 72 213 86 q 201 47 204 58 q 278 79 228 53 q 370 134 321 103 q 471 200 419 165 q 494 214 482 207 q 515 229 506 221 q 548 235 531 239 q 575 217 565 232 q 581 186 585 203 q 563 160 578 169 q 540 144 551 151 q 515 128 528 136 q 413 61 463 93 q 318 6 363 29 q 175 -42 228 -42 z "},"ü":{"ha":540,"x_min":-46,"x_max":586,"o":"m 317 40 q 289 50 300 40 q 276 96 267 68 q 287 129 276 97 q 311 201 297 161 q 324 242 318 225 q 333 274 329 260 q 242 240 296 260 q 128 197 188 219 q 14 154 69 175 q -17 156 -1 149 q -40 181 -33 164 q -38 212 -46 196 q -14 235 -31 228 q 115 281 49 257 q 239 327 182 306 q 332 363 296 349 q 368 376 368 376 q 382 378 375 378 q 394 376 389 379 q 422 354 414 374 q 428 326 429 343 q 421 276 428 308 q 410 237 417 258 q 394 188 404 215 q 392 178 393 182 q 389 168 390 174 q 525 232 444 199 q 556 233 540 239 q 578 211 572 226 q 579 179 586 196 q 557 156 572 163 q 445 103 494 128 q 367 63 396 78 q 338 47 338 47 q 317 40 329 40 z "},"ū":{"ha":382,"x_min":-43,"x_max":431,"o":"m 185 82 q 174 83 178 82 q 142 101 151 89 q 131 119 133 113 q 138 183 121 150 q 181 251 154 215 q 197 276 189 263 q 210 299 204 289 q 214 304 211 300 q 194 296 206 301 q 167 279 182 290 q 114 240 142 264 q 57 189 86 215 q 42 176 50 183 q 28 163 35 169 q -2 152 15 151 q -31 167 -19 153 q -42 197 -43 179 q -28 225 -40 214 q -13 239 -21 232 q 1 251 -6 246 q 89 326 46 292 q 174 378 132 360 q 254 385 215 396 q 288 366 278 379 q 300 343 299 353 q 294 278 313 313 q 249 204 276 244 q 242 195 246 201 q 235 183 239 189 q 289 204 256 192 q 369 235 322 217 q 403 233 388 240 q 424 208 418 225 q 423 177 431 193 q 400 154 415 161 q 319 126 356 139 q 258 104 283 114 q 234 95 244 99 q 215 89 224 92 q 199 84 206 86 q 185 82 192 82 z "},"ů":{"ha":382,"x_min":-43,"x_max":431,"o":"m 185 82 q 174 83 178 82 q 142 101 151 89 q 131 119 133 113 q 138 183 121 150 q 181 251 154 215 q 197 276 189 263 q 210 299 204 289 q 214 304 211 300 q 194 296 206 301 q 167 279 182 290 q 114 240 142 264 q 57 189 86 215 q 42 176 50 183 q 28 163 35 169 q -2 152 15 151 q -31 167 -19 153 q -42 197 -43 179 q -28 225 -40 214 q -13 239 -21 232 q 1 251 -6 246 q 89 326 46 292 q 174 378 132 360 q 254 385 215 396 q 288 366 278 379 q 300 343 299 353 q 294 278 313 313 q 249 204 276 244 q 242 195 246 201 q 235 183 239 189 q 289 204 256 192 q 369 235 322 217 q 403 233 388 240 q 424 208 418 225 q 423 177 431 193 q 400 154 415 161 q 319 126 356 139 q 258 104 283 114 q 234 95 244 99 q 215 89 224 92 q 199 84 206 86 q 185 82 192 82 z "},"ű":{"ha":382,"x_min":-43,"x_max":431,"o":"m 185 82 q 174 83 178 82 q 142 101 151 89 q 131 119 133 113 q 138 183 121 150 q 181 251 154 215 q 197 276 189 263 q 210 299 204 289 q 214 304 211 300 q 194 296 206 301 q 167 279 182 290 q 114 240 142 264 q 57 189 86 215 q 42 176 50 183 q 28 163 35 169 q -2 152 15 151 q -31 167 -19 153 q -42 197 -43 179 q -28 225 -40 214 q -13 239 -21 232 q 1 251 -6 246 q 89 326 46 292 q 174 378 132 360 q 254 385 215 396 q 288 366 278 379 q 300 343 299 353 q 294 278 313 313 q 249 204 276 244 q 242 195 246 201 q 235 183 239 189 q 289 204 256 192 q 369 235 322 217 q 403 233 388 240 q 424 208 418 225 q 423 177 431 193 q 400 154 415 161 q 319 126 356 139 q 258 104 283 114 q 234 95 244 99 q 215 89 224 92 q 199 84 206 86 q 185 82 192 82 z "},"ų":{"ha":540,"x_min":-46,"x_max":586,"o":"m 317 40 q 289 50 300 40 q 276 96 267 68 q 287 129 276 97 q 311 201 297 161 q 324 242 318 225 q 333 274 329 260 q 242 240 296 260 q 128 197 188 219 q 14 154 69 175 q -17 156 -1 149 q -40 181 -33 164 q -38 212 -46 196 q -14 235 -31 228 q 115 281 49 257 q 239 327 182 306 q 332 363 296 349 q 368 376 368 376 q 382 378 375 378 q 394 376 389 379 q 422 354 414 374 q 428 326 429 343 q 421 276 428 308 q 410 237 417 258 q 394 188 404 215 q 392 178 393 182 q 389 168 390 174 q 525 232 444 199 q 556 233 540 239 q 578 211 572 226 q 579 179 586 196 q 557 156 572 163 q 445 103 494 128 q 367 63 396 78 q 338 47 338 47 q 317 40 329 40 z "},"v":{"ha":542,"x_min":-46,"x_max":585,"o":"m 175 -42 q 161 -41 168 -42 q 146 -39 154 -40 q 118 -15 129 -33 q 113 15 113 -4 q 125 79 113 35 q 165 211 138 124 q 95 185 135 200 q 14 154 56 169 q -17 156 -1 149 q -40 181 -33 164 q -38 212 -46 196 q -14 235 -31 228 q 98 276 46 257 q 183 308 150 296 q 217 321 217 321 q 243 322 231 326 q 269 301 261 318 q 274 279 276 289 q 269 258 272 269 q 265 247 267 253 q 261 232 264 240 q 241 174 251 208 q 219 106 231 140 q 208 72 213 86 q 201 47 204 58 q 278 79 228 53 q 370 134 321 103 q 471 200 419 165 q 494 214 482 207 q 515 229 506 221 q 548 235 531 239 q 575 217 565 232 q 581 186 585 203 q 563 160 578 169 q 540 144 551 151 q 515 128 528 136 q 413 61 463 93 q 318 6 363 29 q 175 -42 228 -42 z "},"w":{"ha":542,"x_min":-46,"x_max":585,"o":"m 175 -42 q 161 -41 168 -42 q 146 -39 154 -40 q 118 -15 129 -33 q 113 15 113 -4 q 125 79 113 35 q 165 211 138 124 q 95 185 135 200 q 14 154 56 169 q -17 156 -1 149 q -40 181 -33 164 q -38 212 -46 196 q -14 235 -31 228 q 98 276 46 257 q 183 308 150 296 q 217 321 217 321 q 243 322 231 326 q 269 301 261 318 q 274 279 276 289 q 269 258 272 269 q 265 247 267 253 q 261 232 264 240 q 241 174 251 208 q 219 106 231 140 q 208 72 213 86 q 201 47 204 58 q 278 79 228 53 q 370 134 321 103 q 471 200 419 165 q 494 214 482 207 q 515 229 506 221 q 548 235 531 239 q 575 217 565 232 q 581 186 585 203 q 563 160 578 169 q 540 144 551 151 q 515 128 528 136 q 413 61 463 93 q 318 6 363 29 q 175 -42 228 -42 z "},"x":{"ha":542,"x_min":-46,"x_max":585,"o":"m 175 -42 q 161 -41 168 -42 q 146 -39 154 -40 q 118 -15 129 -33 q 113 15 113 -4 q 125 79 113 35 q 165 211 138 124 q 95 185 135 200 q 14 154 56 169 q -17 156 -1 149 q -40 181 -33 164 q -38 212 -46 196 q -14 235 -31 228 q 98 276 46 257 q 183 308 150 296 q 217 321 217 321 q 243 322 231 326 q 269 301 261 318 q 274 279 276 289 q 269 258 272 269 q 265 247 267 253 q 261 232 264 240 q 241 174 251 208 q 219 106 231 140 q 208 72 213 86 q 201 47 204 58 q 278 79 228 53 q 370 134 321 103 q 471 200 419 165 q 494 214 482 207 q 515 229 506 221 q 548 235 531 239 q 575 217 565 232 q 581 186 585 203 q 563 160 578 169 q 540 144 551 151 q 515 128 528 136 q 413 61 463 93 q 318 6 363 29 q 175 -42 228 -42 z "},"y":{"ha":542,"x_min":-46,"x_max":585,"o":"m 175 -42 q 161 -41 168 -42 q 146 -39 154 -40 q 118 -15 129 -33 q 113 15 113 -4 q 125 79 113 35 q 165 211 138 124 q 95 185 135 200 q 14 154 56 169 q -17 156 -1 149 q -40 181 -33 164 q -38 212 -46 196 q -14 235 -31 228 q 98 276 46 257 q 183 308 150 296 q 217 321 217 321 q 243 322 231 326 q 269 301 261 318 q 274 279 276 289 q 269 258 272 269 q 265 247 267 253 q 261 232 264 240 q 241 174 251 208 q 219 106 231 140 q 208 72 213 86 q 201 47 204 58 q 278 79 228 53 q 370 134 321 103 q 471 200 419 165 q 494 214 482 207 q 515 229 506 221 q 548 235 531 239 q 575 217 565 232 q 581 186 585 203 q 563 160 578 169 q 540 144 551 151 q 515 128 528 136 q 413 61 463 93 q 318 6 363 29 q 175 -42 228 -42 z "},"ý":{"ha":542,"x_min":-46,"x_max":585,"o":"m 175 -42 q 161 -41 168 -42 q 146 -39 154 -40 q 118 -15 129 -33 q 113 15 113 -4 q 125 79 113 35 q 165 211 138 124 q 95 185 135 200 q 14 154 56 169 q -17 156 -1 149 q -40 181 -33 164 q -38 212 -46 196 q -14 235 -31 228 q 98 276 46 257 q 183 308 150 296 q 217 321 217 321 q 243 322 231 326 q 269 301 261 318 q 274 279 276 289 q 269 258 272 269 q 265 247 267 253 q 261 232 264 240 q 241 174 251 208 q 219 106 231 140 q 208 72 213 86 q 201 47 204 58 q 278 79 228 53 q 370 134 321 103 q 471 200 419 165 q 494 214 482 207 q 515 229 506 221 q 548 235 531 239 q 575 217 565 232 q 581 186 585 203 q 563 160 578 169 q 540 144 551 151 q 515 128 528 136 q 413 61 463 93 q 318 6 363 29 q 175 -42 228 -42 z "},"ÿ":{"ha":739,"x_min":-43,"x_max":781,"o":"m 111 -39 q 92 -37 101 -39 q 72 -33 82 -35 q 38 -4 47 -26 q 38 63 25 24 q 82 165 51 103 q 94 190 88 176 q 106 217 100 204 q 67 194 88 210 q 26 161 47 178 q -5 153 13 151 q -33 168 -22 156 q -41 199 -43 182 q -26 228 -39 215 q 15 258 -7 242 q 58 286 36 275 q 163 301 115 315 q 196 274 185 297 q 195 218 207 251 q 156 128 183 185 q 141 94 149 111 q 126 63 133 78 q 123 53 125 57 q 119 44 121 49 q 205 74 149 49 q 357 176 261 100 q 450 255 408 217 q 517 318 492 293 q 542 343 542 343 q 582 356 558 363 q 600 347 593 354 q 611 332 607 339 q 613 287 621 313 q 582 204 606 261 q 566 168 574 186 q 551 135 558 150 q 549 126 550 129 q 547 119 549 122 q 603 142 574 124 q 662 185 633 161 q 710 225 690 208 q 740 236 724 238 q 769 222 757 235 q 780 192 781 208 q 765 163 779 175 q 677 92 722 125 q 587 42 632 58 q 496 38 542 26 q 464 65 474 47 q 459 108 456 85 q 475 167 463 132 q 444 140 460 153 q 410 113 428 128 q 111 -39 218 -39 z "},"z":{"ha":542,"x_min":-46,"x_max":585,"o":"m 175 -42 q 161 -41 168 -42 q 146 -39 154 -40 q 118 -15 129 -33 q 113 15 113 -4 q 125 79 113 35 q 165 211 138 124 q 95 185 135 200 q 14 154 56 169 q -17 156 -1 149 q -40 181 -33 164 q -38 212 -46 196 q -14 235 -31 228 q 98 276 46 257 q 183 308 150 296 q 217 321 217 321 q 243 322 231 326 q 269 301 261 318 q 274 279 276 289 q 269 258 272 269 q 265 247 267 253 q 261 232 264 240 q 241 174 251 208 q 219 106 231 140 q 208 72 213 86 q 201 47 204 58 q 278 79 228 53 q 370 134 321 103 q 471 200 419 165 q 494 214 482 207 q 515 229 506 221 q 548 235 531 239 q 575 217 565 232 q 581 186 585 203 q 563 160 578 169 q 540 144 551 151 q 515 128 528 136 q 413 61 463 93 q 318 6 363 29 q 175 -42 228 -42 z "},"ź":{"ha":540,"x_min":-46,"x_max":586,"o":"m 317 40 q 289 50 300 40 q 276 96 267 68 q 287 129 276 97 q 311 201 297 161 q 324 242 318 225 q 333 274 329 260 q 242 240 296 260 q 128 197 188 219 q 14 154 69 175 q -17 156 -1 149 q -40 181 -33 164 q -38 212 -46 196 q -14 235 -31 228 q 115 281 49 257 q 239 327 182 306 q 332 363 296 349 q 368 376 368 376 q 382 378 375 378 q 394 376 389 379 q 422 354 414 374 q 428 326 429 343 q 421 276 428 308 q 410 237 417 258 q 394 188 404 215 q 392 178 393 182 q 389 168 390 174 q 525 232 444 199 q 556 233 540 239 q 578 211 572 226 q 579 179 586 196 q 557 156 572 163 q 445 103 494 128 q 367 63 396 78 q 338 47 338 47 q 317 40 329 40 z "},"ż":{"ha":818,"x_min":-46,"x_max":860,"o":"m 488 54 q 469 57 478 54 q 432 89 443 63 q 437 142 424 113 q 472 207 450 171 q 488 233 481 219 q 501 257 496 246 q 506 265 504 261 q 508 271 507 268 q 412 274 467 278 q 289 253 357 271 q 160 213 229 238 q 15 156 92 189 q -15 156 0 150 q -37 176 -31 161 q -39 209 -46 192 q -17 232 -32 226 q 133 292 61 267 q 268 333 204 318 q 547 347 439 376 q 592 308 579 339 q 586 240 604 278 q 543 163 568 203 q 539 156 542 160 q 533 146 536 151 q 628 174 565 153 q 800 235 690 194 q 831 233 815 240 q 853 208 847 225 q 853 177 860 193 q 828 154 846 161 q 711 114 764 132 q 617 83 658 96 q 532 60 561 67 q 488 54 503 54 z "},"ž":{"ha":818,"x_min":-46,"x_max":860,"o":"m 488 54 q 469 57 478 54 q 432 89 443 63 q 437 142 424 113 q 472 207 450 171 q 488 233 481 219 q 501 257 496 246 q 506 265 504 261 q 508 271 507 268 q 412 274 467 278 q 289 253 357 271 q 160 213 229 238 q 15 156 92 189 q -15 156 0 150 q -37 176 -31 161 q -39 209 -46 192 q -17 232 -32 226 q 133 292 61 267 q 268 333 204 318 q 547 347 439 376 q 592 308 579 339 q 586 240 604 278 q 543 163 568 203 q 539 156 542 160 q 533 146 536 151 q 628 174 565 153 q 800 235 690 194 q 831 233 815 240 q 853 208 847 225 q 853 177 860 193 q 828 154 846 161 q 711 114 764 132 q 617 83 658 96 q 532 60 561 67 q 488 54 503 54 z "},"ª":{"ha":382,"x_min":-43,"x_max":431,"o":"m 185 82 q 174 83 178 82 q 142 101 151 89 q 131 119 133 113 q 138 183 121 150 q 181 251 154 215 q 197 276 189 263 q 210 299 204 289 q 214 304 211 300 q 194 296 206 301 q 167 279 182 290 q 114 240 142 264 q 57 189 86 215 q 42 176 50 183 q 28 163 35 169 q -2 152 15 151 q -31 167 -19 153 q -42 197 -43 179 q -28 225 -40 214 q -13 239 -21 232 q 1 251 -6 246 q 89 326 46 292 q 174 378 132 360 q 254 385 215 396 q 288 366 278 379 q 300 343 299 353 q 294 278 313 313 q 249 204 276 244 q 242 195 246 201 q 235 183 239 189 q 289 204 256 192 q 369 235 322 217 q 403 233 388 240 q 424 208 418 225 q 423 177 431 193 q 400 154 415 161 q 319 126 356 139 q 258 104 283 114 q 234 95 244 99 q 215 89 224 92 q 199 84 206 86 q 185 82 192 82 z "},"º":{"ha":542,"x_min":-46,"x_max":585,"o":"m 175 -42 q 161 -41 168 -42 q 146 -39 154 -40 q 118 -15 129 -33 q 113 15 113 -4 q 125 79 113 35 q 165 211 138 124 q 95 185 135 200 q 14 154 56 169 q -17 156 -1 149 q -40 181 -33 164 q -38 212 -46 196 q -14 235 -31 228 q 98 276 46 257 q 183 308 150 296 q 217 321 217 321 q 243 322 231 326 q 269 301 261 318 q 274 279 276 289 q 269 258 272 269 q 265 247 267 253 q 261 232 264 240 q 241 174 251 208 q 219 106 231 140 q 208 72 213 86 q 201 47 204 58 q 278 79 228 53 q 370 134 321 103 q 471 200 419 165 q 494 214 482 207 q 515 229 506 221 q 548 235 531 239 q 575 217 565 232 q 581 186 585 203 q 563 160 578 169 q 540 144 551 151 q 515 128 528 136 q 413 61 463 93 q 318 6 363 29 q 175 -42 228 -42 z "},"ß":{"ha":739,"x_min":-43,"x_max":781,"o":"m 111 -39 q 92 -37 101 -39 q 72 -33 82 -35 q 38 -4 47 -26 q 38 63 25 24 q 82 165 51 103 q 94 190 88 176 q 106 217 100 204 q 67 194 88 210 q 26 161 47 178 q -5 153 13 151 q -33 168 -22 156 q -41 199 -43 182 q -26 228 -39 215 q 15 258 -7 242 q 58 286 36 275 q 163 301 115 315 q 196 274 185 297 q 195 218 207 251 q 156 128 183 185 q 141 94 149 111 q 126 63 133 78 q 123 53 125 57 q 119 44 121 49 q 205 74 149 49 q 357 176 261 100 q 450 255 408 217 q 517 318 492 293 q 542 343 542 343 q 582 356 558 363 q 600 347 593 354 q 611 332 607 339 q 613 287 621 313 q 582 204 606 261 q 566 168 574 186 q 551 135 558 150 q 549 126 550 129 q 547 119 549 122 q 603 142 574 124 q 662 185 633 161 q 710 225 690 208 q 740 236 724 238 q 769 222 757 235 q 780 192 781 208 q 765 163 779 175 q 677 92 722 125 q 587 42 632 58 q 496 38 542 26 q 464 65 474 47 q 459 108 456 85 q 475 167 463 132 q 444 140 460 153 q 410 113 428 128 q 111 -39 218 -39 z "},"æ":{"ha":739,"x_min":-43,"x_max":781,"o":"m 111 -39 q 92 -37 101 -39 q 72 -33 82 -35 q 38 -4 47 -26 q 38 63 25 24 q 82 165 51 103 q 94 190 88 176 q 106 217 100 204 q 67 194 88 210 q 26 161 47 178 q -5 153 13 151 q -33 168 -22 156 q -41 199 -43 182 q -26 228 -39 215 q 15 258 -7 242 q 58 286 36 275 q 163 301 115 315 q 196 274 185 297 q 195 218 207 251 q 156 128 183 185 q 141 94 149 111 q 126 63 133 78 q 123 53 125 57 q 119 44 121 49 q 205 74 149 49 q 357 176 261 100 q 450 255 408 217 q 517 318 492 293 q 542 343 542 343 q 582 356 558 363 q 600 347 593 354 q 611 332 607 339 q 613 287 621 313 q 582 204 606 261 q 566 168 574 186 q 551 135 558 150 q 549 126 550 129 q 547 119 549 122 q 603 142 574 124 q 662 185 633 161 q 710 225 690 208 q 740 236 724 238 q 769 222 757 235 q 780 192 781 208 q 765 163 779 175 q 677 92 722 125 q 587 42 632 58 q 496 38 542 26 q 464 65 474 47 q 459 108 456 85 q 475 167 463 132 q 444 140 460 153 q 410 113 428 128 q 111 -39 218 -39 z "},"ð":{"ha":540,"x_min":-46,"x_max":586,"o":"m 317 40 q 289 50 300 40 q 276 96 267 68 q 287 129 276 97 q 311 201 297 161 q 324 242 318 225 q 333 274 329 260 q 242 240 296 260 q 128 197 188 219 q 14 154 69 175 q -17 156 -1 149 q -40 181 -33 164 q -38 212 -46 196 q -14 235 -31 228 q 115 281 49 257 q 239 327 182 306 q 332 363 296 349 q 368 376 368 376 q 382 378 375 378 q 394 376 389 379 q 422 354 414 374 q 428 326 429 343 q 421 276 428 308 q 410 237 417 258 q 394 188 404 215 q 392 178 393 182 q 389 168 390 174 q 525 232 444 199 q 556 233 540 239 q 578 211 572 226 q 579 179 586 196 q 557 156 572 163 q 445 103 494 128 q 367 63 396 78 q 338 47 338 47 q 317 40 329 40 z "},"ø":{"ha":542,"x_min":-46,"x_max":585,"o":"m 175 -42 q 161 -41 168 -42 q 146 -39 154 -40 q 118 -15 129 -33 q 113 15 113 -4 q 125 79 113 35 q 165 211 138 124 q 95 185 135 200 q 14 154 56 169 q -17 156 -1 149 q -40 181 -33 164 q -38 212 -46 196 q -14 235 -31 228 q 98 276 46 257 q 183 308 150 296 q 217 321 217 321 q 243 322 231 326 q 269 301 261 318 q 274 279 276 289 q 269 258 272 269 q 265 247 267 253 q 261 232 264 240 q 241 174 251 208 q 219 106 231 140 q 208 72 213 86 q 201 47 204 58 q 278 79 228 53 q 370 134 321 103 q 471 200 419 165 q 494 214 482 207 q 515 229 506 221 q 548 235 531 239 q 575 217 565 232 q 581 186 585 203 q 563 160 578 169 q 540 144 551 151 q 515 128 528 136 q 413 61 463 93 q 318 6 363 29 q 175 -42 228 -42 z "},"þ":{"ha":818,"x_min":-46,"x_max":860,"o":"m 488 54 q 469 57 478 54 q 432 89 443 63 q 437 142 424 113 q 472 207 450 171 q 488 233 481 219 q 501 257 496 246 q 506 265 504 261 q 508 271 507 268 q 412 274 467 278 q 289 253 357 271 q 160 213 229 238 q 15 156 92 189 q -15 156 0 150 q -37 176 -31 161 q -39 209 -46 192 q -17 232 -32 226 q 133 292 61 267 q 268 333 204 318 q 547 347 439 376 q 592 308 579 339 q 586 240 604 278 q 543 163 568 203 q 539 156 542 160 q 533 146 536 151 q 628 174 565 153 q 800 235 690 194 q 831 233 815 240 q 853 208 847 225 q 853 177 860 193 q 828 154 846 161 q 711 114 764 132 q 617 83 658 96 q 532 60 561 67 q 488 54 503 54 z "},"đ":{"ha":540,"x_min":-46,"x_max":586,"o":"m 317 40 q 289 50 300 40 q 276 96 267 68 q 287 129 276 97 q 311 201 297 161 q 324 242 318 225 q 333 274 329 260 q 242 240 296 260 q 128 197 188 219 q 14 154 69 175 q -17 156 -1 149 q -40 181 -33 164 q -38 212 -46 196 q -14 235 -31 228 q 115 281 49 257 q 239 327 182 306 q 332 363 296 349 q 368 376 368 376 q 382 378 375 378 q 394 376 389 379 q 422 354 414 374 q 428 326 429 343 q 421 276 428 308 q 410 237 417 258 q 394 188 404 215 q 392 178 393 182 q 389 168 390 174 q 525 232 444 199 q 556 233 540 239 q 578 211 572 226 q 579 179 586 196 q 557 156 572 163 q 445 103 494 128 q 367 63 396 78 q 338 47 338 47 q 317 40 329 40 z "},"ı":{"ha":739,"x_min":-43,"x_max":781,"o":"m 111 -39 q 92 -37 101 -39 q 72 -33 82 -35 q 38 -4 47 -26 q 38 63 25 24 q 82 165 51 103 q 94 190 88 176 q 106 217 100 204 q 67 194 88 210 q 26 161 47 178 q -5 153 13 151 q -33 168 -22 156 q -41 199 -43 182 q -26 228 -39 215 q 15 258 -7 242 q 58 286 36 275 q 163 301 115 315 q 196 274 185 297 q 195 218 207 251 q 156 128 183 185 q 141 94 149 111 q 126 63 133 78 q 123 53 125 57 q 119 44 121 49 q 205 74 149 49 q 357 176 261 100 q 450 255 408 217 q 517 318 492 293 q 542 343 542 343 q 582 356 558 363 q 600 347 593 354 q 611 332 607 339 q 613 287 621 313 q 582 204 606 261 q 566 168 574 186 q 551 135 558 150 q 549 126 550 129 q 547 119 549 122 q 603 142 574 124 q 662 185 633 161 q 710 225 690 208 q 740 236 724 238 q 769 222 757 235 q 780 192 781 208 q 765 163 779 175 q 677 92 722 125 q 587 42 632 58 q 496 38 542 26 q 464 65 474 47 q 459 108 456 85 q 475 167 463 132 q 444 140 460 153 q 410 113 428 128 q 111 -39 218 -39 z "},"ł":{"ha":382,"x_min":-43,"x_max":431,"o":"m 185 82 q 174 83 178 82 q 142 101 151 89 q 131 119 133 113 q 138 183 121 150 q 181 251 154 215 q 197 276 189 263 q 210 299 204 289 q 214 304 211 300 q 194 296 206 301 q 167 279 182 290 q 114 240 142 264 q 57 189 86 215 q 42 176 50 183 q 28 163 35 169 q -2 152 15 151 q -31 167 -19 153 q -42 197 -43 179 q -28 225 -40 214 q -13 239 -21 232 q 1 251 -6 246 q 89 326 46 292 q 174 378 132 360 q 254 385 215 396 q 288 366 278 379 q 300 343 299 353 q 294 278 313 313 q 249 204 276 244 q 242 195 246 201 q 235 183 239 189 q 289 204 256 192 q 369 235 322 217 q 403 233 388 240 q 424 208 418 225 q 423 177 431 193 q 400 154 415 161 q 319 126 356 139 q 258 104 283 114 q 234 95 244 99 q 215 89 224 92 q 199 84 206 86 q 185 82 192 82 z "},"œ":{"ha":818,"x_min":-46,"x_max":860,"o":"m 488 54 q 469 57 478 54 q 432 89 443 63 q 437 142 424 113 q 472 207 450 171 q 488 233 481 219 q 501 257 496 246 q 506 265 504 261 q 508 271 507 268 q 412 274 467 278 q 289 253 357 271 q 160 213 229 238 q 15 156 92 189 q -15 156 0 150 q -37 176 -31 161 q -39 209 -46 192 q -17 232 -32 226 q 133 292 61 267 q 268 333 204 318 q 547 347 439 376 q 592 308 579 339 q 586 240 604 278 q 543 163 568 203 q 539 156 542 160 q 533 146 536 151 q 628 174 565 153 q 800 235 690 194 q 831 233 815 240 q 853 208 847 225 q 853 177 860 193 q 828 154 846 161 q 711 114 764 132 q 617 83 658 96 q 532 60 561 67 q 488 54 503 54 z "},"ƒ":{"ha":818,"x_min":-46,"x_max":860,"o":"m 488 54 q 469 57 478 54 q 432 89 443 63 q 437 142 424 113 q 472 207 450 171 q 488 233 481 219 q 501 257 496 246 q 506 265 504 261 q 508 271 507 268 q 412 274 467 278 q 289 253 357 271 q 160 213 229 238 q 15 156 92 189 q -15 156 0 150 q -37 176 -31 161 q -39 209 -46 192 q -17 232 -32 226 q 133 292 61 267 q 268 333 204 318 q 547 347 439 376 q 592 308 579 339 q 586 240 604 278 q 543 163 568 203 q 539 156 542 160 q 533 146 536 151 q 628 174 565 153 q 800 235 690 194 q 831 233 815 240 q 853 208 847 225 q 853 177 860 193 q 828 154 846 161 q 711 114 764 132 q 617 83 658 96 q 532 60 561 67 q 488 54 503 54 z "},"ﬁ":{"ha":382,"x_min":-43,"x_max":431,"o":"m 185 82 q 174 83 178 82 q 142 101 151 89 q 131 119 133 113 q 138 183 121 150 q 181 251 154 215 q 197 276 189 263 q 210 299 204 289 q 214 304 211 300 q 194 296 206 301 q 167 279 182 290 q 114 240 142 264 q 57 189 86 215 q 42 176 50 183 q 28 163 35 169 q -2 152 15 151 q -31 167 -19 153 q -42 197 -43 179 q -28 225 -40 214 q -13 239 -21 232 q 1 251 -6 246 q 89 326 46 292 q 174 378 132 360 q 254 385 215 396 q 288 366 278 379 q 300 343 299 353 q 294 278 313 313 q 249 204 276 244 q 242 195 246 201 q 235 183 239 189 q 289 204 256 192 q 369 235 322 217 q 403 233 388 240 q 424 208 418 225 q 423 177 431 193 q 400 154 415 161 q 319 126 356 139 q 258 104 283 114 q 234 95 244 99 q 215 89 224 92 q 199 84 206 86 q 185 82 192 82 z "},"ﬂ":{"ha":382,"x_min":-43,"x_max":431,"o":"m 185 82 q 174 83 178 82 q 142 101 151 89 q 131 119 133 113 q 138 183 121 150 q 181 251 154 215 q 197 276 189 263 q 210 299 204 289 q 214 304 211 300 q 194 296 206 301 q 167 279 182 290 q 114 240 142 264 q 57 189 86 215 q 42 176 50 183 q 28 163 35 169 q -2 152 15 151 q -31 167 -19 153 q -42 197 -43 179 q -28 225 -40 214 q -13 239 -21 232 q 1 251 -6 246 q 89 326 46 292 q 174 378 132 360 q 254 385 215 396 q 288 366 278 379 q 300 343 299 353 q 294 278 313 313 q 249 204 276 244 q 242 195 246 201 q 235 183 239 189 q 289 204 256 192 q 369 235 322 217 q 403 233 388 240 q 424 208 418 225 q 423 177 431 193 q 400 154 415 161 q 319 126 356 139 q 258 104 283 114 q 234 95 244 99 q 215 89 224 92 q 199 84 206 86 q 185 82 192 82 z "},"π":{"ha":739,"x_min":-43,"x_max":781,"o":"m 111 -39 q 92 -37 101 -39 q 72 -33 82 -35 q 38 -4 47 -26 q 38 63 25 24 q 82 165 51 103 q 94 190 88 176 q 106 217 100 204 q 67 194 88 210 q 26 161 47 178 q -5 153 13 151 q -33 168 -22 156 q -41 199 -43 182 q -26 228 -39 215 q 15 258 -7 242 q 58 286 36 275 q 163 301 115 315 q 196 274 185 297 q 195 218 207 251 q 156 128 183 185 q 141 94 149 111 q 126 63 133 78 q 123 53 125 57 q 119 44 121 49 q 205 74 149 49 q 357 176 261 100 q 450 255 408 217 q 517 318 492 293 q 542 343 542 343 q 582 356 558 363 q 600 347 593 354 q 611 332 607 339 q 613 287 621 313 q 582 204 606 261 q 566 168 574 186 q 551 135 558 150 q 549 126 550 129 q 547 119 549 122 q 603 142 574 124 q 662 185 633 161 q 710 225 690 208 q 740 236 724 238 q 769 222 757 235 q 780 192 781 208 q 765 163 779 175 q 677 92 722 125 q 587 42 632 58 q 496 38 542 26 q 464 65 474 47 q 459 108 456 85 q 475 167 463 132 q 444 140 460 153 q 410 113 428 128 q 111 -39 218 -39 z "},"ˆ":{"ha":542,"x_min":-46,"x_max":585,"o":"m 175 -42 q 161 -41 168 -42 q 146 -39 154 -40 q 118 -15 129 -33 q 113 15 113 -4 q 125 79 113 35 q 165 211 138 124 q 95 185 135 200 q 14 154 56 169 q -17 156 -1 149 q -40 181 -33 164 q -38 212 -46 196 q -14 235 -31 228 q 98 276 46 257 q 183 308 150 296 q 217 321 217 321 q 243 322 231 326 q 269 301 261 318 q 274 279 276 289 q 269 258 272 269 q 265 247 267 253 q 261 232 264 240 q 241 174 251 208 q 219 106 231 140 q 208 72 213 86 q 201 47 204 58 q 278 79 228 53 q 370 134 321 103 q 471 200 419 165 q 494 214 482 207 q 515 229 506 221 q 548 235 531 239 q 575 217 565 232 q 581 186 585 203 q 563 160 578 169 q 540 144 551 151 q 515 128 528 136 q 413 61 463 93 q 318 6 363 29 q 175 -42 228 -42 z "},"ˇ":{"ha":542,"x_min":-46,"x_max":585,"o":"m 175 -42 q 161 -41 168 -42 q 146 -39 154 -40 q 118 -15 129 -33 q 113 15 113 -4 q 125 79 113 35 q 165 211 138 124 q 95 185 135 200 q 14 154 56 169 q -17 156 -1 149 q -40 181 -33 164 q -38 212 -46 196 q -14 235 -31 228 q 98 276 46 257 q 183 308 150 296 q 217 321 217 321 q 243 322 231 326 q 269 301 261 318 q 274 279 276 289 q 269 258 272 269 q 265 247 267 253 q 261 232 264 240 q 241 174 251 208 q 219 106 231 140 q 208 72 213 86 q 201 47 204 58 q 278 79 228 53 q 370 134 321 103 q 471 200 419 165 q 494 214 482 207 q 515 229 506 221 q 548 235 531 239 q 575 217 565 232 q 581 186 585 203 q 563 160 578 169 q 540 144 551 151 q 515 128 528 136 q 413 61 463 93 q 318 6 363 29 q 175 -42 228 -42 z "},"ˉ":{"ha":540,"x_min":-46,"x_max":586,"o":"m 317 40 q 289 50 300 40 q 276 96 267 68 q 287 129 276 97 q 311 201 297 161 q 324 242 318 225 q 333 274 329 260 q 242 240 296 260 q 128 197 188 219 q 14 154 69 175 q -17 156 -1 149 q -40 181 -33 164 q -38 212 -46 196 q -14 235 -31 228 q 115 281 49 257 q 239 327 182 306 q 332 363 296 349 q 368 376 368 376 q 382 378 375 378 q 394 376 389 379 q 422 354 414 374 q 428 326 429 343 q 421 276 428 308 q 410 237 417 258 q 394 188 404 215 q 392 178 393 182 q 389 168 390 174 q 525 232 444 199 q 556 233 540 239 q 578 211 572 226 q 579 179 586 196 q 557 156 572 163 q 445 103 494 128 q 367 63 396 78 q 338 47 338 47 q 317 40 329 40 z "},"²":{"ha":818,"x_min":-46,"x_max":860,"o":"m 488 54 q 469 57 478 54 q 432 89 443 63 q 437 142 424 113 q 472 207 450 171 q 488 233 481 219 q 501 257 496 246 q 506 265 504 261 q 508 271 507 268 q 412 274 467 278 q 289 253 357 271 q 160 213 229 238 q 15 156 92 189 q -15 156 0 150 q -37 176 -31 161 q -39 209 -46 192 q -17 232 -32 226 q 133 292 61 267 q 268 333 204 318 q 547 347 439 376 q 592 308 579 339 q 586 240 604 278 q 543 163 568 203 q 539 156 542 160 q 533 146 536 151 q 628 174 565 153 q 800 235 690 194 q 831 233 815 240 q 853 208 847 225 q 853 177 860 193 q 828 154 846 161 q 711 114 764 132 q 617 83 658 96 q 532 60 561 67 q 488 54 503 54 z "},"³":{"ha":818,"x_min":-46,"x_max":860,"o":"m 488 54 q 469 57 478 54 q 432 89 443 63 q 437 142 424 113 q 472 207 450 171 q 488 233 481 219 q 501 257 496 246 q 506 265 504 261 q 508 271 507 268 q 412 274 467 278 q 289 253 357 271 q 160 213 229 238 q 15 156 92 189 q -15 156 0 150 q -37 176 -31 161 q -39 209 -46 192 q -17 232 -32 226 q 133 292 61 267 q 268 333 204 318 q 547 347 439 376 q 592 308 579 339 q 586 240 604 278 q 543 163 568 203 q 539 156 542 160 q 533 146 536 151 q 628 174 565 153 q 800 235 690 194 q 831 233 815 240 q 853 208 847 225 q 853 177 860 193 q 828 154 846 161 q 711 114 764 132 q 617 83 658 96 q 532 60 561 67 q 488 54 503 54 z "},"¹":{"ha":542,"x_min":-46,"x_max":585,"o":"m 175 -42 q 161 -41 168 -42 q 146 -39 154 -40 q 118 -15 129 -33 q 113 15 113 -4 q 125 79 113 35 q 165 211 138 124 q 95 185 135 200 q 14 154 56 169 q -17 156 -1 149 q -40 181 -33 164 q -38 212 -46 196 q -14 235 -31 228 q 98 276 46 257 q 183 308 150 296 q 217 321 217 321 q 243 322 231 326 q 269 301 261 318 q 274 279 276 289 q 269 258 272 269 q 265 247 267 253 q 261 232 264 240 q 241 174 251 208 q 219 106 231 140 q 208 72 213 86 q 201 47 204 58 q 278 79 228 53 q 370 134 321 103 q 471 200 419 165 q 494 214 482 207 q 515 229 506 221 q 548 235 531 239 q 575 217 565 232 q 581 186 585 203 q 563 160 578 169 q 540 144 551 151 q 515 128 528 136 q 413 61 463 93 q 318 6 363 29 q 175 -42 228 -42 z "},"¼":{"ha":540,"x_min":-46,"x_max":586,"o":"m 317 40 q 289 50 300 40 q 276 96 267 68 q 287 129 276 97 q 311 201 297 161 q 324 242 318 225 q 333 274 329 260 q 242 240 296 260 q 128 197 188 219 q 14 154 69 175 q -17 156 -1 149 q -40 181 -33 164 q -38 212 -46 196 q -14 235 -31 228 q 115 281 49 257 q 239 327 182 306 q 332 363 296 349 q 368 376 368 376 q 382 378 375 378 q 394 376 389 379 q 422 354 414 374 q 428 326 429 343 q 421 276 428 308 q 410 237 417 258 q 394 188 404 215 q 392 178 393 182 q 389 168 390 174 q 525 232 444 199 q 556 233 540 239 q 578 211 572 226 q 579 179 586 196 q 557 156 572 163 q 445 103 494 128 q 367 63 396 78 q 338 47 338 47 q 317 40 329 40 z "},"½":{"ha":542,"x_min":-46,"x_max":585,"o":"m 175 -42 q 161 -41 168 -42 q 146 -39 154 -40 q 118 -15 129 -33 q 113 15 113 -4 q 125 79 113 35 q 165 211 138 124 q 95 185 135 200 q 14 154 56 169 q -17 156 -1 149 q -40 181 -33 164 q -38 212 -46 196 q -14 235 -31 228 q 98 276 46 257 q 183 308 150 296 q 217 321 217 321 q 243 322 231 326 q 269 301 261 318 q 274 279 276 289 q 269 258 272 269 q 265 247 267 253 q 261 232 264 240 q 241 174 251 208 q 219 106 231 140 q 208 72 213 86 q 201 47 204 58 q 278 79 228 53 q 370 134 321 103 q 471 200 419 165 q 494 214 482 207 q 515 229 506 221 q 548 235 531 239 q 575 217 565 232 q 581 186 585 203 q 563 160 578 169 q 540 144 551 151 q 515 128 528 136 q 413 61 463 93 q 318 6 363 29 q 175 -42 228 -42 z "},"¾":{"ha":818,"x_min":-46,"x_max":860,"o":"m 488 54 q 469 57 478 54 q 432 89 443 63 q 437 142 424 113 q 472 207 450 171 q 488 233 481 219 q 501 257 496 246 q 506 265 504 261 q 508 271 507 268 q 412 274 467 278 q 289 253 357 271 q 160 213 229 238 q 15 156 92 189 q -15 156 0 150 q -37 176 -31 161 q -39 209 -46 192 q -17 232 -32 226 q 133 292 61 267 q 268 333 204 318 q 547 347 439 376 q 592 308 579 339 q 586 240 604 278 q 543 163 568 203 q 539 156 542 160 q 533 146 536 151 q 628 174 565 153 q 800 235 690 194 q 831 233 815 240 q 853 208 847 225 q 853 177 860 193 q 828 154 846 161 q 711 114 764 132 q 617 83 658 96 q 532 60 561 67 q 488 54 503 54 z "},"_":{"ha":739,"x_min":-43,"x_max":781,"o":"m 111 -39 q 92 -37 101 -39 q 72 -33 82 -35 q 38 -4 47 -26 q 38 63 25 24 q 82 165 51 103 q 94 190 88 176 q 106 217 100 204 q 67 194 88 210 q 26 161 47 178 q -5 153 13 151 q -33 168 -22 156 q -41 199 -43 182 q -26 228 -39 215 q 15 258 -7 242 q 58 286 36 275 q 163 301 115 315 q 196 274 185 297 q 195 218 207 251 q 156 128 183 185 q 141 94 149 111 q 126 63 133 78 q 123 53 125 57 q 119 44 121 49 q 205 74 149 49 q 357 176 261 100 q 450 255 408 217 q 517 318 492 293 q 542 343 542 343 q 582 356 558 363 q 600 347 593 354 q 611 332 607 339 q 613 287 621 313 q 582 204 606 261 q 566 168 574 186 q 551 135 558 150 q 549 126 550 129 q 547 119 549 122 q 603 142 574 124 q 662 185 633 161 q 710 225 690 208 q 740 236 724 238 q 769 222 757 235 q 780 192 781 208 q 765 163 779 175 q 677 92 722 125 q 587 42 632 58 q 496 38 542 26 q 464 65 474 47 q 459 108 456 85 q 475 167 463 132 q 444 140 460 153 q 410 113 428 128 q 111 -39 218 -39 z "},"-":{"ha":739,"x_min":-43,"x_max":781,"o":"m 111 -39 q 92 -37 101 -39 q 72 -33 82 -35 q 38 -4 47 -26 q 38 63 25 24 q 82 165 51 103 q 94 190 88 176 q 106 217 100 204 q 67 194 88 210 q 26 161 47 178 q -5 153 13 151 q -33 168 -22 156 q -41 199 -43 182 q -26 228 -39 215 q 15 258 -7 242 q 58 286 36 275 q 163 301 115 315 q 196 274 185 297 q 195 218 207 251 q 156 128 183 185 q 141 94 149 111 q 126 63 133 78 q 123 53 125 57 q 119 44 121 49 q 205 74 149 49 q 357 176 261 100 q 450 255 408 217 q 517 318 492 293 q 542 343 542 343 q 582 356 558 363 q 600 347 593 354 q 611 332 607 339 q 613 287 621 313 q 582 204 606 261 q 566 168 574 186 q 551 135 558 150 q 549 126 550 129 q 547 119 549 122 q 603 142 574 124 q 662 185 633 161 q 710 225 690 208 q 740 236 724 238 q 769 222 757 235 q 780 192 781 208 q 765 163 779 175 q 677 92 722 125 q 587 42 632 58 q 496 38 542 26 q 464 65 474 47 q 459 108 456 85 q 475 167 463 132 q 444 140 460 153 q 410 113 428 128 q 111 -39 218 -39 z "},"–":{"ha":739,"x_min":-43,"x_max":781,"o":"m 111 -39 q 92 -37 101 -39 q 72 -33 82 -35 q 38 -4 47 -26 q 38 63 25 24 q 82 165 51 103 q 94 190 88 176 q 106 217 100 204 q 67 194 88 210 q 26 161 47 178 q -5 153 13 151 q -33 168 -22 156 q -41 199 -43 182 q -26 228 -39 215 q 15 258 -7 242 q 58 286 36 275 q 163 301 115 315 q 196 274 185 297 q 195 218 207 251 q 156 128 183 185 q 141 94 149 111 q 126 63 133 78 q 123 53 125 57 q 119 44 121 49 q 205 74 149 49 q 357 176 261 100 q 450 255 408 217 q 517 318 492 293 q 542 343 542 343 q 582 356 558 363 q 600 347 593 354 q 611 332 607 339 q 613 287 621 313 q 582 204 606 261 q 566 168 574 186 q 551 135 558 150 q 549 126 550 129 q 547 119 549 122 q 603 142 574 124 q 662 185 633 161 q 710 225 690 208 q 740 236 724 238 q 769 222 757 235 q 780 192 781 208 q 765 163 779 175 q 677 92 722 125 q 587 42 632 58 q 496 38 542 26 q 464 65 474 47 q 459 108 456 85 q 475 167 463 132 q 444 140 460 153 q 410 113 428 128 q 111 -39 218 -39 z "},"—":{"ha":739,"x_min":-43,"x_max":781,"o":"m 111 -39 q 92 -37 101 -39 q 72 -33 82 -35 q 38 -4 47 -26 q 38 63 25 24 q 82 165 51 103 q 94 190 88 176 q 106 217 100 204 q 67 194 88 210 q 26 161 47 178 q -5 153 13 151 q -33 168 -22 156 q -41 199 -43 182 q -26 228 -39 215 q 15 258 -7 242 q 58 286 36 275 q 163 301 115 315 q 196 274 185 297 q 195 218 207 251 q 156 128 183 185 q 141 94 149 111 q 126 63 133 78 q 123 53 125 57 q 119 44 121 49 q 205 74 149 49 q 357 176 261 100 q 450 255 408 217 q 517 318 492 293 q 542 343 542 343 q 582 356 558 363 q 600 347 593 354 q 611 332 607 339 q 613 287 621 313 q 582 204 606 261 q 566 168 574 186 q 551 135 558 150 q 549 126 550 129 q 547 119 549 122 q 603 142 574 124 q 662 185 633 161 q 710 225 690 208 q 740 236 724 238 q 769 222 757 235 q 780 192 781 208 q 765 163 779 175 q 677 92 722 125 q 587 42 632 58 q 496 38 542 26 q 464 65 474 47 q 459 108 456 85 q 475 167 463 132 q 444 140 460 153 q 410 113 428 128 q 111 -39 218 -39 z "},"(":{"ha":382,"x_min":-43,"x_max":431,"o":"m 185 82 q 174 83 178 82 q 142 101 151 89 q 131 119 133 113 q 138 183 121 150 q 181 251 154 215 q 197 276 189 263 q 210 299 204 289 q 214 304 211 300 q 194 296 206 301 q 167 279 182 290 q 114 240 142 264 q 57 189 86 215 q 42 176 50 183 q 28 163 35 169 q -2 152 15 151 q -31 167 -19 153 q -42 197 -43 179 q -28 225 -40 214 q -13 239 -21 232 q 1 251 -6 246 q 89 326 46 292 q 174 378 132 360 q 254 385 215 396 q 288 366 278 379 q 300 343 299 353 q 294 278 313 313 q 249 204 276 244 q 242 195 246 201 q 235 183 239 189 q 289 204 256 192 q 369 235 322 217 q 403 233 388 240 q 424 208 418 225 q 423 177 431 193 q 400 154 415 161 q 319 126 356 139 q 258 104 283 114 q 234 95 244 99 q 215 89 224 92 q 199 84 206 86 q 185 82 192 82 z "},"[":{"ha":540,"x_min":-46,"x_max":586,"o":"m 317 40 q 289 50 300 40 q 276 96 267 68 q 287 129 276 97 q 311 201 297 161 q 324 242 318 225 q 333 274 329 260 q 242 240 296 260 q 128 197 188 219 q 14 154 69 175 q -17 156 -1 149 q -40 181 -33 164 q -38 212 -46 196 q -14 235 -31 228 q 115 281 49 257 q 239 327 182 306 q 332 363 296 349 q 368 376 368 376 q 382 378 375 378 q 394 376 389 379 q 422 354 414 374 q 428 326 429 343 q 421 276 428 308 q 410 237 417 258 q 394 188 404 215 q 392 178 393 182 q 389 168 390 174 q 525 232 444 199 q 556 233 540 239 q 578 211 572 226 q 579 179 586 196 q 557 156 572 163 q 445 103 494 128 q 367 63 396 78 q 338 47 338 47 q 317 40 329 40 z "},"{":{"ha":540,"x_min":-46,"x_max":586,"o":"m 317 40 q 289 50 300 40 q 276 96 267 68 q 287 129 276 97 q 311 201 297 161 q 324 242 318 225 q 333 274 329 260 q 242 240 296 260 q 128 197 188 219 q 14 154 69 175 q -17 156 -1 149 q -40 181 -33 164 q -38 212 -46 196 q -14 235 -31 228 q 115 281 49 257 q 239 327 182 306 q 332 363 296 349 q 368 376 368 376 q 382 378 375 378 q 394 376 389 379 q 422 354 414 374 q 428 326 429 343 q 421 276 428 308 q 410 237 417 258 q 394 188 404 215 q 392 178 393 182 q 389 168 390 174 q 525 232 444 199 q 556 233 540 239 q 578 211 572 226 q 579 179 586 196 q 557 156 572 163 q 445 103 494 128 q 367 63 396 78 q 338 47 338 47 q 317 40 329 40 z "},"‚":{"ha":382,"x_min":-43,"x_max":431,"o":"m 185 82 q 174 83 178 82 q 142 101 151 89 q 131 119 133 113 q 138 183 121 150 q 181 251 154 215 q 197 276 189 263 q 210 299 204 289 q 214 304 211 300 q 194 296 206 301 q 167 279 182 290 q 114 240 142 264 q 57 189 86 215 q 42 176 50 183 q 28 163 35 169 q -2 152 15 151 q -31 167 -19 153 q -42 197 -43 179 q -28 225 -40 214 q -13 239 -21 232 q 1 251 -6 246 q 89 326 46 292 q 174 378 132 360 q 254 385 215 396 q 288 366 278 379 q 300 343 299 353 q 294 278 313 313 q 249 204 276 244 q 242 195 246 201 q 235 183 239 189 q 289 204 256 192 q 369 235 322 217 q 403 233 388 240 q 424 208 418 225 q 423 177 431 193 q 400 154 415 161 q 319 126 356 139 q 258 104 283 114 q 234 95 244 99 q 215 89 224 92 q 199 84 206 86 q 185 82 192 82 z "},"„":{"ha":382,"x_min":-43,"x_max":431,"o":"m 185 82 q 174 83 178 82 q 142 101 151 89 q 131 119 133 113 q 138 183 121 150 q 181 251 154 215 q 197 276 189 263 q 210 299 204 289 q 214 304 211 300 q 194 296 206 301 q 167 279 182 290 q 114 240 142 264 q 57 189 86 215 q 42 176 50 183 q 28 163 35 169 q -2 152 15 151 q -31 167 -19 153 q -42 197 -43 179 q -28 225 -40 214 q -13 239 -21 232 q 1 251 -6 246 q 89 326 46 292 q 174 378 132 360 q 254 385 215 396 q 288 366 278 379 q 300 343 299 353 q 294 278 313 313 q 249 204 276 244 q 242 195 246 201 q 235 183 239 189 q 289 204 256 192 q 369 235 322 217 q 403 233 388 240 q 424 208 418 225 q 423 177 431 193 q 400 154 415 161 q 319 126 356 139 q 258 104 283 114 q 234 95 244 99 q 215 89 224 92 q 199 84 206 86 q 185 82 192 82 z "},")":{"ha":382,"x_min":-43,"x_max":431,"o":"m 185 82 q 174 83 178 82 q 142 101 151 89 q 131 119 133 113 q 138 183 121 150 q 181 251 154 215 q 197 276 189 263 q 210 299 204 289 q 214 304 211 300 q 194 296 206 301 q 167 279 182 290 q 114 240 142 264 q 57 189 86 215 q 42 176 50 183 q 28 163 35 169 q -2 152 15 151 q -31 167 -19 153 q -42 197 -43 179 q -28 225 -40 214 q -13 239 -21 232 q 1 251 -6 246 q 89 326 46 292 q 174 378 132 360 q 254 385 215 396 q 288 366 278 379 q 300 343 299 353 q 294 278 313 313 q 249 204 276 244 q 242 195 246 201 q 235 183 239 189 q 289 204 256 192 q 369 235 322 217 q 403 233 388 240 q 424 208 418 225 q 423 177 431 193 q 400 154 415 161 q 319 126 356 139 q 258 104 283 114 q 234 95 244 99 q 215 89 224 92 q 199 84 206 86 q 185 82 192 82 z "},"]":{"ha":818,"x_min":-46,"x_max":860,"o":"m 488 54 q 469 57 478 54 q 432 89 443 63 q 437 142 424 113 q 472 207 450 171 q 488 233 481 219 q 501 257 496 246 q 506 265 504 261 q 508 271 507 268 q 412 274 467 278 q 289 253 357 271 q 160 213 229 238 q 15 156 92 189 q -15 156 0 150 q -37 176 -31 161 q -39 209 -46 192 q -17 232 -32 226 q 133 292 61 267 q 268 333 204 318 q 547 347 439 376 q 592 308 579 339 q 586 240 604 278 q 543 163 568 203 q 539 156 542 160 q 533 146 536 151 q 628 174 565 153 q 800 235 690 194 q 831 233 815 240 q 853 208 847 225 q 853 177 860 193 q 828 154 846 161 q 711 114 764 132 q 617 83 658 96 q 532 60 561 67 q 488 54 503 54 z "},"}":{"ha":818,"x_min":-46,"x_max":860,"o":"m 488 54 q 469 57 478 54 q 432 89 443 63 q 437 142 424 113 q 472 207 450 171 q 488 233 481 219 q 501 257 496 246 q 506 265 504 261 q 508 271 507 268 q 412 274 467 278 q 289 253 357 271 q 160 213 229 238 q 15 156 92 189 q -15 156 0 150 q -37 176 -31 161 q -39 209 -46 192 q -17 232 -32 226 q 133 292 61 267 q 268 333 204 318 q 547 347 439 376 q 592 308 579 339 q 586 240 604 278 q 543 163 568 203 q 539 156 542 160 q 533 146 536 151 q 628 174 565 153 q 800 235 690 194 q 831 233 815 240 q 853 208 847 225 q 853 177 860 193 q 828 154 846 161 q 711 114 764 132 q 617 83 658 96 q 532 60 561 67 q 488 54 503 54 z "},"«":{"ha":382,"x_min":-43,"x_max":431,"o":"m 185 82 q 174 83 178 82 q 142 101 151 89 q 131 119 133 113 q 138 183 121 150 q 181 251 154 215 q 197 276 189 263 q 210 299 204 289 q 214 304 211 300 q 194 296 206 301 q 167 279 182 290 q 114 240 142 264 q 57 189 86 215 q 42 176 50 183 q 28 163 35 169 q -2 152 15 151 q -31 167 -19 153 q -42 197 -43 179 q -28 225 -40 214 q -13 239 -21 232 q 1 251 -6 246 q 89 326 46 292 q 174 378 132 360 q 254 385 215 396 q 288 366 278 379 q 300 343 299 353 q 294 278 313 313 q 249 204 276 244 q 242 195 246 201 q 235 183 239 189 q 289 204 256 192 q 369 235 322 217 q 403 233 388 240 q 424 208 418 225 q 423 177 431 193 q 400 154 415 161 q 319 126 356 139 q 258 104 283 114 q 234 95 244 99 q 215 89 224 92 q 199 84 206 86 q 185 82 192 82 z "},"‘":{"ha":739,"x_min":-43,"x_max":781,"o":"m 111 -39 q 92 -37 101 -39 q 72 -33 82 -35 q 38 -4 47 -26 q 38 63 25 24 q 82 165 51 103 q 94 190 88 176 q 106 217 100 204 q 67 194 88 210 q 26 161 47 178 q -5 153 13 151 q -33 168 -22 156 q -41 199 -43 182 q -26 228 -39 215 q 15 258 -7 242 q 58 286 36 275 q 163 301 115 315 q 196 274 185 297 q 195 218 207 251 q 156 128 183 185 q 141 94 149 111 q 126 63 133 78 q 123 53 125 57 q 119 44 121 49 q 205 74 149 49 q 357 176 261 100 q 450 255 408 217 q 517 318 492 293 q 542 343 542 343 q 582 356 558 363 q 600 347 593 354 q 611 332 607 339 q 613 287 621 313 q 582 204 606 261 q 566 168 574 186 q 551 135 558 150 q 549 126 550 129 q 547 119 549 122 q 603 142 574 124 q 662 185 633 161 q 710 225 690 208 q 740 236 724 238 q 769 222 757 235 q 780 192 781 208 q 765 163 779 175 q 677 92 722 125 q 587 42 632 58 q 496 38 542 26 q 464 65 474 47 q 459 108 456 85 q 475 167 463 132 q 444 140 460 153 q 410 113 428 128 q 111 -39 218 -39 z "},"“":{"ha":382,"x_min":-43,"x_max":431,"o":"m 185 82 q 174 83 178 82 q 142 101 151 89 q 131 119 133 113 q 138 183 121 150 q 181 251 154 215 q 197 276 189 263 q 210 299 204 289 q 214 304 211 300 q 194 296 206 301 q 167 279 182 290 q 114 240 142 264 q 57 189 86 215 q 42 176 50 183 q 28 163 35 169 q -2 152 15 151 q -31 167 -19 153 q -42 197 -43 179 q -28 225 -40 214 q -13 239 -21 232 q 1 251 -6 246 q 89 326 46 292 q 174 378 132 360 q 254 385 215 396 q 288 366 278 379 q 300 343 299 353 q 294 278 313 313 q 249 204 276 244 q 242 195 246 201 q 235 183 239 189 q 289 204 256 192 q 369 235 322 217 q 403 233 388 240 q 424 208 418 225 q 423 177 431 193 q 400 154 415 161 q 319 126 356 139 q 258 104 283 114 q 234 95 244 99 q 215 89 224 92 q 199 84 206 86 q 185 82 192 82 z "},"‹":{"ha":818,"x_min":-46,"x_max":860,"o":"m 488 54 q 469 57 478 54 q 432 89 443 63 q 437 142 424 113 q 472 207 450 171 q 488 233 481 219 q 501 257 496 246 q 506 265 504 261 q 508 271 507 268 q 412 274 467 278 q 289 253 357 271 q 160 213 229 238 q 15 156 92 189 q -15 156 0 150 q -37 176 -31 161 q -39 209 -46 192 q -17 232 -32 226 q 133 292 61 267 q 268 333 204 318 q 547 347 439 376 q 592 308 579 339 q 586 240 604 278 q 543 163 568 203 q 539 156 542 160 q 533 146 536 151 q 628 174 565 153 q 800 235 690 194 q 831 233 815 240 q 853 208 847 225 q 853 177 860 193 q 828 154 846 161 q 711 114 764 132 q 617 83 658 96 q 532 60 561 67 q 488 54 503 54 z "},"»":{"ha":542,"x_min":-46,"x_max":585,"o":"m 175 -42 q 161 -41 168 -42 q 146 -39 154 -40 q 118 -15 129 -33 q 113 15 113 -4 q 125 79 113 35 q 165 211 138 124 q 95 185 135 200 q 14 154 56 169 q -17 156 -1 149 q -40 181 -33 164 q -38 212 -46 196 q -14 235 -31 228 q 98 276 46 257 q 183 308 150 296 q 217 321 217 321 q 243 322 231 326 q 269 301 261 318 q 274 279 276 289 q 269 258 272 269 q 265 247 267 253 q 261 232 264 240 q 241 174 251 208 q 219 106 231 140 q 208 72 213 86 q 201 47 204 58 q 278 79 228 53 q 370 134 321 103 q 471 200 419 165 q 494 214 482 207 q 515 229 506 221 q 548 235 531 239 q 575 217 565 232 q 581 186 585 203 q 563 160 578 169 q 540 144 551 151 q 515 128 528 136 q 413 61 463 93 q 318 6 363 29 q 175 -42 228 -42 z "},"’":{"ha":382,"x_min":-43,"x_max":431,"o":"m 185 82 q 174 83 178 82 q 142 101 151 89 q 131 119 133 113 q 138 183 121 150 q 181 251 154 215 q 197 276 189 263 q 210 299 204 289 q 214 304 211 300 q 194 296 206 301 q 167 279 182 290 q 114 240 142 264 q 57 189 86 215 q 42 176 50 183 q 28 163 35 169 q -2 152 15 151 q -31 167 -19 153 q -42 197 -43 179 q -28 225 -40 214 q -13 239 -21 232 q 1 251 -6 246 q 89 326 46 292 q 174 378 132 360 q 254 385 215 396 q 288 366 278 379 q 300 343 299 353 q 294 278 313 313 q 249 204 276 244 q 242 195 246 201 q 235 183 239 189 q 289 204 256 192 q 369 235 322 217 q 403 233 388 240 q 424 208 418 225 q 423 177 431 193 q 400 154 415 161 q 319 126 356 139 q 258 104 283 114 q 234 95 244 99 q 215 89 224 92 q 199 84 206 86 q 185 82 192 82 z "},"”":{"ha":382,"x_min":-43,"x_max":431,"o":"m 185 82 q 174 83 178 82 q 142 101 151 89 q 131 119 133 113 q 138 183 121 150 q 181 251 154 215 q 197 276 189 263 q 210 299 204 289 q 214 304 211 300 q 194 296 206 301 q 167 279 182 290 q 114 240 142 264 q 57 189 86 215 q 42 176 50 183 q 28 163 35 169 q -2 152 15 151 q -31 167 -19 153 q -42 197 -43 179 q -28 225 -40 214 q -13 239 -21 232 q 1 251 -6 246 q 89 326 46 292 q 174 378 132 360 q 254 385 215 396 q 288 366 278 379 q 300 343 299 353 q 294 278 313 313 q 249 204 276 244 q 242 195 246 201 q 235 183 239 189 q 289 204 256 192 q 369 235 322 217 q 403 233 388 240 q 424 208 418 225 q 423 177 431 193 q 400 154 415 161 q 319 126 356 139 q 258 104 283 114 q 234 95 244 99 q 215 89 224 92 q 199 84 206 86 q 185 82 192 82 z "},"›":{"ha":818,"x_min":-46,"x_max":860,"o":"m 488 54 q 469 57 478 54 q 432 89 443 63 q 437 142 424 113 q 472 207 450 171 q 488 233 481 219 q 501 257 496 246 q 506 265 504 261 q 508 271 507 268 q 412 274 467 278 q 289 253 357 271 q 160 213 229 238 q 15 156 92 189 q -15 156 0 150 q -37 176 -31 161 q -39 209 -46 192 q -17 232 -32 226 q 133 292 61 267 q 268 333 204 318 q 547 347 439 376 q 592 308 579 339 q 586 240 604 278 q 543 163 568 203 q 539 156 542 160 q 533 146 536 151 q 628 174 565 153 q 800 235 690 194 q 831 233 815 240 q 853 208 847 225 q 853 177 860 193 q 828 154 846 161 q 711 114 764 132 q 617 83 658 96 q 532 60 561 67 q 488 54 503 54 z "},"!":{"ha":739,"x_min":-43,"x_max":781,"o":"m 111 -39 q 92 -37 101 -39 q 72 -33 82 -35 q 38 -4 47 -26 q 38 63 25 24 q 82 165 51 103 q 94 190 88 176 q 106 217 100 204 q 67 194 88 210 q 26 161 47 178 q -5 153 13 151 q -33 168 -22 156 q -41 199 -43 182 q -26 228 -39 215 q 15 258 -7 242 q 58 286 36 275 q 163 301 115 315 q 196 274 185 297 q 195 218 207 251 q 156 128 183 185 q 141 94 149 111 q 126 63 133 78 q 123 53 125 57 q 119 44 121 49 q 205 74 149 49 q 357 176 261 100 q 450 255 408 217 q 517 318 492 293 q 542 343 542 343 q 582 356 558 363 q 600 347 593 354 q 611 332 607 339 q 613 287 621 313 q 582 204 606 261 q 566 168 574 186 q 551 135 558 150 q 549 126 550 129 q 547 119 549 122 q 603 142 574 124 q 662 185 633 161 q 710 225 690 208 q 740 236 724 238 q 769 222 757 235 q 780 192 781 208 q 765 163 779 175 q 677 92 722 125 q 587 42 632 58 q 496 38 542 26 q 464 65 474 47 q 459 108 456 85 q 475 167 463 132 q 444 140 460 153 q 410 113 428 128 q 111 -39 218 -39 z "},"\"":{"ha":739,"x_min":-43,"x_max":781,"o":"m 111 -39 q 92 -37 101 -39 q 72 -33 82 -35 q 38 -4 47 -26 q 38 63 25 24 q 82 165 51 103 q 94 190 88 176 q 106 217 100 204 q 67 194 88 210 q 26 161 47 178 q -5 153 13 151 q -33 168 -22 156 q -41 199 -43 182 q -26 228 -39 215 q 15 258 -7 242 q 58 286 36 275 q 163 301 115 315 q 196 274 185 297 q 195 218 207 251 q 156 128 183 185 q 141 94 149 111 q 126 63 133 78 q 123 53 125 57 q 119 44 121 49 q 205 74 149 49 q 357 176 261 100 q 450 255 408 217 q 517 318 492 293 q 542 343 542 343 q 582 356 558 363 q 600 347 593 354 q 611 332 607 339 q 613 287 621 313 q 582 204 606 261 q 566 168 574 186 q 551 135 558 150 q 549 126 550 129 q 547 119 549 122 q 603 142 574 124 q 662 185 633 161 q 710 225 690 208 q 740 236 724 238 q 769 222 757 235 q 780 192 781 208 q 765 163 779 175 q 677 92 722 125 q 587 42 632 58 q 496 38 542 26 q 464 65 474 47 q 459 108 456 85 q 475 167 463 132 q 444 140 460 153 q 410 113 428 128 q 111 -39 218 -39 z "},"#":{"ha":739,"x_min":-43,"x_max":781,"o":"m 111 -39 q 92 -37 101 -39 q 72 -33 82 -35 q 38 -4 47 -26 q 38 63 25 24 q 82 165 51 103 q 94 190 88 176 q 106 217 100 204 q 67 194 88 210 q 26 161 47 178 q -5 153 13 151 q -33 168 -22 156 q -41 199 -43 182 q -26 228 -39 215 q 15 258 -7 242 q 58 286 36 275 q 163 301 115 315 q 196 274 185 297 q 195 218 207 251 q 156 128 183 185 q 141 94 149 111 q 126 63 133 78 q 123 53 125 57 q 119 44 121 49 q 205 74 149 49 q 357 176 261 100 q 450 255 408 217 q 517 318 492 293 q 542 343 542 343 q 582 356 558 363 q 600 347 593 354 q 611 332 607 339 q 613 287 621 313 q 582 204 606 261 q 566 168 574 186 q 551 135 558 150 q 549 126 550 129 q 547 119 549 122 q 603 142 574 124 q 662 185 633 161 q 710 225 690 208 q 740 236 724 238 q 769 222 757 235 q 780 192 781 208 q 765 163 779 175 q 677 92 722 125 q 587 42 632 58 q 496 38 542 26 q 464 65 474 47 q 459 108 456 85 q 475 167 463 132 q 444 140 460 153 q 410 113 428 128 q 111 -39 218 -39 z "},"%":{"ha":739,"x_min":-43,"x_max":781,"o":"m 111 -39 q 92 -37 101 -39 q 72 -33 82 -35 q 38 -4 47 -26 q 38 63 25 24 q 82 165 51 103 q 94 190 88 176 q 106 217 100 204 q 67 194 88 210 q 26 161 47 178 q -5 153 13 151 q -33 168 -22 156 q -41 199 -43 182 q -26 228 -39 215 q 15 258 -7 242 q 58 286 36 275 q 163 301 115 315 q 196 274 185 297 q 195 218 207 251 q 156 128 183 185 q 141 94 149 111 q 126 63 133 78 q 123 53 125 57 q 119 44 121 49 q 205 74 149 49 q 357 176 261 100 q 450 255 408 217 q 517 318 492 293 q 542 343 542 343 q 582 356 558 363 q 600 347 593 354 q 611 332 607 339 q 613 287 621 313 q 582 204 606 261 q 566 168 574 186 q 551 135 558 150 q 549 126 550 129 q 547 119 549 122 q 603 142 574 124 q 662 185 633 161 q 710 225 690 208 q 740 236 724 238 q 769 222 757 235 q 780 192 781 208 q 765 163 779 175 q 677 92 722 125 q 587 42 632 58 q 496 38 542 26 q 464 65 474 47 q 459 108 456 85 q 475 167 463 132 q 444 140 460 153 q 410 113 428 128 q 111 -39 218 -39 z "},"&":{"ha":382,"x_min":-43,"x_max":431,"o":"m 185 82 q 174 83 178 82 q 142 101 151 89 q 131 119 133 113 q 138 183 121 150 q 181 251 154 215 q 197 276 189 263 q 210 299 204 289 q 214 304 211 300 q 194 296 206 301 q 167 279 182 290 q 114 240 142 264 q 57 189 86 215 q 42 176 50 183 q 28 163 35 169 q -2 152 15 151 q -31 167 -19 153 q -42 197 -43 179 q -28 225 -40 214 q -13 239 -21 232 q 1 251 -6 246 q 89 326 46 292 q 174 378 132 360 q 254 385 215 396 q 288 366 278 379 q 300 343 299 353 q 294 278 313 313 q 249 204 276 244 q 242 195 246 201 q 235 183 239 189 q 289 204 256 192 q 369 235 322 217 q 403 233 388 240 q 424 208 418 225 q 423 177 431 193 q 400 154 415 161 q 319 126 356 139 q 258 104 283 114 q 234 95 244 99 q 215 89 224 92 q 199 84 206 86 q 185 82 192 82 z "},"'":{"ha":382,"x_min":-43,"x_max":431,"o":"m 185 82 q 174 83 178 82 q 142 101 151 89 q 131 119 133 113 q 138 183 121 150 q 181 251 154 215 q 197 276 189 263 q 210 299 204 289 q 214 304 211 300 q 194 296 206 301 q 167 279 182 290 q 114 240 142 264 q 57 189 86 215 q 42 176 50 183 q 28 163 35 169 q -2 152 15 151 q -31 167 -19 153 q -42 197 -43 179 q -28 225 -40 214 q -13 239 -21 232 q 1 251 -6 246 q 89 326 46 292 q 174 378 132 360 q 254 385 215 396 q 288 366 278 379 q 300 343 299 353 q 294 278 313 313 q 249 204 276 244 q 242 195 246 201 q 235 183 239 189 q 289 204 256 192 q 369 235 322 217 q 403 233 388 240 q 424 208 418 225 q 423 177 431 193 q 400 154 415 161 q 319 126 356 139 q 258 104 283 114 q 234 95 244 99 q 215 89 224 92 q 199 84 206 86 q 185 82 192 82 z "},"*":{"ha":382,"x_min":-43,"x_max":431,"o":"m 185 82 q 174 83 178 82 q 142 101 151 89 q 131 119 133 113 q 138 183 121 150 q 181 251 154 215 q 197 276 189 263 q 210 299 204 289 q 214 304 211 300 q 194 296 206 301 q 167 279 182 290 q 114 240 142 264 q 57 189 86 215 q 42 176 50 183 q 28 163 35 169 q -2 152 15 151 q -31 167 -19 153 q -42 197 -43 179 q -28 225 -40 214 q -13 239 -21 232 q 1 251 -6 246 q 89 326 46 292 q 174 378 132 360 q 254 385 215 396 q 288 366 278 379 q 300 343 299 353 q 294 278 313 313 q 249 204 276 244 q 242 195 246 201 q 235 183 239 189 q 289 204 256 192 q 369 235 322 217 q 403 233 388 240 q 424 208 418 225 q 423 177 431 193 q 400 154 415 161 q 319 126 356 139 q 258 104 283 114 q 234 95 244 99 q 215 89 224 92 q 199 84 206 86 q 185 82 192 82 z "},",":{"ha":540,"x_min":-46,"x_max":586,"o":"m 317 40 q 289 50 300 40 q 276 96 267 68 q 287 129 276 97 q 311 201 297 161 q 324 242 318 225 q 333 274 329 260 q 242 240 296 260 q 128 197 188 219 q 14 154 69 175 q -17 156 -1 149 q -40 181 -33 164 q -38 212 -46 196 q -14 235 -31 228 q 115 281 49 257 q 239 327 182 306 q 332 363 296 349 q 368 376 368 376 q 382 378 375 378 q 394 376 389 379 q 422 354 414 374 q 428 326 429 343 q 421 276 428 308 q 410 237 417 258 q 394 188 404 215 q 392 178 393 182 q 389 168 390 174 q 525 232 444 199 q 556 233 540 239 q 578 211 572 226 q 579 179 586 196 q 557 156 572 163 q 445 103 494 128 q 367 63 396 78 q 338 47 338 47 q 317 40 329 40 z "},".":{"ha":540,"x_min":-46,"x_max":586,"o":"m 317 40 q 289 50 300 40 q 276 96 267 68 q 287 129 276 97 q 311 201 297 161 q 324 242 318 225 q 333 274 329 260 q 242 240 296 260 q 128 197 188 219 q 14 154 69 175 q -17 156 -1 149 q -40 181 -33 164 q -38 212 -46 196 q -14 235 -31 228 q 115 281 49 257 q 239 327 182 306 q 332 363 296 349 q 368 376 368 376 q 382 378 375 378 q 394 376 389 379 q 422 354 414 374 q 428 326 429 343 q 421 276 428 308 q 410 237 417 258 q 394 188 404 215 q 392 178 393 182 q 389 168 390 174 q 525 232 444 199 q 556 233 540 239 q 578 211 572 226 q 579 179 586 196 q 557 156 572 163 q 445 103 494 128 q 367 63 396 78 q 338 47 338 47 q 317 40 329 40 z "},"/":{"ha":540,"x_min":-46,"x_max":586,"o":"m 317 40 q 289 50 300 40 q 276 96 267 68 q 287 129 276 97 q 311 201 297 161 q 324 242 318 225 q 333 274 329 260 q 242 240 296 260 q 128 197 188 219 q 14 154 69 175 q -17 156 -1 149 q -40 181 -33 164 q -38 212 -46 196 q -14 235 -31 228 q 115 281 49 257 q 239 327 182 306 q 332 363 296 349 q 368 376 368 376 q 382 378 375 378 q 394 376 389 379 q 422 354 414 374 q 428 326 429 343 q 421 276 428 308 q 410 237 417 258 q 394 188 404 215 q 392 178 393 182 q 389 168 390 174 q 525 232 444 199 q 556 233 540 239 q 578 211 572 226 q 579 179 586 196 q 557 156 572 163 q 445 103 494 128 q 367 63 396 78 q 338 47 338 47 q 317 40 329 40 z "},":":{"ha":542,"x_min":-46,"x_max":585,"o":"m 175 -42 q 161 -41 168 -42 q 146 -39 154 -40 q 118 -15 129 -33 q 113 15 113 -4 q 125 79 113 35 q 165 211 138 124 q 95 185 135 200 q 14 154 56 169 q -17 156 -1 149 q -40 181 -33 164 q -38 212 -46 196 q -14 235 -31 228 q 98 276 46 257 q 183 308 150 296 q 217 321 217 321 q 243 322 231 326 q 269 301 261 318 q 274 279 276 289 q 269 258 272 269 q 265 247 267 253 q 261 232 264 240 q 241 174 251 208 q 219 106 231 140 q 208 72 213 86 q 201 47 204 58 q 278 79 228 53 q 370 134 321 103 q 471 200 419 165 q 494 214 482 207 q 515 229 506 221 q 548 235 531 239 q 575 217 565 232 q 581 186 585 203 q 563 160 578 169 q 540 144 551 151 q 515 128 528 136 q 413 61 463 93 q 318 6 363 29 q 175 -42 228 -42 z "}}}
